<svg width="177" height="12" viewBox="0 0 177 12" fill="none" xmlns="http://www.w3.org/2000/svg">
<path d="M0.666667 6C0.666667 8.94552 3.05448 11.3333 6 11.3333C8.94552 11.3333 11.3333 8.94552 11.3333 6C11.3333 3.05448 8.94552 0.666667 6 0.666667C3.05448 0.666667 0.666667 3.05448 0.666667 6ZM165.667 6C165.667 8.94552 168.054 11.3333 171 11.3333C173.946 11.3333 176.333 8.94552 176.333 6C176.333 3.05448 173.946 0.666667 171 0.666667C168.054 0.666667 165.667 3.05448 165.667 6ZM6 6V7H171V6V5H6V6Z" fill="#FEC544"/>
</svg>
