<svg width="122" height="36" viewBox="0 0 122 36" fill="none" xmlns="http://www.w3.org/2000/svg">
<g clip-path="url(#clip0_16_306)">
<path d="M46.1512 17.3201L37.6849 6.6053C37.4169 6.26814 37.0752 5.99592 36.6855 5.80924C36.2959 5.62256 35.8686 5.52632 35.4359 5.52779H32.54L30.8967 9.46502H32.9916C33.4952 9.46356 33.9815 9.64701 34.357 9.98007C34.4535 10.0601 34.5409 10.1505 34.6175 10.2494L40.7436 18.0075C41.1424 18.5111 41.3592 19.1331 41.3592 19.7736C41.3592 20.4141 41.1424 21.0361 40.7436 21.5396L34.6175 29.2977C34.4241 29.5422 34.1772 29.7399 33.8955 29.8758C33.6139 30.0117 33.3048 30.0823 32.9916 30.0822H20.8653L19.2176 34.0065H35.4338C35.8663 34.0071 36.2933 33.9105 36.6828 33.7239C37.0723 33.5373 37.4142 33.2655 37.6828 32.929L46.149 22.2142C46.702 21.5167 47.0028 20.655 47.0032 19.7675C47.0036 18.88 46.7035 18.018 46.1512 17.3201Z" fill="url(#paint0_linear_16_306)"/>
<path d="M15.5662 2C15.1337 1.99932 14.7067 2.09592 14.3172 2.28254C13.9277 2.46916 13.5858 2.74095 13.3172 3.07751L4.85097 13.7923C4.30153 14.4889 4.00299 15.3481 4.00299 16.2329C4.00299 17.1176 4.30153 17.9768 4.85097 18.6734L13.3172 29.3882C13.5858 29.7248 13.9277 29.9966 14.3172 30.1832C14.7067 30.3698 15.1337 30.4664 15.5662 30.4658H18.4621L20.1055 26.5264H18.0084C17.6954 26.5269 17.3864 26.4567 17.1047 26.3212C16.823 26.1857 16.576 25.9883 16.3825 25.7441L10.2564 17.986C9.85778 17.4819 9.64114 16.8597 9.64114 16.2189C9.64114 15.5781 9.85778 14.9558 10.2564 14.4517L16.3825 6.69365C16.5759 6.44914 16.8228 6.25147 17.1045 6.11558C17.3861 5.97968 17.6953 5.90912 18.0084 5.90922H30.1282L31.7824 1.97198L15.5662 2Z" fill="url(#paint1_linear_16_306)"/>
<path d="M22.895 34H19.2176L31.116 5.5213H34.7955L22.895 34Z" fill="url(#paint2_linear_16_306)"/>
<path d="M28.1028 2H31.7802L19.8819 30.4787H16.2023L28.1028 2Z" fill="url(#paint3_linear_16_306)"/>
</g>
<path d="M60.81 25.36C59.25 25.36 57.82 24.99 56.52 24.25C55.24 23.51 54.22 22.5 53.46 21.22C52.7 19.94 52.32 18.49 52.32 16.87C52.32 15.23 52.7 13.78 53.46 12.52C54.22 11.24 55.24 10.24 56.52 9.52C57.8 8.78 59.23 8.41 60.81 8.41C62.41 8.41 63.84 8.78 65.1 9.52C66.38 10.24 67.39 11.24 68.13 12.52C68.89 13.78 69.27 15.23 69.27 16.87C69.27 18.51 68.89 19.97 68.13 21.25C67.37 22.53 66.35 23.54 65.07 24.28C63.79 25 62.37 25.36 60.81 25.36ZM60.81 22.21C61.77 22.21 62.62 21.98 63.36 21.52C64.1 21.06 64.68 20.43 65.1 19.63C65.54 18.81 65.76 17.89 65.76 16.87C65.76 15.85 65.54 14.94 65.1 14.14C64.68 13.34 64.1 12.71 63.36 12.25C62.62 11.79 61.77 11.56 60.81 11.56C59.87 11.56 59.02 11.79 58.26 12.25C57.52 12.71 56.93 13.34 56.49 14.14C56.07 14.94 55.86 15.85 55.86 16.87C55.86 17.89 56.07 18.81 56.49 19.63C56.93 20.43 57.52 21.06 58.26 21.52C59.02 21.98 59.87 22.21 60.81 22.21ZM80.4096 25.36C78.8496 25.36 77.4196 24.99 76.1196 24.25C74.8396 23.51 73.8196 22.5 73.0596 21.22C72.2996 19.94 71.9196 18.49 71.9196 16.87C71.9196 15.23 72.2996 13.78 73.0596 12.52C73.8196 11.24 74.8396 10.24 76.1196 9.52C77.3996 8.78 78.8296 8.41 80.4096 8.41C82.0096 8.41 83.4396 8.78 84.6996 9.52C85.9796 10.24 86.9896 11.24 87.7296 12.52C88.4896 13.78 88.8696 15.23 88.8696 16.87C88.8696 18.51 88.4896 19.97 87.7296 21.25C86.9696 22.53 85.9496 23.54 84.6696 24.28C83.3896 25 81.9696 25.36 80.4096 25.36ZM80.4096 22.21C81.3696 22.21 82.2196 21.98 82.9596 21.52C83.6996 21.06 84.2796 20.43 84.6996 19.63C85.1396 18.81 85.3596 17.89 85.3596 16.87C85.3596 15.85 85.1396 14.94 84.6996 14.14C84.2796 13.34 83.6996 12.71 82.9596 12.25C82.2196 11.79 81.3696 11.56 80.4096 11.56C79.4696 11.56 78.6196 11.79 77.8596 12.25C77.1196 12.71 76.5296 13.34 76.0896 14.14C75.6696 14.94 75.4596 15.85 75.4596 16.87C75.4596 17.89 75.6696 18.81 76.0896 19.63C76.5296 20.43 77.1196 21.06 77.8596 21.52C78.6196 21.98 79.4696 22.21 80.4096 22.21ZM93.3263 31.6C92.9263 31.6 92.5263 31.56 92.1263 31.48C91.7463 31.42 91.3963 31.32 91.0763 31.18V28.27C91.3163 28.33 91.6063 28.38 91.9463 28.42C92.2863 28.48 92.6163 28.51 92.9363 28.51C93.8763 28.51 94.5663 28.3 95.0063 27.88C95.4663 27.48 95.8763 26.86 96.2363 26.02L97.3163 23.56L97.2563 26.41L90.2363 8.77H93.8662L99.0563 22.3H97.8262L102.986 8.77H106.646L99.4763 26.77C99.0963 27.73 98.6163 28.57 98.0363 29.29C97.4763 30.03 96.8063 30.6 96.0263 31C95.2663 31.4 94.3663 31.6 93.3263 31.6ZM113.24 25.36C112.14 25.36 111.17 25.17 110.33 24.79C109.51 24.39 108.87 23.85 108.41 23.17C107.95 22.47 107.72 21.65 107.72 20.71C107.72 19.83 107.91 19.04 108.29 18.34C108.69 17.64 109.3 17.05 110.12 16.57C110.94 16.09 111.97 15.75 113.21 15.55L118.85 14.62V17.29L113.87 18.16C112.97 18.32 112.31 18.61 111.89 19.03C111.47 19.43 111.26 19.95 111.26 20.59C111.26 21.21 111.49 21.72 111.95 22.12C112.43 22.5 113.04 22.69 113.78 22.69C114.7 22.69 115.5 22.49 116.18 22.09C116.88 21.69 117.42 21.16 117.8 20.5C118.18 19.82 118.37 19.07 118.37 18.25V14.08C118.37 13.28 118.07 12.63 117.47 12.13C116.89 11.61 116.11 11.35 115.13 11.35C114.23 11.35 113.44 11.59 112.76 12.07C112.1 12.53 111.61 13.13 111.29 13.87L108.47 12.46C108.77 11.66 109.26 10.96 109.94 10.36C110.62 9.74 111.41 9.26 112.31 8.92C113.23 8.58 114.2 8.41 115.22 8.41C116.5 8.41 117.63 8.65 118.61 9.13C119.61 9.61 120.38 10.28 120.92 11.14C121.48 11.98 121.76 12.96 121.76 14.08V25H118.52V22.06L119.21 22.15C118.83 22.81 118.34 23.38 117.74 23.86C117.16 24.34 116.49 24.71 115.73 24.97C114.99 25.23 114.16 25.36 113.24 25.36Z" fill="url(#paint4_linear_16_306)"/>
<defs>
<linearGradient id="paint0_linear_16_306" x1="46.0752" y1="19.7596" x2="20.4246" y2="19.7596" gradientUnits="userSpaceOnUse">
<stop stop-color="#FEC544"/>
<stop offset="0.09" stop-color="#FDC746" stop-opacity="0.96"/>
<stop offset="0.24" stop-color="#F9CE4D" stop-opacity="0.86"/>
<stop offset="0.43" stop-color="#F3D858" stop-opacity="0.68"/>
<stop offset="0.66" stop-color="#EBE766" stop-opacity="0.44"/>
<stop offset="0.92" stop-color="#E1F979" stop-opacity="0.14"/>
<stop offset="1" stop-color="#DEFF7F" stop-opacity="0.05"/>
</linearGradient>
<linearGradient id="paint1_linear_16_306" x1="2.82557" y1="16.2383" x2="24.0086" y2="16.2383" gradientUnits="userSpaceOnUse">
<stop stop-color="#FEC544"/>
<stop offset="0.09" stop-color="#FDC746" stop-opacity="0.96"/>
<stop offset="0.24" stop-color="#F9CE4D" stop-opacity="0.86"/>
<stop offset="0.43" stop-color="#F3D858" stop-opacity="0.68"/>
<stop offset="0.66" stop-color="#EBE766" stop-opacity="0.44"/>
<stop offset="0.92" stop-color="#E1F979" stop-opacity="0.14"/>
<stop offset="1" stop-color="#DEFF7F" stop-opacity="0.05"/>
</linearGradient>
<linearGradient id="paint2_linear_16_306" x1="18.5577" y1="19.7617" x2="30.4365" y2="19.7617" gradientUnits="userSpaceOnUse">
<stop stop-color="#FEC544"/>
<stop offset="0.09" stop-color="#FDC746" stop-opacity="0.96"/>
<stop offset="0.24" stop-color="#F9CE4D" stop-opacity="0.86"/>
<stop offset="0.43" stop-color="#F3D858" stop-opacity="0.68"/>
<stop offset="0.66" stop-color="#EBE766" stop-opacity="0.44"/>
<stop offset="0.92" stop-color="#E1F979" stop-opacity="0.14"/>
<stop offset="1" stop-color="#DEFF7F" stop-opacity="0.05"/>
</linearGradient>
<linearGradient id="paint3_linear_16_306" x1="32.4402" y1="16.2383" x2="20.5613" y2="16.2383" gradientUnits="userSpaceOnUse">
<stop stop-color="#FEC544"/>
<stop offset="0.09" stop-color="#FDC746" stop-opacity="0.96"/>
<stop offset="0.24" stop-color="#F9CE4D" stop-opacity="0.86"/>
<stop offset="0.43" stop-color="#F3D858" stop-opacity="0.68"/>
<stop offset="0.66" stop-color="#EBE766" stop-opacity="0.44"/>
<stop offset="0.92" stop-color="#E1F979" stop-opacity="0.14"/>
<stop offset="1" stop-color="#DEFF7F" stop-opacity="0.05"/>
</linearGradient>
<linearGradient id="paint4_linear_16_306" x1="55.2557" y1="24.8941" x2="140.977" y2="26.1025" gradientUnits="userSpaceOnUse">
<stop offset="0.788462" stop-color="#F7C144"/>
<stop offset="1" stop-color="#686B3D"/>
</linearGradient>
<clipPath id="clip0_16_306">
<rect width="43" height="32" fill="white" transform="translate(4 2)"/>
</clipPath>
</defs>
</svg>
