<svg width="24" height="24" viewBox="0 0 24 24" fill="none" xmlns="http://www.w3.org/2000/svg">
<path d="M17.5453 2.82469L17.4469 2.72672C16.7279 2.00767 15.8744 1.43729 14.935 1.04814C13.9955 0.658995 12.9887 0.458702 11.9719 0.458702C10.955 0.458702 9.94818 0.658995 9.00878 1.04814C8.06937 1.43729 7.21582 2.00767 6.49687 2.72672L6.44999 2.77359C3.73124 5.49234 3.44999 9.77063 5.7178 12.8752C8.07046 16.0978 10.0397 19.5342 11.5303 23.2369C11.5663 23.3259 11.6279 23.4022 11.7074 23.456C11.7869 23.5098 11.8806 23.5388 11.9766 23.5391C12.0726 23.5395 12.1666 23.5112 12.2464 23.458C12.3263 23.4047 12.3885 23.3289 12.4251 23.2402C13.9078 19.6402 15.9023 16.1972 18.3094 12.8808C20.5547 9.78844 20.25 5.53125 17.5453 2.82469Z" fill="#589213"/>
<path d="M16.4658 2.36437L16.3866 2.28516C15.8076 1.70596 15.1202 1.24651 14.3637 0.933036C13.6071 0.619565 12.7962 0.458221 11.9773 0.458221C11.1583 0.458221 10.3474 0.619565 9.59087 0.933036C8.83431 1.24651 8.14692 1.70596 7.56797 2.28516L7.53 2.32312C5.34375 4.51359 5.11547 7.95891 6.94079 10.4592C8.83501 13.0547 10.4208 15.8217 11.6213 18.803C11.6502 18.8747 11.6998 18.9361 11.7638 18.9795C11.8278 19.0228 11.9032 19.0462 11.9805 19.0465C12.0578 19.0468 12.1335 19.024 12.1978 18.9812C12.2621 18.9383 12.3122 18.8772 12.3417 18.8058C13.5356 15.9066 15.1416 13.1339 17.0803 10.462C18.8906 7.9725 18.6431 4.54172 16.4658 2.36437Z" fill="#00A14B"/>
<path d="M5.25891 12.1678C5.58547 12.6275 5.90282 13.0928 6.21094 13.5637C6.04922 13.3322 5.88282 13.1034 5.71922 12.8752C5.55183 12.6488 5.39812 12.4126 5.25891 12.1678Z" fill="#589213"/>
<path d="M11.9775 23.7919H11.9742C11.8283 23.7915 11.6859 23.7476 11.5652 23.6656C11.4445 23.5837 11.351 23.4675 11.2969 23.332C9.87516 19.8009 7.93031 16.3331 5.51484 13.0247C4.38233 11.4762 3.83315 9.57752 3.96422 7.6636C4.09838 5.75213 4.91798 3.95332 6.27234 2.59781L6.31922 2.55094C7.05962 1.80588 7.94047 1.2151 8.91075 0.812793C9.88104 0.410485 10.9215 0.204645 11.9719 0.20719C13.0222 0.204363 14.0627 0.40989 15.033 0.811874C16.0034 1.21386 16.8844 1.80431 17.625 2.54906L17.723 2.6475C19.0716 3.99678 19.8914 5.7851 20.0334 7.6875C20.1736 9.59266 19.6344 11.4859 18.5114 13.0313C16.0425 16.4316 14.0723 19.8994 12.6562 23.3372C12.6012 23.4719 12.5072 23.5872 12.3863 23.6682C12.2654 23.7492 12.123 23.7922 11.9775 23.7919ZM11.9723 0.710158C10.9878 0.707528 10.0126 0.900281 9.10313 1.27725C8.19365 1.65422 7.36802 2.20791 6.67406 2.90625L6.62719 2.95313C4.00031 5.57813 3.70312 9.69141 5.92031 12.7289C8.35781 16.0706 10.3266 19.575 11.7623 23.1445C11.7789 23.1877 11.8083 23.2248 11.8466 23.2508C11.8849 23.2768 11.9303 23.2904 11.9766 23.2898C12.0228 23.2906 12.0682 23.2772 12.1066 23.2515C12.1451 23.2258 12.1747 23.189 12.1917 23.1459C13.6228 19.6716 15.6136 16.1691 18.105 12.7355C20.2969 9.71532 19.9875 5.62219 17.3677 3.00235L17.2697 2.90625C16.5758 2.20813 15.7503 1.65457 14.841 1.27761C13.9317 0.900654 12.9567 0.707782 11.9723 0.710158Z" fill="#578E15"/>
<path d="M12.6094 5.11359C11.9642 5.11359 11.3335 5.30491 10.7971 5.66335C10.2607 6.02178 9.84256 6.53124 9.59566 7.1273C9.34876 7.72336 9.28417 8.37924 9.41003 9.01202C9.5359 9.64479 9.84658 10.226 10.3028 10.6822C10.759 11.1384 11.3402 11.4491 11.973 11.575C12.6058 11.7008 13.2617 11.6362 13.8577 11.3893C14.4538 11.1425 14.9632 10.7244 15.3217 10.1879C15.6801 9.65147 15.8714 9.02079 15.8714 8.37563C15.8704 7.51079 15.5264 6.68165 14.9149 6.07012C14.3034 5.45858 13.4742 5.11459 12.6094 5.11359Z" fill="#589213"/>
<path d="M12 10.7119C13.6263 10.7119 14.9447 9.3935 14.9447 7.76719C14.9447 6.14088 13.6263 4.8225 12 4.8225C10.3737 4.8225 9.0553 6.14088 9.0553 7.76719C9.0553 9.3935 10.3737 10.7119 12 10.7119Z" fill="#F0F5F9"/>
<path d="M12 10.9627C11.3679 10.9627 10.75 10.7752 10.2244 10.424C9.69882 10.0728 9.28919 9.57365 9.04731 8.98964C8.80543 8.40563 8.74217 7.76301 8.86552 7.14305C8.98888 6.52308 9.29331 5.95362 9.74031 5.50668C10.1873 5.05974 10.7568 4.75539 11.3768 4.63213C11.9968 4.50887 12.6394 4.57223 13.2234 4.81419C13.8073 5.05616 14.3065 5.46586 14.6576 5.99149C15.0087 6.51712 15.196 7.13507 15.196 7.76719C15.195 8.61445 14.8579 9.42673 14.2588 10.0258C13.6596 10.6249 12.8473 10.9618 12 10.9627ZM12 5.07328C11.4672 5.07328 10.9464 5.23127 10.5034 5.52728C10.0604 5.82329 9.71507 6.24403 9.51117 6.73627C9.30728 7.22852 9.25393 7.77017 9.35787 8.29274C9.46182 8.81531 9.71839 9.29532 10.0951 9.67207C10.4719 10.0488 10.9519 10.3054 11.4745 10.4093C11.997 10.5133 12.5387 10.4599 13.0309 10.256C13.5232 10.0521 13.9439 9.70685 14.2399 9.26384C14.5359 8.82083 14.6939 8.29999 14.6939 7.76719C14.6932 7.05295 14.4091 6.36817 13.9041 5.86313C13.399 5.35808 12.7143 5.07402 12 5.07328Z" fill="#578E15"/>
<path d="M8.3475 3.22312C7.58485 3.83672 7.43391 4.6964 7.69125 4.80328C7.95094 4.9214 8.42766 4.45875 8.98875 4.02C9.53766 3.56578 10.0669 3.20297 10.0003 2.92406C9.9511 2.64937 9.11016 2.60906 8.3475 3.22312ZM10.9331 2.58468C10.6022 2.5964 10.3603 2.73328 10.3819 2.83359C10.4034 2.9339 10.6523 2.96859 10.9467 2.95875C11.2411 2.9489 11.4961 2.8964 11.5092 2.79375C11.5223 2.69109 11.2645 2.57203 10.9331 2.58468Z" fill="#F0F5F9"/>
</svg>
