<svg width="40" height="41" viewBox="0 0 40 41" fill="none" xmlns="http://www.w3.org/2000/svg">
<path d="M20 2.3151C29.8833 2.3151 37.9167 10.3484 37.9167 20.2318C37.9167 30.1151 29.8833 38.1484 20 38.1484C10.1167 38.1484 2.08332 30.1151 2.08332 20.2318C2.08331 10.3484 10.1166 2.3151 20 2.3151ZM20 35.6484C28.5 35.6484 35.4167 28.7318 35.4167 20.2318C35.4167 11.7318 28.5 4.8151 20 4.8151C11.5 4.8151 4.58331 11.7318 4.58332 20.2318C4.58332 28.7318 11.5 35.6484 20 35.6484Z" fill="#00A14B"/>
<path d="M20 15.2152C20.3167 15.2152 20.6333 15.3319 20.8833 15.5819L26.7667 21.4652C27.25 21.9485 27.25 22.7485 26.7667 23.2319C26.2833 23.7152 25.4833 23.7152 25 23.2319L20 18.2319L15 23.2319C14.5167 23.7152 13.7167 23.7152 13.2333 23.2319C12.75 22.7485 12.75 21.9485 13.2333 21.4652L19.1167 15.5819C19.3667 15.3319 19.6833 15.2152 20 15.2152Z" fill="#00A14B"/>
</svg>
