<svg width="113" height="63" viewBox="0 0 113 63" fill="none" xmlns="http://www.w3.org/2000/svg">
<g clip-path="url(#clip0_1449_12)">
<path fill-rule="evenodd" clip-rule="evenodd" d="M248.841 -292C248.841 -300.837 241.677 -308 232.841 -308H-137C-145.837 -308 -153 -300.837 -153 -292V47C-153 55.8366 -145.837 63 -137 63H15.4193C20.0206 63 23.3101 58.4722 23.3101 53.8708V53.8708C23.3101 36.4158 37.8608 22.2656 55.8101 22.2656C73.7593 22.2656 88.3101 36.4158 88.3101 53.8708V53.8708C88.3101 58.4722 91.5995 63 96.2009 63H232.841C241.677 63 248.841 55.8365 248.841 47V-292Z" fill="white"/>
</g>
<defs>
<clipPath id="clip0_1449_12">
<rect width="113" height="63" fill="white"/>
</clipPath>
</defs>
</svg>
