<svg width="19" height="19" viewBox="0 0 19 19" fill="none" xmlns="http://www.w3.org/2000/svg">
<path d="M11.875 18.0104H7.12501C2.82626 18.0104 0.989594 16.1738 0.989594 11.875V7.12501C0.989594 2.82626 2.82626 0.989594 7.12501 0.989594H11.875C16.1738 0.989594 18.0104 2.82626 18.0104 7.12501V11.875C18.0104 16.1738 16.1738 18.0104 11.875 18.0104ZM7.12501 2.17709C3.47543 2.17709 2.17709 3.47543 2.17709 7.12501V11.875C2.17709 15.5246 3.47543 16.8229 7.12501 16.8229H11.875C15.5246 16.8229 16.8229 15.5246 16.8229 11.875V7.12501C16.8229 3.47543 15.5246 2.17709 11.875 2.17709H7.12501Z" fill="#00A14B"/>
<path d="M9.50009 15.0021C9.31009 15.0021 9.12009 14.9546 8.96176 14.8675C8.04343 14.3687 6.42051 13.8304 5.39926 13.6958L5.24884 13.672C4.47301 13.577 3.8555 12.8804 3.8555 12.0808V5.98497C3.8555 5.53372 4.04552 5.0983 4.3701 4.79747C4.7026 4.49663 5.13008 4.34622 5.58925 4.38581C6.74508 4.48081 8.42343 5.03498 9.41301 5.65248L9.49216 5.69998L9.52386 5.67623C10.5214 5.05081 12.1997 4.48872 13.3634 4.38581C13.3793 4.38581 13.4267 4.38581 13.4426 4.38581C13.8542 4.34622 14.2976 4.50455 14.6221 4.79747C14.9546 5.0983 15.1367 5.51788 15.1367 5.97704V12.065C15.1367 12.8566 14.5192 13.5533 13.7355 13.6562L13.5693 13.68C12.5559 13.8146 10.9251 14.3529 10.0226 14.8516C9.87215 14.9625 9.69009 15.0021 9.50009 15.0021ZM5.45468 5.58121C5.34385 5.58121 5.24882 5.6208 5.17757 5.68413C5.09049 5.7633 5.05092 5.87414 5.05092 5.99289V12.0887C5.05092 12.2787 5.2251 12.4766 5.40718 12.5004L5.5576 12.5241C6.71344 12.6825 8.48677 13.2604 9.51594 13.8225C10.4739 13.2683 12.2551 12.6746 13.4188 12.5241L13.593 12.5004C13.7751 12.4766 13.9492 12.2787 13.9492 12.0887V6.00079C13.9492 5.87412 13.9018 5.77122 13.8226 5.69205C13.7355 5.61289 13.6247 5.58122 13.498 5.58913C13.4822 5.58913 13.4347 5.58913 13.4188 5.58913C12.5005 5.6683 10.9884 6.17496 10.1651 6.69746L10.0859 6.74496C9.73758 6.95871 9.24676 6.95872 8.91426 6.75288L8.79549 6.68164C7.96424 6.15914 6.45217 5.66038 5.49426 5.58121C5.47842 5.58121 5.47051 5.58121 5.45468 5.58121Z" fill="#00A14B"/>
<path d="M9.5 14.5746C9.17542 14.5746 8.90625 14.3054 8.90625 13.9808V6.41248C8.90625 6.08789 9.17542 5.81873 9.5 5.81873C9.82458 5.81873 10.0938 6.08789 10.0938 6.41248V13.9808C10.0938 14.3133 9.82458 14.5746 9.5 14.5746Z" fill="#00A14B"/>
</svg>
