<svg width="25" height="25" viewBox="0 0 25 25" fill="none" xmlns="http://www.w3.org/2000/svg">
<path d="M22.0853 22.8602H2.08527C1.67527 22.8602 1.33527 22.5202 1.33527 22.1102C1.33527 21.7002 1.67527 21.3602 2.08527 21.3602H22.0853C22.4953 21.3602 22.8353 21.7002 22.8353 22.1102C22.8353 22.5202 22.4953 22.8602 22.0853 22.8602Z" fill="#00A14B"/>
<path d="M20.9753 22.8602C20.5653 22.8602 20.2253 22.5202 20.2253 22.1102V13.1102C20.2253 11.8702 19.0653 10.8602 17.6453 10.8602H6.52525C5.10525 10.8602 3.94525 11.8702 3.94525 13.1102V22.1102C3.94525 22.5202 3.60525 22.8602 3.19525 22.8602C2.78525 22.8602 2.44525 22.5202 2.44525 22.1102V13.1102C2.44525 11.0402 4.27525 9.36024 6.52525 9.36024H17.6353C19.8853 9.36024 21.7153 11.0402 21.7153 13.1102V22.1102C21.7253 22.5202 21.3853 22.8602 20.9753 22.8602Z" fill="#00A14B"/>
<path d="M18.5253 10.8602C18.1153 10.8602 17.7753 10.5202 17.7753 10.1102V7.28024C17.7753 6.50024 17.0253 5.86024 16.1153 5.86024H8.06526C7.14526 5.86024 6.40526 6.50024 6.40526 7.28024V10.1102C6.40526 10.5202 6.06526 10.8602 5.65526 10.8602C5.24526 10.8602 4.89526 10.5202 4.89526 10.1102V7.28024C4.89526 5.67024 6.31526 4.36024 8.05526 4.36024H16.1053C17.8453 4.36024 19.2653 5.67024 19.2653 7.28024V10.1102C19.2753 10.5202 18.9353 10.8602 18.5253 10.8602Z" fill="#00A14B"/>
<path d="M17.4153 17.8602C16.2553 17.8602 15.3153 16.9202 15.3153 15.7602V15.4502C15.3153 15.1202 15.0453 14.8502 14.7153 14.8502C14.3853 14.8502 14.1153 15.1202 14.1153 15.4502V15.7602C14.1153 16.9202 13.1753 17.8602 12.0153 17.8602C10.8553 17.8602 9.91528 16.9202 9.91528 15.7602V15.4502C9.91528 15.1202 9.64528 14.8502 9.31528 14.8502C8.98528 14.8502 8.71528 15.1202 8.71528 15.4502V15.7602C8.71528 16.9202 7.77528 17.8602 6.61528 17.8602C5.45528 17.8602 4.51528 16.9202 4.51528 15.7602V15.4302C4.51528 15.1102 4.25528 14.8402 3.92528 14.8302H3.55528C3.14528 14.8202 2.80528 14.4802 2.81528 14.0702C2.82528 13.6602 3.15528 13.3302 3.56528 13.3302H3.57528H3.94528C5.08528 13.3502 6.01528 14.2902 6.01528 15.4302V15.7602C6.01528 16.0902 6.28528 16.3602 6.61528 16.3602C6.94528 16.3602 7.21528 16.0902 7.21528 15.7602V15.4502C7.21528 14.2902 8.15528 13.3502 9.31528 13.3502C10.4753 13.3502 11.4153 14.2902 11.4153 15.4502V15.7602C11.4153 16.0902 11.6853 16.3602 12.0153 16.3602C12.3453 16.3602 12.6153 16.0902 12.6153 15.7602V15.4502C12.6153 14.2902 13.5553 13.3502 14.7153 13.3502C15.8753 13.3502 16.8153 14.2902 16.8153 15.4502V15.7602C16.8153 16.0902 17.0853 16.3602 17.4153 16.3602C17.7453 16.3602 18.0153 16.0902 18.0153 15.7602V15.4502C18.0153 14.2902 18.9553 13.3502 20.1153 13.3502H20.5653C20.9753 13.3502 21.3153 13.6902 21.3153 14.1002C21.3153 14.5102 20.9753 14.8502 20.5653 14.8502H20.1153C19.7853 14.8502 19.5153 15.1202 19.5153 15.4502V15.7602C19.5153 16.9202 18.5753 17.8602 17.4153 17.8602Z" fill="#00A14B"/>
<path d="M8.08527 5.86024C7.67527 5.86024 7.33527 5.52024 7.33527 5.11024V3.11024C7.33527 2.70024 7.67527 2.36024 8.08527 2.36024C8.49527 2.36024 8.83527 2.70024 8.83527 3.11024V5.11024C8.83527 5.52024 8.49527 5.86024 8.08527 5.86024Z" fill="#00A14B"/>
<path d="M16.0853 5.86024C15.6753 5.86024 15.3353 5.52024 15.3353 5.11024V3.11024C15.3353 2.70024 15.6753 2.36024 16.0853 2.36024C16.4953 2.36024 16.8353 2.70024 16.8353 3.11024V5.11024C16.8353 5.52024 16.4953 5.86024 16.0853 5.86024Z" fill="#00A14B"/>
<path d="M12.0853 5.86024C11.6753 5.86024 11.3353 5.52024 11.3353 5.11024V2.11024C11.3353 1.70024 11.6753 1.36024 12.0853 1.36024C12.4953 1.36024 12.8353 1.70024 12.8353 2.11024V5.11024C12.8353 5.52024 12.4953 5.86024 12.0853 5.86024Z" fill="#00A14B"/>
</svg>
