<svg width="25" height="24" viewBox="0 0 25 24" fill="none" xmlns="http://www.w3.org/2000/svg">
<path d="M8.27051 5.75C7.86051 5.75 7.52051 5.41 7.52051 5V2C7.52051 1.59 7.86051 1.25 8.27051 1.25C8.68051 1.25 9.02051 1.59 9.02051 2V5C9.02051 5.41 8.68051 5.75 8.27051 5.75Z" fill="#00A14B"/>
<path d="M16.2705 5.75C15.8605 5.75 15.5205 5.41 15.5205 5V2C15.5205 1.59 15.8605 1.25 16.2705 1.25C16.6805 1.25 17.0205 1.59 17.0205 2V5C17.0205 5.41 16.6805 5.75 16.2705 5.75Z" fill="#00A14B"/>
<path d="M8.77051 14.5001C8.64051 14.5001 8.51051 14.4701 8.39051 14.4201C8.26051 14.3701 8.16051 14.3001 8.06051 14.2101C7.88051 14.0201 7.77051 13.7701 7.77051 13.5001C7.77051 13.3701 7.80051 13.2401 7.85051 13.1201C7.90051 13.0001 7.97051 12.8901 8.06051 12.7901C8.16051 12.7001 8.26051 12.6301 8.39051 12.5801C8.75051 12.4301 9.20051 12.5101 9.48051 12.7901C9.66051 12.9801 9.77051 13.2401 9.77051 13.5001C9.77051 13.5601 9.76051 13.6301 9.75051 13.7001C9.74051 13.7601 9.72051 13.8201 9.69051 13.8801C9.67051 13.9401 9.64051 14.0001 9.60051 14.0601C9.57051 14.1101 9.52051 14.1601 9.48051 14.2101C9.29051 14.3901 9.03051 14.5001 8.77051 14.5001Z" fill="#00A14B"/>
<path d="M12.2705 14.5C12.1405 14.5 12.0105 14.47 11.8905 14.42C11.7605 14.37 11.6605 14.3 11.5605 14.21C11.3805 14.02 11.2705 13.77 11.2705 13.5C11.2705 13.37 11.3005 13.24 11.3505 13.12C11.4005 13 11.4705 12.89 11.5605 12.79C11.6605 12.7 11.7605 12.63 11.8905 12.58C12.2505 12.42 12.7005 12.51 12.9805 12.79C13.1605 12.98 13.2705 13.24 13.2705 13.5C13.2705 13.56 13.2605 13.63 13.2505 13.7C13.2405 13.76 13.2205 13.82 13.1905 13.88C13.1705 13.94 13.1405 14 13.1005 14.06C13.0705 14.11 13.0205 14.16 12.9805 14.21C12.7905 14.39 12.5305 14.5 12.2705 14.5Z" fill="#00A14B"/>
<path d="M15.7705 14.5C15.6405 14.5 15.5105 14.47 15.3905 14.42C15.2605 14.37 15.1605 14.3 15.0605 14.21C15.0205 14.16 14.9805 14.11 14.9405 14.06C14.9005 14 14.8705 13.94 14.8505 13.88C14.8205 13.82 14.8005 13.76 14.7905 13.7C14.7805 13.63 14.7705 13.56 14.7705 13.5C14.7705 13.24 14.8805 12.98 15.0605 12.79C15.1605 12.7 15.2605 12.63 15.3905 12.58C15.7605 12.42 16.2005 12.51 16.4805 12.79C16.6605 12.98 16.7705 13.24 16.7705 13.5C16.7705 13.56 16.7605 13.63 16.7505 13.7C16.7405 13.76 16.7205 13.82 16.6905 13.88C16.6705 13.94 16.6405 14 16.6005 14.06C16.5705 14.11 16.5205 14.16 16.4805 14.21C16.2905 14.39 16.0305 14.5 15.7705 14.5Z" fill="#00A14B"/>
<path d="M8.77051 17.9999C8.64051 17.9999 8.51051 17.97 8.39051 17.92C8.27051 17.87 8.16051 17.7999 8.06051 17.7099C7.88051 17.5199 7.77051 17.2599 7.77051 16.9999C7.77051 16.8699 7.80051 16.7399 7.85051 16.6199C7.90051 16.4899 7.97051 16.38 8.06051 16.29C8.43051 15.92 9.11051 15.92 9.48051 16.29C9.66051 16.48 9.77051 16.7399 9.77051 16.9999C9.77051 17.2599 9.66051 17.5199 9.48051 17.7099C9.29051 17.8899 9.03051 17.9999 8.77051 17.9999Z" fill="#00A14B"/>
<path d="M12.2705 17.9999C12.0105 17.9999 11.7505 17.8899 11.5605 17.7099C11.3805 17.5199 11.2705 17.2599 11.2705 16.9999C11.2705 16.8699 11.3005 16.7399 11.3505 16.6199C11.4005 16.4899 11.4705 16.38 11.5605 16.29C11.9305 15.92 12.6105 15.92 12.9805 16.29C13.0705 16.38 13.1405 16.4899 13.1905 16.6199C13.2405 16.7399 13.2705 16.8699 13.2705 16.9999C13.2705 17.2599 13.1605 17.5199 12.9805 17.7099C12.7905 17.8899 12.5305 17.9999 12.2705 17.9999Z" fill="#00A14B"/>
<path d="M15.7705 18C15.5105 18 15.2505 17.89 15.0605 17.71C14.9705 17.62 14.9005 17.51 14.8505 17.38C14.8005 17.26 14.7705 17.13 14.7705 17C14.7705 16.87 14.8005 16.74 14.8505 16.62C14.9005 16.49 14.9705 16.38 15.0605 16.29C15.2905 16.06 15.6405 15.95 15.9605 16.02C16.0305 16.03 16.0905 16.05 16.1505 16.08C16.2105 16.1 16.2705 16.13 16.3305 16.17C16.3805 16.2 16.4305 16.25 16.4805 16.29C16.6605 16.48 16.7705 16.74 16.7705 17C16.7705 17.26 16.6605 17.52 16.4805 17.71C16.2905 17.89 16.0305 18 15.7705 18Z" fill="#00A14B"/>
<path d="M20.7705 9.83997H3.77051C3.36051 9.83997 3.02051 9.49997 3.02051 9.08997C3.02051 8.67997 3.36051 8.33997 3.77051 8.33997H20.7705C21.1805 8.33997 21.5205 8.67997 21.5205 9.08997C21.5205 9.49997 21.1805 9.83997 20.7705 9.83997Z" fill="#00A14B"/>
<path d="M16.2705 22.75H8.27051C4.62051 22.75 2.52051 20.65 2.52051 17V8.5C2.52051 4.85 4.62051 2.75 8.27051 2.75H16.2705C19.9205 2.75 22.0205 4.85 22.0205 8.5V17C22.0205 20.65 19.9205 22.75 16.2705 22.75ZM8.27051 4.25C5.41051 4.25 4.02051 5.64 4.02051 8.5V17C4.02051 19.86 5.41051 21.25 8.27051 21.25H16.2705C19.1305 21.25 20.5205 19.86 20.5205 17V8.5C20.5205 5.64 19.1305 4.25 16.2705 4.25H8.27051Z" fill="#00A14B"/>
</svg>
