<svg width="32" height="32" viewBox="0 0 32 32" fill="none" xmlns="http://www.w3.org/2000/svg">
<path d="M25.3334 12L21.8934 12L26.28 7.61334C26.5311 7.36227 26.6722 7.02174 26.6722 6.66667C26.6722 6.3116 26.5311 5.97108 26.28 5.72C26.029 5.46893 25.6884 5.32788 25.3334 5.32788C24.9783 5.32788 24.6378 5.46893 24.3867 5.72L20 10.0933L20 6.66667C20 6.31305 19.8596 5.97391 19.6095 5.72386C19.3595 5.47381 19.0203 5.33334 18.6667 5.33334C18.3131 5.33334 17.9739 5.47381 17.7239 5.72386C17.4738 5.97391 17.3334 6.31305 17.3334 6.66667L17.3334 13.3333C17.3334 13.687 17.4738 14.0261 17.7239 14.2761C17.9739 14.5262 18.3131 14.6667 18.6667 14.6667L25.3334 14.6667C25.687 14.6667 26.0261 14.5262 26.2762 14.2761C26.5262 14.0261 26.6667 13.687 26.6667 13.3333C26.6667 12.9797 26.5262 12.6406 26.2762 12.3905C26.0261 12.1405 25.687 12 25.3334 12Z" fill="#00A14B"/>
<path d="M13.3333 17.3333H6.66663C6.313 17.3333 5.97387 17.4737 5.72382 17.7238C5.47377 17.9738 5.33329 18.313 5.33329 18.6666C5.33329 19.0202 5.47377 19.3593 5.72382 19.6094C5.97387 19.8594 6.313 19.9999 6.66663 19.9999H10.0933L5.71996 24.3866C5.59499 24.5105 5.4958 24.658 5.4281 24.8205C5.36041 24.983 5.32556 25.1572 5.32556 25.3333C5.32556 25.5093 5.36041 25.6835 5.4281 25.846C5.4958 26.0085 5.59499 26.156 5.71996 26.2799C5.84391 26.4049 5.99138 26.5041 6.15386 26.5718C6.31634 26.6395 6.49061 26.6743 6.66663 26.6743C6.84264 26.6743 7.01692 26.6395 7.17939 26.5718C7.34187 26.5041 7.48934 26.4049 7.61329 26.2799L12 21.8933V25.3333C12 25.6869 12.1404 26.026 12.3905 26.2761C12.6405 26.5261 12.9797 26.6666 13.3333 26.6666C13.6869 26.6666 14.0261 26.5261 14.2761 26.2761C14.5261 26.026 14.6666 25.6869 14.6666 25.3333L14.6666 18.6666C14.6666 18.313 14.5261 17.9738 14.2761 17.7238C14.0261 17.4737 13.6869 17.3333 13.3333 17.3333Z" fill="#00A14B"/>
</svg>
