<svg width="33" height="32" viewBox="0 0 33 32" fill="none" xmlns="http://www.w3.org/2000/svg">
<path d="M18.9429 7.9945L22.3829 7.9945L17.9962 12.3812C17.7451 12.6322 17.6041 12.9728 17.6041 13.3278C17.6041 13.6829 17.7451 14.0234 17.9962 14.2745C18.2473 14.5256 18.5878 14.6666 18.9429 14.6666C19.2979 14.6666 19.6385 14.5256 19.8895 14.2745L24.2762 9.90117L24.2762 13.3278C24.2762 13.6815 24.4167 14.0206 24.6667 14.2706C24.9168 14.5207 25.2559 14.6612 25.6095 14.6612C25.9632 14.6612 26.3023 14.5207 26.5523 14.2706C26.8024 14.0206 26.9429 13.6815 26.9429 13.3278L26.9429 6.66117C26.9429 6.30755 26.8024 5.96841 26.5523 5.71836C26.3023 5.46831 25.9632 5.32784 25.6095 5.32784L18.9429 5.32784C18.5892 5.32784 18.2501 5.46831 18.0001 5.71836C17.75 5.96841 17.6095 6.30755 17.6095 6.66117C17.6095 7.01479 17.75 7.35393 18.0001 7.60398C18.2501 7.85403 18.5892 7.9945 18.9429 7.9945Z" fill="white"/>
<path d="M6.92928 26.6743L13.5959 26.6743C13.9496 26.6743 14.2887 26.5338 14.5388 26.2838C14.7888 26.0337 14.9293 25.6946 14.9293 25.341C14.9293 24.9874 14.7888 24.6482 14.5388 24.3982C14.2887 24.1481 13.9496 24.0076 13.5959 24.0076L10.1693 24.0076L14.5426 19.621C14.6676 19.497 14.7668 19.3496 14.8345 19.1871C14.9022 19.0246 14.937 18.8503 14.937 18.6743C14.937 18.4983 14.9022 18.324 14.8345 18.1615C14.7668 17.9991 14.6676 17.8516 14.5426 17.7277C14.4187 17.6027 14.2712 17.5035 14.1087 17.4358C13.9462 17.3681 13.772 17.3333 13.5959 17.3333C13.4199 17.3333 13.2457 17.3681 13.0832 17.4358C12.9207 17.5035 12.7732 17.6027 12.6493 17.7277L8.26261 22.1143L8.26261 18.6743C8.26261 18.3207 8.12214 17.9816 7.87209 17.7315C7.62204 17.4815 7.2829 17.341 6.92928 17.341C6.57566 17.341 6.23652 17.4815 5.98647 17.7315C5.73642 17.9816 5.59595 18.3207 5.59595 18.6743L5.59595 25.341C5.59595 25.6946 5.73642 26.0337 5.98647 26.2838C6.23652 26.5338 6.57566 26.6743 6.92928 26.6743Z" fill="white"/>
</svg>
