<svg width="33" height="32" viewBox="0 0 33 32" fill="none" xmlns="http://www.w3.org/2000/svg">
<path d="M18.9424 7.99481L22.3824 7.99481L17.9957 12.3815C17.7446 12.6325 17.6036 12.9731 17.6036 13.3281C17.6036 13.6832 17.7446 14.0237 17.9957 14.2748C18.2468 14.5259 18.5873 14.6669 18.9424 14.6669C19.2975 14.6669 19.638 14.5259 19.889 14.2748L24.2757 9.90148L24.2757 13.3281C24.2757 13.6818 24.4162 14.0209 24.6662 14.271C24.9163 14.521 25.2554 14.6615 25.609 14.6615C25.9627 14.6615 26.3018 14.521 26.5519 14.271C26.8019 14.0209 26.9424 13.6818 26.9424 13.3281L26.9424 6.66148C26.9424 6.30785 26.8019 5.96872 26.5519 5.71867C26.3018 5.46862 25.9627 5.32814 25.609 5.32814L18.9424 5.32814C18.5888 5.32814 18.2496 5.46862 17.9996 5.71867C17.7495 5.96872 17.609 6.30785 17.609 6.66148C17.609 7.0151 17.7495 7.35424 17.9996 7.60429C18.2496 7.85433 18.5888 7.99481 18.9424 7.99481Z" fill="#00A14B"/>
<path d="M6.92916 26.6746L13.5958 26.6746C13.9494 26.6746 14.2886 26.5341 14.5386 26.2841C14.7887 26.034 14.9292 25.6949 14.9292 25.3413C14.9292 24.9877 14.7887 24.6485 14.5386 24.3985C14.2886 24.1484 13.9494 24.008 13.5958 24.008L10.1692 24.008L14.5425 19.6213C14.6675 19.4973 14.7667 19.3499 14.8343 19.1874C14.902 19.0249 14.9369 18.8506 14.9369 18.6746C14.9369 18.4986 14.902 18.3243 14.8343 18.1619C14.7667 17.9994 14.6675 17.8519 14.5425 17.728C14.4185 17.603 14.2711 17.5038 14.1086 17.4361C13.9461 17.3684 13.7718 17.3336 13.5958 17.3336C13.4198 17.3336 13.2455 17.3684 13.0831 17.4361C12.9206 17.5038 12.7731 17.603 12.6492 17.728L8.26249 22.1146L8.26249 18.6746C8.26249 18.321 8.12202 17.9819 7.87197 17.7318C7.62192 17.4818 7.28278 17.3413 6.92916 17.3413C6.57554 17.3413 6.2364 17.4818 5.98635 17.7318C5.7363 17.9819 5.59583 18.321 5.59583 18.6746L5.59583 25.3413C5.59583 25.6949 5.7363 26.034 5.98635 26.2841C6.2364 26.5341 6.57554 26.6746 6.92916 26.6746Z" fill="#00A14B"/>
</svg>
