<svg width="16" height="16" viewBox="0 0 16 16" fill="none" xmlns="http://www.w3.org/2000/svg">
<g clip-path="url(#clip0_61_7235)">
<path d="M12.3999 1.33159H3.64988C3.08321 1.36492 2.55821 1.51492 2.07488 1.78159C1.59154 2.04826 1.20821 2.42326 0.924878 2.90659C0.641545 3.38992 0.499878 3.91492 0.499878 4.48159V11.9816C0.499878 12.5483 0.641545 13.0733 0.924878 13.5566C1.20821 14.0399 1.59154 14.4149 2.07488 14.6816C2.55821 14.9483 3.06655 15.0983 3.59988 15.1316H12.3999C12.9332 15.0983 13.4415 14.9483 13.9249 14.6816C14.4082 14.4149 14.7915 14.0399 15.0749 13.5566C15.3582 13.0733 15.4999 12.5483 15.4999 11.9816V4.48159C15.4999 3.91492 15.3582 3.38992 15.0749 2.90659C14.7915 2.42326 14.4082 2.04826 13.9249 1.78159C13.4415 1.51492 12.9332 1.36492 12.3999 1.33159ZM3.64988 2.58159H12.3999C12.7665 2.61492 13.1082 2.73159 13.4249 2.93159C13.7415 3.13159 13.9665 3.41492 14.0999 3.78159L9.34988 8.58159C8.98321 8.94826 8.53321 9.13159 7.99988 9.13159C7.46655 9.13159 7.01655 8.94826 6.64988 8.58159L1.89988 3.78159C2.03321 3.41492 2.25821 3.13159 2.57488 2.93159C2.89155 2.73159 3.23321 2.63159 3.59988 2.63159L3.64988 2.58159ZM12.3999 13.8316H3.64988C3.11654 13.8316 2.66654 13.6566 2.29988 13.3066C1.93321 12.9566 1.74988 12.5149 1.74988 11.9816V5.43159L5.79988 9.43159C6.19988 9.83159 6.66655 10.1066 7.19988 10.2566C7.73321 10.4066 8.26655 10.4066 8.79988 10.2566C9.33321 10.1066 9.79988 9.83159 10.1999 9.43159L14.2499 5.43159V11.9816C14.2499 12.5149 14.0665 12.9566 13.6999 13.3066C13.3332 13.6566 12.8832 13.8316 12.3499 13.8316H12.3999Z" fill="white"/>
</g>
<defs>
<clipPath id="clip0_61_7235">
<rect width="15" height="15" fill="white" transform="matrix(1 0 0 -1 0.499908 15.7314)"/>
</clipPath>
</defs>
</svg>
