<svg width="33" height="32" viewBox="0 0 33 32" fill="none" xmlns="http://www.w3.org/2000/svg">
<path d="M15.4435 25.2C15.0035 25.2 14.5635 25.0934 14.1635 24.8667C13.3502 24.4134 12.8568 23.5867 12.8568 22.6534V18.5467C12.8568 18.2934 12.6568 17.8 12.4568 17.5467L9.56352 14.5067C9.01685 13.96 8.60352 13 8.60352 12.2667V10.4934C8.60352 9.01337 9.72352 7.8667 11.1502 7.8667H21.3768C22.7768 7.8667 23.9235 9.01337 23.9235 10.4134V12.12C23.9235 13.0534 23.3902 14.08 22.8568 14.6134L19.4835 17.6C19.2702 17.7867 19.0435 18.2534 19.0435 18.64V21.9734C19.0435 22.8134 18.5368 23.7467 17.8568 24.1467L16.8035 24.8267C16.3902 25.08 15.9235 25.2 15.4435 25.2ZM11.1502 9.8667C10.8302 9.8667 10.6035 10.1334 10.6035 10.4934V12.2667C10.6035 12.44 10.7902 12.8934 11.0035 13.1067L13.9635 16.2267C14.4168 16.8 14.8568 17.72 14.8568 18.5467V22.6534C14.8568 22.92 15.0302 23.0667 15.1368 23.12C15.2835 23.2 15.5235 23.2534 15.7368 23.12L16.8035 22.4267C16.9102 22.3467 17.0435 22.08 17.0435 21.9467V18.6134C17.0435 17.6667 17.5102 16.6134 18.1768 16.0667L21.4835 13.1334C21.6568 12.96 21.9235 12.4267 21.9235 12.0934V10.4134C21.9235 10.12 21.6702 9.8667 21.3768 9.8667H11.1502Z" fill="#00A14B"/>
<path d="M20.2708 30.3333H12.2708C5.03083 30.3333 1.9375 27.24 1.9375 20V12C1.9375 4.75996 5.03083 1.66663 12.2708 1.66663H20.2708C27.5108 1.66663 30.6042 4.75996 30.6042 12V20C30.6042 27.24 27.5108 30.3333 20.2708 30.3333ZM12.2708 3.66663C6.12417 3.66663 3.9375 5.85329 3.9375 12V20C3.9375 26.1466 6.12417 28.3333 12.2708 28.3333H20.2708C26.4175 28.3333 28.6042 26.1466 28.6042 20V12C28.6042 5.85329 26.4175 3.66663 20.2708 3.66663H12.2708Z" fill="#00A14B"/>
</svg>
