<svg width="87" height="83" viewBox="0 0 87 83" fill="none" xmlns="http://www.w3.org/2000/svg">
<path d="M74.7588 37.8483C74.9743 37.6606 75.2389 37.4707 75.4544 37.236C76.4763 36.1138 77.5879 35.1026 79.0045 34.5244C80.6323 33.8609 82.3007 33.8715 83.9265 34.4945C85.4839 35.0919 86.269 36.3485 86.4141 37.9998C86.6082 40.1866 85.646 41.8166 83.9499 43.0775C82.7722 43.9522 81.4324 44.4387 80.0456 44.8291C78.5074 45.2622 76.9371 45.4478 75.3477 45.5076C74.9978 45.5204 74.6479 45.5481 74.298 45.5545C74.1508 45.5566 74.1039 45.61 74.0591 45.7508C73.8927 46.2863 73.7135 46.8154 73.5193 47.3424C73.4638 47.4917 73.3593 47.6304 73.2548 47.752C73.0115 48.04 72.7192 48.0357 72.5507 47.7008C72.395 47.3914 72.2861 47.0415 72.2349 46.698C72.1709 46.2735 72.188 45.8361 72.1731 45.403C72.1688 45.2942 72.1731 45.1833 72.1731 45.0041C71.3325 45.8447 70.4172 46.2927 69.2737 46.0793C68.1579 45.8703 67.4111 45.1619 66.8202 44.2061C66.1545 45.3454 65.2563 46.1284 63.8973 46.1241C62.5553 46.1199 61.6486 45.3475 60.9488 44.236C60.8315 44.4195 60.7333 44.5859 60.6224 44.7438C60.1295 45.45 59.4746 45.9364 58.6425 46.1199C57.6846 46.3311 56.8184 46.0644 56.0567 45.4521C55.4231 44.9443 55.0113 44.2723 54.7169 43.5213C54.6892 43.4487 54.6614 43.3762 54.6209 43.2653C52.8885 44.6414 50.8894 45.3241 48.7602 45.6761C49.4493 47.4 48.3698 50.0092 46.6651 51.2744C44.4527 52.915 42.0568 53.1241 39.5436 52.2494C37.169 51.4237 35.4494 49.8108 34.4957 47.4426C33.7981 45.706 33.7469 43.8882 34.2034 42.0833C34.9822 39.0047 36.9812 37.155 39.9916 36.4146C41.2503 36.1053 42.5304 36.052 43.7892 36.4466C44.0943 36.5427 44.3972 36.6856 44.6596 36.8691C45.1631 37.2254 45.1247 37.6905 44.5508 37.8932C44.0089 38.083 43.4308 38.1812 42.8611 38.2793C41.9587 38.4351 41.0434 38.5524 40.2156 38.9642C38.4021 39.8666 37.1775 41.2598 36.8511 43.3463C36.4223 46.0857 38.1675 48.6353 40.8492 49.207C42.0696 49.4673 43.275 49.4673 44.4506 48.9915C45.1504 48.7078 45.7243 48.2704 46.0934 47.577C46.4774 46.8559 46.4518 46.1775 45.9717 45.5097C45.5664 44.9465 45.001 44.5923 44.4292 44.2467C43.8148 43.8733 43.1769 43.5384 42.5646 43.1607C42.3277 43.0156 42.1101 42.8194 41.9245 42.6103C41.4616 42.0812 41.4872 41.4582 42.0525 41.0528C42.507 40.7286 43.0339 40.5067 43.5396 40.2613C44.442 39.8218 45.1717 40.0864 45.8224 40.8118C46.2278 41.2641 46.6609 41.71 47.1516 42.0556C48.6087 43.0797 50.7763 42.9666 52.1098 41.8508C52.4149 41.5947 52.4191 41.5414 52.1759 41.2235C51.3225 40.1098 50.147 39.8432 48.8434 39.9221C48.1799 39.9626 47.5185 40.0138 46.855 40.0544C46.1168 40.0992 45.1909 39.0943 45.5344 38.162C45.8971 37.1827 46.5264 36.4082 47.2881 35.7383C48.6941 34.503 50.3262 33.735 52.1567 33.4214C52.9717 33.2827 53.791 33.3083 54.5932 33.528C56.0311 33.9249 56.8568 34.9319 57.2664 36.34C57.5651 37.3683 57.4456 38.4009 57.2814 39.4314C57.1704 40.1226 57.0125 40.8054 57.0595 41.5158C57.1043 42.2092 57.4499 42.6871 58.0473 42.749C59.2164 42.8706 60.121 42.3863 60.2896 41.0742C60.3664 40.4853 60.3216 39.8816 60.3472 39.2863C60.3706 38.7252 60.3962 38.1641 60.4581 37.6073C60.4816 37.4024 60.5882 37.1934 60.7013 37.0163C61.0917 36.4125 61.7723 36.4125 62.1777 37.0056C62.4486 37.4003 62.5383 37.8633 62.5937 38.3284C62.6876 39.1263 62.7495 39.9285 62.8562 40.7264C62.8924 40.9952 62.9948 41.2619 63.11 41.5115C63.4834 42.318 64.2237 42.7276 65.0814 42.5591C65.5145 42.4737 65.8196 42.1324 65.9689 41.727C66.1118 41.3366 66.2036 40.912 66.2292 40.496C66.2697 39.7877 66.2206 39.0751 66.2505 38.3668C66.2654 37.9913 66.338 37.6115 66.4425 37.251C66.5385 36.9224 66.7434 36.628 67.1124 36.5725C67.5903 36.5 67.936 36.7347 68.1536 37.1592C68.4288 37.6926 68.48 38.2793 68.5398 38.866C68.6123 39.5786 68.6613 40.2997 68.8107 40.9995C68.9664 41.7356 69.3697 42.3287 70.1505 42.5207C70.974 42.7212 71.4306 42.5569 71.8594 41.71C72.0067 41.4177 72.0664 41.0464 72.06 40.7115C72.0045 37.3512 71.9277 33.9931 71.853 30.6329C71.8381 29.9929 71.8979 29.3635 72.188 28.7874C72.3139 28.5399 72.4931 28.301 72.7001 28.1218C73.2889 27.614 74.0015 27.7207 74.458 28.3565C74.7141 28.7106 74.8357 29.1203 74.8399 29.5491C74.8549 31.0383 74.8591 32.5274 74.8442 34.0166C74.8314 35.2818 74.7887 36.5448 74.7588 37.8078C74.7588 37.8483 74.7631 37.8868 74.761 37.8569M74.7695 42.1729C76.3355 42.2113 77.7927 42.2007 79.2371 41.9596C80.4169 41.7633 81.5306 41.3793 82.544 40.7222C82.9707 40.4448 83.3525 40.1141 83.6043 39.6554C84.095 38.7636 83.8582 37.9273 82.9813 37.4345C82.1172 36.9502 81.2062 36.852 80.2632 37.123C78.2855 37.6883 76.807 38.9471 75.6485 40.6197C75.3242 41.0891 75.0831 41.6139 74.7695 42.1729ZM54.7468 39.0388C54.8022 38.6548 54.8598 38.3134 54.8982 37.9721C54.9196 37.7843 54.9132 37.5902 54.9046 37.4003C54.8684 36.5896 54.3819 36.1373 53.5925 36.1992C53.264 36.2248 52.9333 36.2845 52.6133 36.3677C52.0778 36.5064 51.5487 36.6771 51.0174 36.8328C51.011 36.8648 51.0046 36.8989 50.9961 36.931C52.2293 37.6243 53.4624 38.3177 54.7446 39.0388" fill="#BADE8F" fill-opacity="0.58"/>
<path d="M14.8804 45.0891C14.9359 45.4283 15.0341 45.7505 15.0362 46.0705C15.0447 47.741 14.4047 49.1406 13.195 50.2521C11.4605 51.8459 9.4038 52.3878 7.11457 52.0059C4.37518 51.5472 2.29502 50.0836 0.946659 47.628C-0.0667468 45.7846 -0.188354 43.7856 0.214875 41.7502C0.603169 39.7938 1.57604 38.1766 3.21242 37.0544C5.12615 35.7423 7.24685 35.2708 9.53181 35.7338C9.91584 35.8106 10.2764 36.0175 10.6455 36.1733C10.7287 36.2096 10.7991 36.2821 10.8652 36.3482C11.1853 36.6725 11.1618 37.0139 10.7543 37.2038C10.4023 37.368 10.0182 37.4704 9.63635 37.5536C8.75309 37.7435 7.84422 37.8395 6.97802 38.087C4.89788 38.6844 2.68118 40.8285 2.8796 43.8688C3.03321 46.2092 4.65465 48.0995 6.93322 48.5816C8.14504 48.8377 9.34192 48.8398 10.5089 48.3726C11.2813 48.0632 11.8936 47.5704 12.2499 46.781C12.5464 46.1281 12.4803 45.5265 12.0856 44.9398C11.6824 44.3403 11.0914 43.9733 10.4983 43.6149C9.88383 43.2415 9.24592 42.9087 8.63575 42.5289C8.38613 42.3732 8.15571 42.162 7.96369 41.9358C7.54766 41.4409 7.60527 40.8776 8.0853 40.4424C8.51413 40.0541 9.05391 39.8749 9.56808 39.6381C10.5068 39.2092 11.2578 39.4439 11.917 40.2056C12.2584 40.6003 12.6275 40.9822 13.0371 41.3C13.8543 41.9358 14.8271 42.1129 15.832 42.1705C17.2721 42.2537 18.5458 41.7886 19.7469 41.0184C20.1587 40.7539 20.6302 40.5704 21.0974 40.4189C21.5369 40.276 21.9188 40.4573 22.194 40.8392C22.2751 40.9502 22.3562 41.0632 22.4223 41.1827C22.8554 41.9572 22.704 42.6015 21.9594 43.073C20.3571 44.0842 18.6439 44.8118 16.7643 45.0635C16.2288 45.1361 15.6762 45.0913 15.1301 45.0977C15.0469 45.0977 14.9637 45.0891 14.8847 45.0849" fill="#BADE8F" fill-opacity="0.58"/>
<path d="M26.2604 36.2907C26.2604 38.0487 26.254 39.8067 26.2647 41.5647C26.2668 41.9338 26.2967 42.3114 26.3671 42.6741C26.5612 43.6662 27.1586 44.1825 28.1528 44.2529C29.2174 44.3297 30.0004 43.8411 30.4164 42.8363C30.8005 41.9082 30.8197 40.9609 30.6085 39.9859C30.5039 39.4995 30.4548 38.996 30.425 38.4989C30.4036 38.1469 30.4911 37.7863 30.841 37.6135C31.1973 37.4385 31.4896 37.6604 31.7435 37.878C32.2704 38.3346 32.6225 38.9234 32.8038 39.5912C33.3244 41.5135 33.1942 43.3888 32.2619 45.1596C31.5024 46.6019 30.2842 47.4382 28.684 47.6153C27.8904 47.7027 27.0797 47.6963 26.2882 47.515C24.9313 47.2035 24.1376 46.284 23.7045 44.9975C23.3077 43.8198 23.2074 42.593 23.2074 41.362C23.2074 37.9932 23.2202 34.6245 23.2458 31.2557C23.2501 30.733 23.3119 30.2018 23.4165 29.6897C23.4719 29.4166 23.6469 29.1499 23.8197 28.9217C24.3552 28.2176 25.6886 28.2859 26.0513 29.2588C26.301 29.9287 26.3564 30.6242 26.3586 31.3261" fill="#BADE8F" fill-opacity="0.58"/>
<path d="M12.4546 39.235C12.0535 38.2088 11.8679 37.1826 12.1773 36.1223C12.7853 34.0421 13.9118 32.3012 15.8085 31.2622C18.7783 29.6344 21.5561 31.5929 22.0361 34.1744C22.322 35.7127 21.8633 37.0973 21.0035 38.3432C20.0541 39.7172 18.7079 40.4767 17.095 40.7712C16.297 40.9184 15.5013 40.9312 14.7076 40.7327C14.1956 40.6047 13.835 40.2698 13.5385 39.8602C13.3272 39.57 13.3827 39.2542 13.7049 39.026C13.9737 38.8339 14.2766 38.6803 14.5817 38.5523C15.4949 38.1704 16.4229 37.8205 17.3339 37.4344C17.9078 37.1912 18.4007 36.8178 18.7975 36.325C19.2733 35.7319 19.301 35.0577 19.1282 34.3579C19.1026 34.2512 18.9703 34.1595 18.87 34.0869C17.9782 33.4512 17.0459 33.5045 16.105 33.9547C14.7801 34.5862 13.9929 35.6593 13.6409 37.0888C13.5257 37.5581 13.3656 38.0168 13.2014 38.4691C13.0734 38.8211 12.8195 39.0708 12.4589 39.235" fill="#BADE8F" fill-opacity="0.58"/>
<path d="M56.4151 51.4044C55.7687 51.3702 55.2694 51.3873 54.783 51.3105C54.0107 51.1889 53.825 50.9435 53.7973 50.263C53.7866 49.9813 53.8122 49.6912 53.872 49.4138C54.0811 48.4111 54.7873 47.9481 55.7068 47.7262C56.3831 47.5641 57.0637 47.6281 57.7443 47.6601C58.1774 47.6814 58.6126 47.7134 59.0457 47.7497C59.9823 47.8308 60.8783 48.0676 61.6869 48.569C61.9003 48.7012 62.0944 48.8869 62.2566 49.0831C62.6598 49.5632 62.5745 50.1861 62.0134 50.4592C61.5525 50.6832 61.0448 50.8603 60.5391 50.9307C59.1225 51.1291 57.6952 51.2614 56.4172 51.4044" fill="#BADE8F" fill-opacity="0.58"/>
<path d="M64.4478 47.641C65.0538 47.6431 65.7087 47.705 66.2485 48.1872C66.7093 48.5989 67.0187 49.0811 66.9995 49.734C66.9824 50.2972 66.752 50.6791 66.1994 50.7879C65.4932 50.9287 64.7679 51.0077 64.0489 51.0439C63.5624 51.0695 63.332 50.854 63.236 50.3548C63.14 49.8598 63.0611 49.3478 63.076 48.8443C63.1016 47.9632 63.5198 47.6133 64.4478 47.6389" fill="#BADE8F" fill-opacity="0.58"/>
<path d="M26.1838 50.0687C26.1838 49.514 26.1668 49.0809 26.4462 48.7417C26.5913 48.5668 26.8089 48.362 27.0095 48.3428C27.6495 48.2852 28.3066 48.2553 28.9125 48.5582C29.4801 48.842 29.9068 49.2772 30.071 49.9045C30.2844 50.7152 30.0284 51.3424 29.2027 51.5067C28.5861 51.6283 27.9546 51.6966 27.3274 51.7286C26.7172 51.7606 26.4932 51.5707 26.3438 50.9797C26.2585 50.6384 26.2201 50.2842 26.1838 50.0687Z" fill="#BADE8F" fill-opacity="0.58"/>
<path d="M3.90995 28.5421C3.80114 28.5016 3.73714 28.4248 3.71367 28.3096C3.69234 28.1944 3.703 28.077 3.74567 27.9575L4.32171 26.3894C4.39852 26.1782 4.49453 25.9819 4.6076 25.7985C4.72068 25.6171 4.85722 25.4699 5.01723 25.359C5.17724 25.2502 5.36712 25.1819 5.589 25.1584C5.80875 25.1349 6.06264 25.1755 6.35066 25.2822C6.68561 25.4059 6.9395 25.568 7.11231 25.7686C7.28299 25.9691 7.37686 26.1953 7.38753 26.447C7.4814 26.3404 7.58168 26.2486 7.68836 26.1697C7.7929 26.0929 7.91023 26.0353 8.04037 25.999C8.17052 25.9627 8.3156 25.9521 8.47561 25.967C8.63776 25.9798 8.81697 26.0225 9.01751 26.0972L9.18819 26.159C9.50821 26.2764 9.75997 26.4172 9.94559 26.5793C10.1312 26.7436 10.2656 26.9228 10.3509 27.1212C10.4363 27.3175 10.4704 27.5266 10.4576 27.7463C10.4448 27.9661 10.3957 28.188 10.3125 28.4163L9.6789 30.138C9.6277 30.2788 9.55302 30.3791 9.45701 30.4388C9.361 30.4985 9.2714 30.5135 9.18393 30.4815L3.90568 28.54L3.90995 28.5421ZM6.26745 28.22L6.60241 27.3111C6.68348 27.0892 6.67921 26.9015 6.58747 26.7479C6.49573 26.5943 6.34853 26.4812 6.14158 26.4044C5.93036 26.3276 5.74261 26.3233 5.57834 26.3958C5.41406 26.4662 5.29245 26.6049 5.21778 26.8119L4.88709 27.7122L6.26745 28.22ZM9.30766 28.2968C9.3994 28.0472 9.39941 27.8274 9.3098 27.6397C9.22019 27.4519 9.01965 27.2983 8.71243 27.1852L8.58229 27.1362C8.26226 27.0188 8.01478 27.006 7.8377 27.0978C7.66062 27.1895 7.52408 27.3602 7.43234 27.6077L7.09524 28.5251L8.97058 29.2142L9.30766 28.2968Z" fill="#BADE8F" fill-opacity="0.58"/>
<path d="M8.7251 23.1612L9.35234 22.0048C9.40781 21.9046 9.49101 21.8491 9.59982 21.8384C9.71076 21.8299 9.81531 21.8534 9.91558 21.9067C10.0031 21.9536 10.0735 22.0262 10.1289 22.12C10.1844 22.2161 10.1844 22.3185 10.1268 22.423L9.49955 23.5793L11.0271 24.4093L12.1941 22.2566C12.2496 22.1542 12.335 22.1008 12.4523 22.0966C12.5696 22.0923 12.687 22.12 12.8043 22.1841C12.9067 22.2395 12.9878 22.3163 13.0518 22.4166C13.1158 22.5169 13.1179 22.6193 13.0603 22.726L11.5904 25.4333C11.5306 25.5443 11.4496 25.6296 11.3471 25.6915C11.2447 25.7512 11.1445 25.7534 11.0421 25.6979L6.1073 23.0204C6.00703 22.9649 5.95369 22.8796 5.94729 22.7622C5.94303 22.6449 5.96863 22.5297 6.0305 22.4187L7.50048 19.7113C7.55808 19.6047 7.64555 19.5513 7.76503 19.5492C7.8845 19.5492 7.99331 19.5748 8.09571 19.6303C8.21092 19.6943 8.30053 19.7753 8.36026 19.8778C8.42 19.978 8.42214 20.0804 8.36667 20.1807L7.19965 22.3334L8.72082 23.1591L8.7251 23.1612Z" fill="#BADE8F" fill-opacity="0.58"/>
<path d="M17.27 17.2282C17.1825 17.3285 17.0844 17.4053 16.9713 17.4565C16.8582 17.5077 16.7281 17.5205 16.5788 17.4906L12.7257 16.6457L15.3691 18.9051C15.4565 18.9798 15.4864 19.0822 15.4544 19.2102C15.4224 19.3403 15.3627 19.4577 15.2731 19.5622C15.1792 19.671 15.0725 19.75 14.9509 19.799C14.8293 19.8481 14.7248 19.8353 14.6373 19.7585L10.3703 16.1102C10.2786 16.0313 10.2466 15.9289 10.2786 15.8051C10.3106 15.6793 10.3724 15.5619 10.4663 15.4531C10.5346 15.3742 10.5986 15.3123 10.6562 15.2632C10.7159 15.2163 10.7821 15.1822 10.8546 15.1651C10.9271 15.148 11.0104 15.1416 11.1085 15.148C11.2045 15.1544 11.324 15.1736 11.4648 15.2035L15.0021 16.0292L12.3587 13.7698C12.267 13.6909 12.2371 13.5906 12.2712 13.4668C12.3032 13.3431 12.3673 13.2279 12.4611 13.117C12.5507 13.0124 12.6553 12.9313 12.7747 12.878C12.8921 12.8247 12.9988 12.8353 13.0905 12.9143L17.366 16.5668C17.4535 16.6415 17.4812 16.7439 17.4514 16.874C17.4215 17.0042 17.3596 17.1194 17.27 17.226" fill="#BADE8F" fill-opacity="0.58"/>
<path d="M18.7332 15.7452C18.6756 15.7943 18.6094 15.837 18.5305 15.8754C18.4516 15.9116 18.3726 15.9372 18.2937 15.9522C18.2147 15.9671 18.1401 15.9671 18.0675 15.9522C17.995 15.9394 17.9374 15.9052 17.8904 15.854C17.8819 15.8455 17.8691 15.8199 17.8478 15.7772L15.5692 10.5609C15.5137 10.4328 15.518 10.3027 15.5841 10.1662C15.6503 10.0296 15.7442 9.91014 15.8658 9.80347C15.9916 9.69466 16.1282 9.61786 16.2733 9.57305C16.4162 9.52825 16.5485 9.54318 16.6658 9.61786L21.4768 12.6581C21.5152 12.6858 21.5387 12.7029 21.5472 12.7114C21.592 12.7647 21.6155 12.8266 21.6155 12.897C21.6155 12.9696 21.6048 13.0442 21.5814 13.121C21.5579 13.2 21.5195 13.2747 21.4726 13.3451C21.4235 13.4176 21.3723 13.4773 21.3147 13.5264C21.24 13.5904 21.1675 13.6309 21.0928 13.648C21.0203 13.6651 20.9477 13.6501 20.8773 13.6032L19.8789 12.944L18.3769 14.2347L18.8761 15.3207C18.9102 15.3975 18.9145 15.47 18.8868 15.5383C18.859 15.6087 18.8078 15.6748 18.7332 15.7388M19.1193 12.4362L16.8173 10.9129L17.9758 13.4176L19.1172 12.4362H19.1193Z" fill="#BADE8F" fill-opacity="0.58"/>
<path d="M21.6865 5.64104C21.7889 5.5749 21.8913 5.57063 21.998 5.62824C22.1047 5.68584 22.1921 5.76478 22.2583 5.86719C22.3308 5.97813 22.3692 6.09334 22.3756 6.21281C22.382 6.33229 22.3372 6.42403 22.2391 6.48803L21.183 7.17928L23.8968 11.3268C23.9608 11.4228 23.9587 11.5295 23.8925 11.6447C23.8264 11.7599 23.7368 11.8559 23.6195 11.9306C23.4978 12.0095 23.3741 12.0564 23.244 12.0671C23.1138 12.0799 23.0178 12.0372 22.9559 11.9412L20.24 7.79372L19.1775 8.48924C19.0815 8.55324 18.9791 8.55751 18.8746 8.50631C18.77 8.4551 18.6783 8.3719 18.6015 8.25669C18.5354 8.15428 18.497 8.04334 18.4863 7.92387C18.4756 7.80439 18.5226 7.71052 18.6228 7.64225L21.6844 5.6389L21.6865 5.64104Z" fill="#BADE8F" fill-opacity="0.58"/>
<path d="M26.4081 3.65244C26.3569 3.54363 26.3739 3.43909 26.455 3.34095C26.5361 3.24281 26.6428 3.16387 26.775 3.102C26.9009 3.0444 27.0289 3.01453 27.1591 3.01453C27.2892 3.01453 27.381 3.07 27.43 3.1788L29.1261 6.8548C29.2776 7.18549 29.3587 7.48631 29.3672 7.7594C29.3758 8.03248 29.3267 8.27783 29.2222 8.49758C29.1176 8.71733 28.964 8.91361 28.7635 9.08429C28.5629 9.2571 28.3325 9.40218 28.0701 9.52379C27.8034 9.64753 27.541 9.7286 27.2828 9.76701C27.0247 9.80754 26.7793 9.79474 26.5425 9.73287C26.3078 9.66887 26.0881 9.54726 25.8875 9.36378C25.6848 9.1803 25.5078 8.92428 25.3563 8.59359L23.6602 4.9176C23.609 4.80665 23.6239 4.70425 23.7071 4.60611C23.7882 4.50797 23.8949 4.42903 24.0271 4.36929C24.153 4.31169 24.281 4.28182 24.4112 4.28182C24.5413 4.28182 24.633 4.33729 24.6821 4.44609L26.3782 8.12209C26.5212 8.43145 26.7025 8.62346 26.9223 8.70026C27.142 8.77707 27.3874 8.75147 27.6604 8.62559C27.9335 8.49972 28.1106 8.32904 28.196 8.11142C28.2792 7.89381 28.2514 7.63139 28.1085 7.32203L26.4124 3.64604L26.4081 3.65244Z" fill="#BADE8F" fill-opacity="0.58"/>
<path d="M29.4374 2.44726C29.4118 2.35766 29.4203 2.27232 29.4673 2.18698C29.5121 2.10164 29.5867 2.04404 29.6913 2.01417L31.3383 1.54267C31.6093 1.46373 31.8738 1.42106 32.1277 1.41039C32.3816 1.39972 32.6184 1.43599 32.8382 1.51707C33.0558 1.59814 33.2478 1.73468 33.4142 1.92669C33.5806 2.11871 33.7108 2.38113 33.8068 2.71395C33.9433 3.18972 33.9454 3.59295 33.8153 3.9215C33.6852 4.25006 33.4782 4.50608 33.1945 4.68956L34.865 6.39848C34.8885 6.41555 34.9055 6.43688 34.9183 6.46035C34.9311 6.48382 34.9397 6.50302 34.9439 6.52009C34.9631 6.58623 34.961 6.6609 34.9397 6.74197C34.9183 6.82304 34.8821 6.89985 34.8351 6.97025C34.786 7.04066 34.7263 7.10466 34.6559 7.16013C34.5855 7.21774 34.5108 7.25614 34.4319 7.27748C34.3529 7.29881 34.2783 7.29668 34.2015 7.27108C34.1247 7.24547 34.0521 7.1964 33.9839 7.126L32.1448 5.16959L31.4471 5.37014L32.0701 7.53989C32.1021 7.65084 32.0701 7.75111 31.9762 7.84072C31.8824 7.93032 31.765 7.99433 31.6264 8.03486C31.4941 8.07327 31.3618 8.07967 31.2317 8.05406C31.1015 8.02846 31.0204 7.96019 30.9884 7.84925L29.4374 2.443V2.44726ZM30.694 2.75235L31.2018 4.52315L32.1171 4.26073C32.388 4.18392 32.5864 4.05591 32.7102 3.87883C32.8339 3.70175 32.8488 3.45 32.755 3.12358C32.6611 2.79716 32.5139 2.59021 32.3155 2.50274C32.1171 2.41526 31.8802 2.411 31.6093 2.48993L30.694 2.75235Z" fill="#BADE8F" fill-opacity="0.58"/>
<path d="M36.3202 6.82989C36.2455 6.84056 36.1644 6.83843 36.0791 6.82563C35.9938 6.81282 35.9148 6.79149 35.8402 6.76162C35.7676 6.72962 35.7036 6.68908 35.6503 6.63788C35.5969 6.58668 35.5671 6.52694 35.5585 6.45867C35.5585 6.448 35.5585 6.41813 35.5649 6.37119L36.5271 0.762261C36.5506 0.625718 36.6274 0.519043 36.7554 0.440104C36.8856 0.361166 37.0306 0.314229 37.1906 0.292894C37.3571 0.271559 37.5128 0.282227 37.6579 0.324896C37.803 0.367566 37.9032 0.450772 37.9608 0.578781L40.3098 5.76315C40.3269 5.80795 40.3375 5.83569 40.3375 5.84636C40.3461 5.91463 40.3311 5.98077 40.2927 6.0405C40.2543 6.10024 40.2031 6.15784 40.1391 6.20905C40.0751 6.26025 40.0047 6.30292 39.9236 6.33706C39.8426 6.37119 39.7658 6.39253 39.6911 6.40106C39.593 6.41386 39.5097 6.40746 39.4393 6.38186C39.3689 6.35626 39.3177 6.30506 39.2836 6.22825L38.8121 5.12951L36.8472 5.38126L36.6679 6.56321C36.6551 6.64641 36.6189 6.70828 36.557 6.75095C36.4951 6.79362 36.4162 6.82136 36.3202 6.83416M38.4601 4.27824L37.3741 1.7394L36.9666 4.47026L38.4601 4.27824Z" fill="#BADE8F" fill-opacity="0.58"/>
<path d="M41.72 6.3239C41.592 6.3239 41.4789 6.28976 41.3787 6.22789C41.2784 6.16602 41.2293 6.07855 41.2315 5.9612L41.3019 0.339469C41.3019 0.217861 41.3616 0.130388 41.4789 0.0770506C41.5942 0.0237135 41.7243 -0.00188833 41.8694 0.000245156C42.008 0.000245156 42.1361 0.0322474 42.2534 0.0877181C42.3707 0.145322 42.4283 0.232795 42.4283 0.354404L42.3665 5.34676L44.4765 5.37236C44.5917 5.37236 44.6749 5.4257 44.7304 5.52597C44.7837 5.62838 44.8093 5.74145 44.8093 5.86946C44.8093 5.99107 44.7794 6.10201 44.7218 6.20655C44.6664 6.30896 44.581 6.36016 44.4637 6.35803L41.7221 6.3239H41.72Z" fill="#BADE8F" fill-opacity="0.58"/>
<path d="M48.2609 5.6967C48.4146 5.7223 48.5383 5.80124 48.6343 5.93351C48.7282 6.06579 48.7623 6.21087 48.7367 6.37088C48.7111 6.52449 48.6322 6.65037 48.4978 6.74851C48.3655 6.84665 48.2204 6.88292 48.0668 6.85731C47.9025 6.82958 47.7745 6.74851 47.6828 6.6141C47.591 6.47969 47.5569 6.33461 47.5846 6.181C47.6102 6.02099 47.6892 5.89511 47.8193 5.7991C47.9495 5.7031 48.0967 5.6711 48.2609 5.6967Z" fill="#BADE8F" fill-opacity="0.58"/>
<path d="M53.6348 1.90737C53.6711 1.79856 53.7479 1.73029 53.8631 1.70682C53.9783 1.68335 54.0957 1.68975 54.2151 1.73029L55.796 2.26793C56.0094 2.34046 56.2078 2.43007 56.3934 2.53888C56.579 2.64769 56.7284 2.77996 56.8436 2.93784C56.9567 3.09572 57.0292 3.2856 57.0569 3.50321C57.0847 3.72296 57.0505 3.97898 56.9524 4.267C56.8372 4.60623 56.6814 4.86224 56.483 5.03932C56.2867 5.2164 56.0627 5.31241 55.8131 5.33161C55.9219 5.42335 56.0179 5.52149 56.0969 5.6239C56.1779 5.72631 56.2377 5.84365 56.2761 5.97166C56.3145 6.1018 56.3294 6.24688 56.3188 6.40689C56.3102 6.56903 56.2697 6.75038 56.2014 6.95093L56.1438 7.1216C56.0329 7.44376 55.8985 7.69978 55.7406 7.88966C55.5827 8.07954 55.4056 8.21822 55.2093 8.30782C55.0131 8.39743 54.8061 8.43796 54.5885 8.42943C54.3688 8.4209 54.1447 8.37823 53.9143 8.30142L52.1777 7.71045C52.0347 7.66138 51.9323 7.59097 51.8704 7.4971C51.8086 7.40322 51.7915 7.31149 51.8214 7.22401L53.6327 1.90097L53.6348 1.90737ZM54.0103 7.30082C54.2621 7.38616 54.4797 7.38189 54.6674 7.28802C54.8552 7.19414 55.0024 6.98933 55.1069 6.67997L55.1517 6.5477C55.2605 6.22554 55.2691 5.97592 55.1731 5.80098C55.0771 5.62603 54.9043 5.49589 54.6525 5.41055L53.7266 5.09479L53.0822 6.9872L54.0082 7.30295L54.0103 7.30082ZM54.0125 4.25847L54.9299 4.56996C55.1539 4.64676 55.3416 4.63823 55.4931 4.54222C55.6446 4.44835 55.7555 4.29687 55.8259 4.08992C55.8985 3.87657 55.8963 3.68883 55.8216 3.52668C55.7448 3.36454 55.604 3.2472 55.3971 3.17679L54.4882 2.86743L54.0146 4.2606L54.0125 4.25847Z" fill="#BADE8F" fill-opacity="0.58"/>
<path d="M59.1312 6.59269L60.3025 7.1922C60.4049 7.24554 60.4625 7.32661 60.4753 7.43542C60.4859 7.54423 60.4667 7.6509 60.4134 7.75331C60.3686 7.84078 60.2982 7.91332 60.2043 7.97092C60.1104 8.02853 60.008 8.03066 59.9014 7.97519L58.7301 7.37568L57.9386 8.92459L60.119 10.0383C60.2214 10.0916 60.2769 10.1769 60.2854 10.2943C60.2939 10.4116 60.2662 10.529 60.2065 10.6484C60.1531 10.7509 60.0784 10.8362 59.9803 10.9023C59.8822 10.9685 59.7798 10.9727 59.6709 10.9194L56.9294 9.5177C56.8163 9.4601 56.7289 9.38116 56.667 9.28088C56.6051 9.18061 56.5987 9.08034 56.6521 8.97793L59.2101 3.97917C59.2635 3.87677 59.3467 3.8213 59.464 3.81276C59.5813 3.80423 59.6966 3.82983 59.8096 3.88743L62.5512 5.28913C62.6578 5.3446 62.7154 5.43208 62.7197 5.54942C62.724 5.66676 62.7005 5.7777 62.6472 5.88224C62.5874 5.99958 62.5063 6.09132 62.4061 6.15319C62.3058 6.21507 62.2055 6.21933 62.1031 6.16813L59.9227 5.05232L59.1355 6.59269H59.1312Z" fill="#BADE8F" fill-opacity="0.58"/>
<path d="M63.6775 13.6568C63.5687 13.58 63.4855 13.4861 63.4236 13.3794C63.3618 13.2728 63.3404 13.1426 63.3575 12.9912L63.8738 9.08048L61.8448 11.9052C61.7787 11.9991 61.6784 12.0354 61.5462 12.0162C61.416 11.997 61.2944 11.9457 61.1813 11.8647C61.064 11.7815 60.9765 11.6812 60.9189 11.5639C60.8592 11.4465 60.8635 11.342 60.9317 11.2481L64.2066 6.68671C64.277 6.58857 64.3752 6.55016 64.5032 6.56937C64.6312 6.5907 64.7528 6.6419 64.8701 6.72724C64.9555 6.78698 65.0237 6.84458 65.0749 6.90219C65.1262 6.95766 65.1645 7.01953 65.1902 7.08994C65.2136 7.16034 65.2264 7.24568 65.2286 7.34169C65.2286 7.43983 65.2222 7.5593 65.203 7.70225L64.6781 11.2972L66.7071 8.47243C66.7775 8.37429 66.8756 8.33589 67.0015 8.35936C67.1274 8.38283 67.249 8.43617 67.3663 8.51937C67.4794 8.60044 67.5669 8.69645 67.6309 8.81166C67.6949 8.92473 67.6927 9.03141 67.6202 9.12955L64.341 13.6973C64.2728 13.7912 64.1746 13.8275 64.0423 13.8083C63.9101 13.7891 63.7885 13.7379 63.6775 13.6568Z" fill="#BADE8F" fill-opacity="0.58"/>
<path d="M70.8911 12.1187C70.9786 12.0355 71.081 12.0141 71.2005 12.0589C71.32 12.1037 71.4309 12.1784 71.5312 12.2808C71.6272 12.379 71.6976 12.4899 71.7403 12.6136C71.7829 12.7374 71.7616 12.8398 71.6741 12.9251L67.6482 16.8508C67.565 16.9318 67.4605 16.951 67.3346 16.9084C67.2087 16.8657 67.0978 16.7953 67.0018 16.6971C66.9015 16.5926 66.8332 16.4795 66.7948 16.3558C66.7586 16.2299 66.7799 16.1275 66.8631 16.0486L70.889 12.1229L70.8911 12.1187Z" fill="#BADE8F" fill-opacity="0.58"/>
<path d="M73.6132 17.5396C73.6644 17.4926 73.7221 17.4329 73.7861 17.3604C73.8501 17.2878 73.9013 17.2003 73.9354 17.0958C73.9695 16.9913 73.9781 16.8739 73.9568 16.7438C73.9354 16.6136 73.8607 16.4664 73.7327 16.3043C73.5514 16.0739 73.3487 15.9459 73.1247 15.9224C72.9007 15.8989 72.6553 15.9928 72.3886 16.2019L70.4877 17.691C70.2189 17.9001 70.0717 18.1177 70.0418 18.3418C70.0119 18.5658 70.0909 18.7962 70.2744 19.033C70.396 19.1866 70.5154 19.2912 70.637 19.3424C70.7586 19.3936 70.8739 19.4128 70.9805 19.4021C71.0893 19.3914 71.1918 19.3594 71.2878 19.3104C71.3838 19.2613 71.4712 19.2101 71.5459 19.1568C71.6568 19.0842 71.7657 19.0735 71.8702 19.1226C71.9747 19.1717 72.0729 19.257 72.1668 19.3744C72.2884 19.528 72.346 19.6667 72.3438 19.784C72.3438 19.9035 72.2542 20.0293 72.0814 20.1659C71.8766 20.3259 71.6611 20.4326 71.4307 20.4838C71.2003 20.535 70.9699 20.535 70.7416 20.4795C70.5133 20.424 70.2871 20.3238 70.0674 20.1723C69.8476 20.0229 69.645 19.8288 69.4593 19.5941C69.2929 19.3808 69.1628 19.1568 69.0689 18.9199C68.9772 18.6853 68.9366 18.4484 68.9452 18.2095C68.9558 17.9705 69.0284 17.7337 69.1607 17.4969C69.2929 17.2601 69.5042 17.0318 69.7901 16.8057L71.6889 15.3165C71.9747 15.0925 72.25 14.9453 72.5124 14.8748C72.7748 14.8044 73.0244 14.7916 73.2591 14.8386C73.4938 14.8855 73.7135 14.9815 73.9205 15.1287C74.1274 15.2738 74.313 15.4552 74.4816 15.6685C74.6672 15.9053 74.8059 16.1464 74.9019 16.3939C74.9979 16.6414 75.0448 16.8803 75.047 17.1107C75.047 17.3412 74.9979 17.5588 74.8997 17.7636C74.8016 17.9684 74.6544 18.1497 74.4581 18.3012C74.281 18.4399 74.136 18.4954 74.0229 18.4676C73.9098 18.4399 73.7946 18.3503 73.6751 18.201C73.5748 18.0729 73.5151 17.9535 73.4916 17.8404C73.4682 17.7273 73.5087 17.627 73.609 17.5396" fill="#BADE8F" fill-opacity="0.58"/>
<path d="M74.9999 21.1988L75.6571 22.338C75.7147 22.4383 75.7168 22.5364 75.6677 22.6346C75.6187 22.7327 75.544 22.8117 75.4437 22.8693C75.3584 22.9183 75.2602 22.9418 75.1493 22.9397C75.0384 22.9375 74.953 22.8842 74.8911 22.7775L74.234 21.6383L72.7278 22.5066L73.9503 24.6273C74.0079 24.7275 74.0079 24.8278 73.9503 24.9324C73.8927 25.0348 73.8073 25.1201 73.6921 25.1862C73.5918 25.2438 73.483 25.2737 73.3636 25.2758C73.2441 25.278 73.1566 25.2268 73.0948 25.1201L71.5565 22.4511C71.4925 22.3423 71.4626 22.2271 71.4648 22.1098C71.4648 21.9924 71.5181 21.9049 71.6184 21.8473L76.4827 19.0439C76.583 18.9863 76.6833 18.9863 76.7878 19.0439C76.8902 19.1015 76.9734 19.1847 77.0374 19.2957L78.5757 21.9647C78.6354 22.0692 78.6354 22.1738 78.5757 22.274C78.5138 22.3764 78.4349 22.4554 78.3346 22.513C78.2194 22.5791 78.102 22.6111 77.9847 22.609C77.8673 22.6069 77.7799 22.5557 77.7223 22.4554L76.4998 20.3347L74.9999 21.1988Z" fill="#BADE8F" fill-opacity="0.58"/>
<path d="M11.1322 57.0388C11.1237 57.186 11.1152 57.3204 11.1066 57.4399C11.0981 57.5594 11.0896 57.6938 11.0789 57.8453C11.0682 57.9968 11.0597 58.1525 11.049 58.3082C11.0213 58.6816 10.9914 59.1062 10.9573 59.5798C10.9466 59.7611 10.9167 59.9212 10.8613 60.0577C10.8079 60.1942 10.7461 60.3159 10.6735 60.4225C10.601 60.5271 10.5221 60.6167 10.4324 60.6892C10.3428 60.7617 10.2554 60.8215 10.1722 60.8684L9.94175 60.9964C9.77747 61.0882 9.58971 61.1564 9.37637 61.1991C9.16302 61.2439 8.94328 61.2461 8.71926 61.2034C8.49525 61.1628 8.27549 61.0711 8.06214 60.9303C7.8488 60.7874 7.66318 60.574 7.50104 60.2838L7.41356 60.1281C7.26421 59.8593 7.18741 59.6011 7.18101 59.3537C7.17675 59.1062 7.21515 58.8757 7.29835 58.6624C7.38156 58.4491 7.49677 58.2634 7.64611 58.1034C7.79332 57.9434 7.94693 57.8175 8.10694 57.7279L8.32242 57.6063C8.59764 57.4591 8.875 57.3951 9.14808 57.4143C9.42117 57.4335 9.64945 57.4996 9.8308 57.6149C9.84573 57.6191 9.85854 57.6255 9.86281 57.6362L9.89054 57.6511L9.94602 56.9449L11.1301 57.0367L11.1322 57.0388ZM9.28249 58.6475C9.25689 58.6368 9.22063 58.6219 9.17156 58.6069C9.12462 58.592 9.06701 58.6027 9.00301 58.6389L8.68939 58.8139C8.67446 58.8224 8.65312 58.8416 8.62325 58.8715C8.59338 58.9014 8.56991 58.9376 8.55071 58.9846C8.53151 59.0315 8.52085 59.0827 8.51871 59.1382C8.51871 59.1936 8.53577 59.2512 8.57417 59.3067L8.82806 59.7611C8.8686 59.8358 8.91553 59.8892 8.96461 59.919C9.01368 59.951 9.06062 59.9681 9.10329 59.9745C9.14596 59.9809 9.18222 59.9788 9.21422 59.9724C9.24622 59.9638 9.26543 59.9574 9.2761 59.9532L9.58971 59.7782C9.61532 59.7633 9.64519 59.7377 9.68572 59.695C9.72413 59.6545 9.74547 59.5883 9.74547 59.4945C9.74547 59.4497 9.74547 59.3878 9.74547 59.3131C9.74547 59.2384 9.74759 59.1638 9.75186 59.0891C9.75826 59.008 9.76467 58.9184 9.77107 58.8245L9.28249 58.6475Z" fill="#BADE8F" fill-opacity="0.58"/>
<path d="M12.683 65.2506L12.8238 65.4426C12.8409 65.4661 12.8451 65.4959 12.8366 65.5343C12.8281 65.5727 12.811 65.6005 12.7833 65.6218L11.8189 66.3259C11.7955 66.3429 11.7677 66.3493 11.7336 66.3451C11.6995 66.3429 11.6739 66.3259 11.6525 66.2981L11.5779 66.1936C11.4413 66.0058 11.3581 65.8138 11.3282 65.6197C11.3005 65.4255 11.2962 65.2463 11.3176 65.0842C11.0914 65.0522 10.8951 64.9818 10.7309 64.8687C10.5666 64.7556 10.4258 64.6169 10.3042 64.4505L9.67051 63.5822C9.56597 63.4392 9.49557 63.2835 9.45717 63.115C9.41876 62.9464 9.41023 62.78 9.4337 62.6136C9.45717 62.4493 9.51263 62.2914 9.60224 62.1421C9.68971 61.9927 9.80492 61.8669 9.94786 61.7623L10.9805 61.0071L11.5843 61.8327L10.7842 62.4173C10.7095 62.4706 10.701 62.5368 10.7586 62.6157L11.484 63.6078C11.5544 63.7038 11.6483 63.7657 11.7635 63.7955C11.8787 63.8233 11.9789 63.7849 12.0664 63.6803L13.7412 61.5597L14.7759 62.253L12.6894 64.9092C12.6489 64.9604 12.6297 65.018 12.6297 65.0799C12.6297 65.1439 12.6489 65.1994 12.6851 65.2506" fill="#BADE8F" fill-opacity="0.58"/>
<path d="M13.0116 65.5321L13.705 66.3321C13.7583 66.3919 13.7519 66.4495 13.6922 66.5007L12.7705 67.3007C12.7449 67.3221 12.715 67.3327 12.6809 67.3285C12.6467 67.3242 12.6211 67.3114 12.6019 67.2901L11.9086 66.49C11.8893 66.4687 11.8808 66.441 11.8829 66.4068C11.8829 66.3727 11.8957 66.3449 11.9214 66.3215L12.843 65.5214C12.9028 65.4702 12.9604 65.4724 13.0116 65.5342" fill="#BADE8F" fill-opacity="0.58"/>
<path d="M13.7499 66.3839L14.4667 67.1626C14.52 67.2223 14.5179 67.2778 14.4603 67.3311L13.5621 68.1568C13.5365 68.1802 13.5066 68.1909 13.4725 68.1867C13.4384 68.1824 13.4106 68.1717 13.3936 68.1504L12.6767 67.3717C12.6575 67.3503 12.649 67.3226 12.6469 67.2885C12.6469 67.2543 12.6596 67.2266 12.6831 67.2031L13.5813 66.3775C13.6389 66.3241 13.6965 66.3262 13.7499 66.3839Z" fill="#BADE8F" fill-opacity="0.58"/>
<path d="M16.5959 70.7786L15.2646 69.8164C14.9852 69.6158 14.7142 69.4089 14.456 69.1934C14.1958 68.98 13.9483 68.7603 13.7115 68.5384L13.5365 68.3741C13.5152 68.3549 13.5024 68.3293 13.4981 68.2973C13.4917 68.2653 13.5045 68.2354 13.5323 68.2056L14.3579 67.3308C14.3814 67.3052 14.4091 67.2903 14.4411 67.286C14.4731 67.2818 14.503 67.2924 14.5329 67.3202L14.887 67.653C14.887 67.621 14.8998 67.5805 14.9254 67.5314C14.951 67.4823 14.9809 67.4333 15.0108 67.3842L15.4673 66.7015C15.5932 66.5095 15.7532 66.358 15.9473 66.2492C16.1394 66.1404 16.3399 66.0764 16.549 66.0529C16.7581 66.0316 16.9672 66.0529 17.1784 66.119C17.3896 66.1852 17.5795 66.2982 17.7501 66.4583L18.9726 67.6103L18.0595 68.5789L16.805 67.397C16.7559 67.35 16.6983 67.333 16.6322 67.3436C16.5661 67.3543 16.5149 67.3906 16.4765 67.4482L15.8065 68.4701L17.3746 69.6435L16.6002 70.7764L16.5959 70.7786Z" fill="#BADE8F" fill-opacity="0.58"/>
<path d="M18.1251 72.4192C17.9395 72.2784 17.7965 72.1098 17.6962 71.9093C17.596 71.7087 17.5426 71.5018 17.5362 71.2863C17.5277 71.0708 17.564 70.8596 17.645 70.6527C17.7261 70.4457 17.8498 70.2644 18.0184 70.1065L18.6136 69.571C18.748 69.4515 18.8931 69.3576 19.0531 69.2936C19.2131 69.2296 19.3774 69.1912 19.546 69.1848C19.7145 69.1763 19.8852 69.1976 20.0537 69.2467C20.2223 69.2958 20.3802 69.3747 20.5252 69.4856L20.9007 69.7673C21.0735 69.8974 21.2122 70.0531 21.3146 70.2324C21.417 70.4137 21.4832 70.6036 21.5109 70.802C21.5386 71.0004 21.528 71.2031 21.481 71.41C21.432 71.6149 21.3424 71.8047 21.2143 71.9775L20.7578 72.5835L20.9967 72.7627C21.0607 72.8117 21.0693 72.8651 21.0245 72.9227L20.2906 73.8977C20.2436 73.9617 20.186 73.9702 20.1241 73.9212L19.8788 73.7355C19.5908 74.0534 19.2387 74.2518 18.8227 74.3351C18.4088 74.4183 17.9949 74.3927 17.581 74.2604L16.2263 73.8166L16.6167 72.6901L17.9715 73.1339C18.1549 73.1936 18.332 73.2128 18.507 73.1894C18.6798 73.1659 18.827 73.0763 18.9465 72.9163L18.9827 72.8693C18.891 72.8587 18.7907 72.8288 18.6798 72.7819C18.5688 72.7349 18.4686 72.6773 18.3789 72.6069L18.1272 72.417L18.1251 72.4192ZM18.8611 71.1583L19.7742 71.8453L20.2287 71.2266C20.2521 71.1946 20.2607 71.1583 20.2564 71.1199C20.2521 71.0794 20.2329 71.0452 20.2052 71.0175L19.5652 70.5353C19.514 70.4905 19.4521 70.4926 19.3774 70.5438L18.8526 71.0132C18.827 71.0282 18.8163 71.0538 18.8206 71.0858C18.8248 71.1178 18.8398 71.1412 18.8611 71.1583Z" fill="#BADE8F" fill-opacity="0.58"/>
<path d="M22.0851 73.3985C22.1427 73.4348 22.2046 73.4433 22.2686 73.4263C22.3326 73.4092 22.3817 73.3729 22.4137 73.3196L23.4313 71.6512L24.481 72.2913L23.4676 73.9532C23.346 74.1517 23.1945 74.3181 23.011 74.4482C22.8276 74.5805 22.6313 74.6701 22.4201 74.7234C22.2088 74.7746 21.9912 74.7832 21.7672 74.7512C21.5432 74.7192 21.3341 74.6424 21.1336 74.5207L20.4402 74.0983C20.4103 74.0812 20.3932 74.0556 20.3868 74.0215C20.3804 73.9874 20.3869 73.9596 20.3997 73.934L21.0205 72.9142C21.0376 72.8844 21.0632 72.8652 21.0994 72.8524C21.1336 72.8396 21.1656 72.8417 21.1933 72.8609L22.083 73.4028L22.0851 73.3985ZM23.7663 71.184L24.7136 71.7621L25.3131 70.7786L24.3658 70.2004L23.7663 71.184Z" fill="#BADE8F" fill-opacity="0.58"/>
<path d="M24.9058 76.4963C24.8695 76.5667 24.8162 76.5838 24.7457 76.5454L24.5943 76.4664C24.3916 76.3598 24.2209 76.2211 24.0822 76.0483C23.9414 75.8755 23.8411 75.6877 23.7793 75.4893C23.7174 75.2888 23.6939 75.0775 23.7131 74.8557C23.7302 74.6338 23.7921 74.4226 23.8987 74.2199L25.9341 70.354L27.0286 70.93L25.0039 74.7746C24.9719 74.8343 24.9655 74.8962 24.9847 74.9581C25.0039 75.0199 25.0423 75.0669 25.1042 75.0989L25.4221 75.2653C25.4519 75.2802 25.4711 75.3058 25.4797 75.34C25.4882 75.372 25.4839 75.404 25.4669 75.4338L24.9058 76.4984V76.4963Z" fill="#BADE8F" fill-opacity="0.58"/>
<path d="M25.0849 77.8446L26.1026 78.2862L25.646 79.3445L24.6284 78.9028L25.0849 77.8446ZM28.1721 77.9342C28.1614 77.9598 28.1379 77.9812 28.1038 77.994C28.0697 78.0068 28.0377 78.0068 28.0057 77.994L27.3784 77.723C27.2163 77.6526 27.0776 77.5566 26.9624 77.435C26.8472 77.3134 26.7618 77.1512 26.7085 76.9486C26.508 77.0403 26.3159 77.0851 26.1367 77.0766C25.9575 77.0702 25.7826 77.0296 25.6162 76.9592L24.9889 76.6883C24.9633 76.6776 24.9441 76.6541 24.9292 76.62C24.9164 76.5859 24.9142 76.556 24.9271 76.5304L25.4049 75.4252C25.4177 75.3932 25.4412 75.3719 25.4754 75.3591C25.5095 75.3463 25.5394 75.3442 25.565 75.357L26.3245 75.6855C26.3864 75.7133 26.4525 75.7175 26.5229 75.7005C26.5912 75.6834 26.6466 75.6429 26.6872 75.581L27.6793 74.1494L28.7033 74.8343L27.8777 76.029C27.8265 76.1058 27.8073 76.1762 27.8222 76.2424C27.8371 76.3085 27.8819 76.3554 27.9545 76.3874L28.5817 76.6584C28.6137 76.6712 28.635 76.6968 28.6478 76.7331C28.6607 76.7693 28.6607 76.8013 28.6478 76.8269L28.17 77.9321L28.1721 77.9342ZM26.1047 78.2862L27.1224 78.7279L26.6658 79.7861L25.6482 79.3445L26.1047 78.2862Z" fill="#BADE8F" fill-opacity="0.58"/>
<path d="M29.3884 76.7183L29.8151 75.9204C29.9004 75.7625 30.0071 75.6238 30.1351 75.5065C30.2631 75.3891 30.4082 75.2974 30.5682 75.2334C30.7282 75.1694 30.8946 75.1331 31.0717 75.1267C31.2467 75.1182 31.4195 75.1395 31.588 75.1928L32.0446 75.3336C32.2515 75.3977 32.4329 75.4979 32.5908 75.6323C32.7486 75.7667 32.8745 75.9246 32.9663 76.1017C33.0601 76.2788 33.1177 76.4729 33.1391 76.682C33.1604 76.8911 33.1391 77.098 33.0751 77.305L32.7934 78.2096C32.7444 78.3675 32.6654 78.5083 32.5545 78.6363C32.4436 78.7622 32.3155 78.8646 32.1683 78.9414C32.0211 79.0182 31.8675 79.0672 31.7032 79.0864C31.539 79.1078 31.3768 79.0929 31.2125 79.0416L30.3165 78.7643C30.165 78.7174 30.0221 78.6427 29.8898 78.5424C29.7575 78.4421 29.6508 78.2843 29.5676 78.0666C29.3884 78.184 29.2135 78.2501 29.0407 78.2651C28.8678 78.28 28.6993 78.2629 28.5307 78.2096L28.3665 78.1584C28.3409 78.1498 28.3174 78.1306 28.3003 78.1029C28.2833 78.073 28.279 78.0432 28.2897 78.009L28.6524 76.8442C28.6737 76.7737 28.7228 76.7503 28.7996 76.7738L29.0428 76.8506C29.1132 76.8719 29.1793 76.8698 29.2369 76.8442C29.2945 76.8186 29.3457 76.7759 29.3884 76.7161M30.5917 77.3327L31.6755 77.6698L31.9038 76.9359C31.9102 76.8975 31.9038 76.857 31.891 76.8207C31.8761 76.7823 31.8462 76.7567 31.8035 76.7439L31.0461 76.5092C31.0077 76.4985 30.9714 76.5007 30.9394 76.5177C30.9074 76.5348 30.8818 76.554 30.8626 76.5796L30.5362 77.2004C30.517 77.2239 30.5127 77.2495 30.5255 77.2773C30.5383 77.305 30.5597 77.3242 30.5917 77.3349" fill="#BADE8F" fill-opacity="0.58"/>
<path d="M34.3577 78.4898L34.1117 79.7721L35.3689 80.0133L35.6149 78.731L34.3577 78.4898Z" fill="#BADE8F" fill-opacity="0.58"/>
<path d="M38.6263 75.788C38.7458 75.8776 38.8503 75.9586 38.9442 76.0312C39.0381 76.1037 39.1447 76.1869 39.2663 76.2808C39.388 76.3725 39.5096 76.4685 39.6333 76.5624C39.9277 76.7928 40.2648 77.0531 40.6403 77.3475C40.7854 77.4563 40.9006 77.5716 40.9859 77.691C41.0691 77.8126 41.1353 77.9321 41.1822 78.0495C41.2292 78.1668 41.259 78.2841 41.2697 78.3993C41.2803 78.5146 41.2825 78.6212 41.274 78.7172L41.2526 78.9818C41.2377 79.1695 41.1886 79.3637 41.1075 79.5642C41.0243 79.7669 40.9049 79.9483 40.7449 80.1125C40.587 80.2768 40.3886 80.407 40.1517 80.5051C39.9171 80.6032 39.6333 80.6374 39.3048 80.6118L39.1255 80.5968C38.8183 80.5712 38.5623 80.4923 38.3532 80.3579C38.1441 80.2235 37.9734 80.0635 37.8433 79.8757C37.7132 79.688 37.6236 79.4874 37.5702 79.2762C37.519 79.065 37.502 78.8666 37.5169 78.6852L37.5361 78.4377C37.5681 78.1263 37.6662 77.8617 37.8369 77.6441C38.0055 77.4265 38.1889 77.275 38.3831 77.1875C38.3959 77.1769 38.4065 77.1726 38.4193 77.1726L38.4449 77.1577L37.8902 76.7182L38.6242 75.7837L38.6263 75.788ZM38.9335 78.218C38.9079 78.2329 38.8781 78.2564 38.8375 78.2863C38.7991 78.3183 38.7756 78.3695 38.7692 78.4441L38.7394 78.8004C38.7394 78.8175 38.7415 78.8452 38.75 78.8879C38.7586 78.9285 38.7756 78.969 38.8034 79.0117C38.8311 79.0543 38.8674 79.0906 38.9143 79.1226C38.9591 79.1546 39.0167 79.1717 39.085 79.1695L39.6034 79.2122C39.6888 79.2186 39.757 79.2122 39.8104 79.1866C39.8637 79.161 39.9043 79.1333 39.932 79.1013C39.9597 79.0693 39.9789 79.0373 39.9917 79.0074C40.0024 78.9775 40.0088 78.9562 40.0088 78.9455L40.0387 78.5892C40.0408 78.5615 40.0365 78.5188 40.0237 78.4633C40.0109 78.4079 39.9661 78.3545 39.8915 78.3033C39.8531 78.2777 39.804 78.2436 39.7421 78.2009C39.6802 78.1583 39.6184 78.1156 39.5608 78.0708C39.4968 78.0196 39.4264 77.9663 39.3517 77.9086L38.9335 78.218Z" fill="#BADE8F" fill-opacity="0.58"/>
<path d="M43.3646 80.6333C43.132 80.6397 42.9144 80.597 42.7117 80.5053C42.509 80.4114 42.3384 80.2834 42.1954 80.1213C42.0525 79.957 41.9479 79.7714 41.8818 79.5602C41.8157 79.349 41.7986 79.1292 41.8306 78.9009L41.9586 78.1115C41.9863 77.9344 42.0418 77.7702 42.125 77.6187C42.2082 77.4694 42.3149 77.3371 42.4408 77.224C42.5688 77.1109 42.7139 77.0213 42.876 76.953C43.0382 76.8848 43.211 76.8485 43.3944 76.8421L43.8638 76.8272C44.0793 76.8208 44.2841 76.8549 44.4783 76.9317C44.6724 77.0085 44.841 77.1152 44.9882 77.2517C45.1354 77.3904 45.2527 77.5526 45.3445 77.7446C45.4362 77.9344 45.4853 78.1393 45.4917 78.3547L45.5173 79.1143L45.8159 79.1057C45.8949 79.1036 45.9376 79.1399 45.9397 79.2124L45.9802 80.4328C45.9824 80.5117 45.944 80.5544 45.865 80.5565L45.5578 80.5672C45.5322 80.9939 45.3828 81.3715 45.1119 81.6958C44.8409 82.0201 44.5017 82.2612 44.0964 82.4169L42.7651 82.9204L42.3618 81.7982L43.6953 81.2947C43.8745 81.2264 44.026 81.1283 44.1476 81.0024C44.2692 80.8765 44.3268 80.7144 44.3182 80.5138V80.4541C44.2393 80.5032 44.1412 80.5416 44.026 80.5736C43.9108 80.6056 43.7955 80.6248 43.6825 80.6269L43.3667 80.6376L43.3646 80.6333ZM43.147 79.1868L44.2905 79.1505L44.2564 78.3825C44.2564 78.3419 44.2393 78.3099 44.2094 78.2822C44.1796 78.2545 44.1454 78.2395 44.1049 78.2353L43.3048 78.2609C43.2366 78.2566 43.1896 78.2993 43.164 78.3846L43.051 79.0801C43.0403 79.1079 43.0467 79.1335 43.0701 79.1569C43.0936 79.1783 43.1192 79.1889 43.1491 79.1889" fill="#BADE8F" fill-opacity="0.58"/>
<path d="M45.9867 79.0202L47.0385 78.9071C47.1175 78.8986 47.1623 78.9348 47.1708 79.0138L47.3009 80.2277C47.3052 80.2619 47.2945 80.2917 47.2732 80.3173C47.2497 80.3429 47.2241 80.3579 47.1964 80.36L46.1446 80.4731C46.1169 80.4773 46.087 80.4688 46.0614 80.4475C46.0337 80.4283 46.0166 80.4005 46.0145 80.3664L45.8843 79.1525C45.8758 79.0735 45.912 79.0308 45.991 79.0202" fill="#BADE8F" fill-opacity="0.58"/>
<path d="M47.1067 78.8984L48.1542 78.7534C48.2331 78.7427 48.2779 78.7768 48.2886 78.8558L48.455 80.0655C48.4593 80.0996 48.4508 80.1295 48.4294 80.1551C48.4081 80.1807 48.3825 80.1956 48.3526 80.1999L47.3051 80.3449C47.2773 80.3492 47.2475 80.3407 47.2197 80.3215C47.192 80.3023 47.1749 80.2767 47.1707 80.2425L47.0043 79.0329C46.9936 78.9539 47.0277 78.9091 47.1067 78.8984Z" fill="#BADE8F" fill-opacity="0.58"/>
<path d="M48.2269 78.7426L49.2701 78.5677C49.3491 78.5549 49.3939 78.5869 49.4067 78.6658L49.6094 79.8691C49.6158 79.9032 49.6094 79.9331 49.5859 79.9608C49.5646 79.9864 49.5389 80.0035 49.5112 80.0078L48.4679 80.1827C48.4402 80.187 48.4125 80.1827 48.3826 80.1635C48.3549 80.1443 48.3357 80.1187 48.3314 80.0846L48.1287 78.8813C48.1159 78.8024 48.1479 78.7576 48.2269 78.7426Z" fill="#BADE8F" fill-opacity="0.58"/>
<path d="M49.7565 78.5595L49.5773 77.8746C49.5239 77.6719 49.5133 77.4693 49.5453 77.2666C49.5773 77.0639 49.6434 76.8783 49.7437 76.7076C49.844 76.5369 49.9741 76.3897 50.1363 76.266C50.2984 76.1422 50.4797 76.0526 50.6824 75.9993L50.947 75.9289C51.1219 75.882 51.2969 75.8692 51.4697 75.8841C51.6425 75.9012 51.8047 75.946 51.9583 76.0164C52.1119 76.0868 52.2527 76.1828 52.3764 76.3044C52.5023 76.4239 52.6026 76.5647 52.6815 76.7268L52.9759 77.3114C53.0869 77.529 53.1402 77.753 53.1381 77.9792C53.1359 78.2053 53.0869 78.4208 52.993 78.6214C52.8991 78.8219 52.7626 78.9968 52.5876 79.1462C52.4127 79.2955 52.2079 79.4001 51.9775 79.4598L51.9433 79.4683C51.7001 79.5323 51.4718 79.5537 51.2542 79.5345L51.2777 79.6241C51.2905 79.6689 51.3139 79.7052 51.3566 79.7372C51.3972 79.767 51.4377 79.7841 51.4782 79.7841L52.6068 79.8865L53.2938 78.4635C53.4346 78.1669 53.6053 77.9194 53.8059 77.721C54.0064 77.5205 54.2646 77.3818 54.5782 77.2986L54.7019 77.2666C54.7297 77.2602 54.7595 77.2645 54.7894 77.2794C54.8193 77.2943 54.8406 77.3199 54.8491 77.3519L55.1542 78.5168C55.1628 78.5509 55.1585 78.5829 55.1436 78.6128C55.1286 78.6427 55.103 78.664 55.071 78.6726L54.8065 78.7408C54.7062 78.7664 54.6166 78.8155 54.5312 78.888C54.4459 78.9606 54.384 79.0502 54.3414 79.1611C54.3158 79.2209 54.2774 79.3126 54.224 79.4342C54.1707 79.5579 54.1109 79.6945 54.0448 79.8481C53.9787 79.9996 53.9104 80.1575 53.84 80.3153C53.7696 80.4753 53.7077 80.6162 53.6501 80.7399C53.5946 80.8636 53.5498 80.9596 53.5178 81.0301C53.4858 81.1005 53.4752 81.1218 53.4858 81.0962L51.0707 80.934C50.9683 80.9255 50.8659 80.8914 50.7656 80.8295C50.6654 80.7676 50.5715 80.6887 50.4883 80.5948C50.4051 80.4988 50.3325 80.3943 50.2685 80.2812C50.2067 80.1681 50.1619 80.0614 50.1363 79.9633L49.8482 80.038C49.8162 80.0465 49.7821 80.0422 49.7522 80.023C49.7202 80.006 49.701 79.9782 49.6925 79.9462L49.3895 78.7814C49.381 78.7472 49.3853 78.7174 49.4045 78.6896C49.4237 78.6619 49.4493 78.6427 49.4813 78.6342L49.7544 78.5637L49.7565 78.5595ZM50.7699 77.5781L50.9427 78.2395L51.8174 78.0112C51.8494 78.0026 51.8729 77.9834 51.8857 77.9536C51.8985 77.9237 51.8985 77.8938 51.8836 77.8618L51.6446 77.3498C51.5998 77.2687 51.5358 77.2367 51.4526 77.258L50.8659 77.4117C50.8318 77.4202 50.8062 77.4415 50.7848 77.4735C50.7635 77.5055 50.7592 77.5418 50.7678 77.5802" fill="#BADE8F" fill-opacity="0.58"/>
<path d="M53.7568 71.3971L54.783 70.9768L55.2204 72.0436L54.1942 72.4639L53.759 71.3971H53.7568ZM57.3262 76.1719C57.3795 76.1505 57.4179 76.1164 57.4414 76.0694C57.4648 76.0225 57.4648 75.967 57.4371 75.9052L57.2899 75.5425C57.2771 75.5723 57.2558 75.6043 57.228 75.6406C57.2088 75.6662 57.1768 75.6961 57.1363 75.7302C57.0936 75.7622 57.0403 75.7921 56.9784 75.8177L56.5432 75.9948C56.317 76.0887 56.0909 76.1292 55.869 76.1185C55.645 76.1078 55.4402 76.0545 55.2524 75.9564C55.0647 75.8582 54.9046 75.7196 54.7681 75.5403C54.6337 75.3611 54.542 75.1542 54.4929 74.9152L54.3862 74.3861C54.3521 74.2112 54.3478 74.0362 54.3756 73.8656C54.4033 73.6949 54.4587 73.5349 54.5377 73.3834C54.6188 73.234 54.7233 73.0996 54.8513 72.978C54.9815 72.8564 55.1265 72.7647 55.2887 72.6964L55.7068 72.5257C55.9074 72.4447 56.1079 72.4063 56.3106 72.4127C56.5133 72.4191 56.7053 72.4596 56.8909 72.5343C57.0744 72.6089 57.2408 72.7177 57.3838 72.8628C57.5288 73.0058 57.6419 73.1764 57.7209 73.3706L58.5529 75.3995C58.6404 75.615 58.6831 75.8348 58.6788 76.0566C58.6745 76.2807 58.6319 76.4919 58.5465 76.6924C58.4633 76.893 58.3417 77.0743 58.1838 77.2365C58.0259 77.3986 57.8403 77.5245 57.6248 77.6141L55.5234 78.4739C55.4914 78.4867 55.4594 78.4867 55.4295 78.4718C55.3996 78.4568 55.3783 78.4355 55.3676 78.4099L54.911 77.2962C54.8982 77.2642 54.8961 77.2322 54.9047 77.2023C54.9132 77.1703 54.9367 77.149 54.9729 77.1341L57.3176 76.174L57.3262 76.1719ZM54.783 70.9768L55.8092 70.5565L56.2466 71.6233L55.2204 72.0436L54.783 70.9768ZM56.8611 74.4971L56.5496 73.7397C56.5389 73.7013 56.5176 73.6757 56.4813 73.665C56.4472 73.6543 56.4088 73.6543 56.3704 73.665L55.6364 73.9658C55.5511 74 55.5191 74.0618 55.5383 74.1536L55.6962 74.8363C55.7047 74.8704 55.7218 74.896 55.7495 74.911C55.7772 74.928 55.8071 74.928 55.8391 74.9152L56.8589 74.4971H56.8611Z" fill="#BADE8F" fill-opacity="0.58"/>
<path d="M61.8895 74.0507L60.7744 74.6793L61.4156 75.8167L62.5307 75.1882L61.8895 74.0507Z" fill="#BADE8F" fill-opacity="0.58"/>
<path d="M62.2699 69.8506C62.4171 69.8421 62.5515 69.8357 62.671 69.8293C62.7904 69.825 62.9248 69.8186 63.0785 69.8101C63.2299 69.8015 63.3835 69.793 63.5414 69.7866C63.9148 69.7695 64.3393 69.7503 64.8151 69.729C64.9965 69.7183 65.1586 69.729 65.3015 69.7674C65.4445 69.8058 65.5725 69.8527 65.6856 69.9125C65.7987 69.9722 65.8968 70.0405 65.9779 70.1216C66.0611 70.2026 66.1315 70.2816 66.1869 70.3605L66.3427 70.5739C66.4536 70.7253 66.5411 70.9046 66.6115 71.1115C66.6798 71.3185 66.7075 71.5361 66.6926 71.7643C66.6776 71.9926 66.6136 72.2209 66.4963 72.4471C66.3811 72.6754 66.1891 72.8844 65.9203 73.0786L65.7752 73.1831C65.5256 73.3623 65.2781 73.469 65.0327 73.5031C64.7874 73.5373 64.5527 73.5245 64.3329 73.4669C64.1111 73.4093 63.9126 73.3154 63.7356 73.1874C63.5585 73.0594 63.4177 72.9207 63.311 72.7735L63.1659 72.5729C62.9867 72.3169 62.8907 72.0502 62.8779 71.775C62.8651 71.4998 62.9035 71.2651 62.9974 71.0731C62.9995 71.0582 63.0059 71.0454 63.0145 71.039L63.0251 71.0091L62.3168 71.0368L62.2699 69.8506ZM64.0833 71.4977C64.0748 71.5254 64.0663 71.5638 64.0556 71.6129C64.0449 71.6619 64.062 71.7174 64.1047 71.7771L64.3137 72.0673C64.3244 72.0822 64.3457 72.1014 64.3777 72.127C64.4097 72.1526 64.4503 72.1718 64.4993 72.1868C64.5484 72.2017 64.5996 72.206 64.6572 72.1996C64.7127 72.1953 64.766 72.1697 64.8194 72.1249L65.2418 71.8198C65.3101 71.7708 65.357 71.7195 65.3826 71.6662C65.4082 71.6129 65.421 71.5659 65.421 71.5233C65.421 71.4806 65.4167 71.4443 65.4061 71.4145C65.3933 71.3846 65.3847 71.3654 65.3783 71.3547L65.1671 71.0646C65.1501 71.0411 65.1202 71.0134 65.0733 70.9792C65.0285 70.9451 64.9602 70.9323 64.8685 70.943C64.8215 70.9472 64.7618 70.9558 64.6892 70.9622C64.6146 70.9707 64.5399 70.9771 64.4652 70.9814C64.3841 70.9856 64.2945 70.9878 64.2007 70.9942L64.0833 71.4998V71.4977Z" fill="#BADE8F" fill-opacity="0.58"/>
<path d="M69.0156 70.4604C68.8427 70.6183 68.6486 70.7271 68.4353 70.7868C68.2219 70.8465 68.0064 70.8615 67.7931 70.8295C67.5797 70.7975 67.377 70.7228 67.1914 70.6055C67.0037 70.4881 66.8479 70.3302 66.7242 70.1361L66.3082 69.4512C66.2143 69.2976 66.1503 69.1376 66.1162 68.9669C66.082 68.7984 66.0756 68.6299 66.1012 68.4613C66.1247 68.2928 66.178 68.1306 66.257 67.9727C66.338 67.8149 66.4447 67.6762 66.5791 67.5524L66.9269 67.2367C67.0869 67.0916 67.264 66.9849 67.4602 66.9167C67.6565 66.8505 67.8571 66.8207 68.0576 66.8292C68.2582 66.8399 68.4545 66.8868 68.6486 66.9721C68.8428 67.0575 69.0113 67.1812 69.1564 67.3412L69.6684 67.9023L69.8903 67.7018C69.95 67.6484 70.0034 67.6484 70.0524 67.7018L70.8738 68.6042C70.9272 68.664 70.925 68.7195 70.8653 68.7728L70.6391 68.9797C70.8973 69.3232 71.0274 69.7051 71.0317 70.1276C71.036 70.55 70.9336 70.9532 70.7266 71.333L70.0396 72.5811L69.0049 71.988L69.6919 70.7399C69.7836 70.5713 69.837 70.3985 69.8455 70.2236C69.8562 70.0486 69.7943 69.8886 69.6599 69.7414L69.6193 69.6966C69.5916 69.7841 69.5425 69.8779 69.4764 69.9761C69.4081 70.0763 69.3334 70.1638 69.2481 70.2406L69.0156 70.454V70.4604ZM67.9125 69.5003L68.7574 68.7301L68.2347 68.1669C68.2091 68.137 68.175 68.1221 68.1344 68.1199C68.0939 68.1199 68.0576 68.1285 68.0256 68.1498L67.4304 68.6896C67.377 68.7323 67.3685 68.7941 67.4048 68.8752L67.7696 69.479C67.7803 69.5067 67.8016 69.5238 67.8336 69.5238C67.8656 69.5238 67.8912 69.5174 67.9125 69.4982" fill="#BADE8F" fill-opacity="0.58"/>
<path d="M69.9648 67.5335L70.6923 66.7654C70.7478 66.7078 70.8032 66.7057 70.8609 66.7611L71.7462 67.6017C71.7697 67.6252 71.7825 67.6551 71.7825 67.6892C71.7825 67.7233 71.7697 67.7511 71.7505 67.7724L71.023 68.5405C71.0038 68.5618 70.976 68.5725 70.944 68.5767C70.9099 68.5789 70.88 68.5682 70.8544 68.5447L69.969 67.7063C69.9114 67.6508 69.9093 67.5953 69.9648 67.5377" fill="#BADE8F" fill-opacity="0.58"/>
<path d="M70.7369 66.7184L71.441 65.929C71.4943 65.8692 71.5498 65.8671 71.6095 65.9204L72.5184 66.7333C72.544 66.7568 72.5568 66.7845 72.5568 66.8186C72.5568 66.8528 72.5461 66.8805 72.5269 66.9018L71.8229 67.6912C71.8037 67.7126 71.7781 67.7254 71.7439 67.7296C71.7098 67.7339 71.6799 67.7232 71.6543 67.7019L70.7455 66.889C70.6857 66.8357 70.6836 66.7802 70.7369 66.7205" fill="#BADE8F" fill-opacity="0.58"/>
<path d="M71.4859 65.8779L72.1687 65.0693C72.2199 65.0075 72.2753 65.0032 72.3372 65.0544L73.2717 65.8417C73.2973 65.863 73.3101 65.8907 73.3122 65.9249C73.3122 65.959 73.3037 65.9867 73.2866 66.0102L72.6039 66.8188C72.5868 66.8401 72.5591 66.8529 72.5271 66.8593C72.4929 66.8636 72.4631 66.8551 72.4375 66.8337L71.503 66.0465C71.4433 65.9953 71.4369 65.9398 71.4881 65.8779" fill="#BADE8F" fill-opacity="0.58"/>
<path d="M75.3881 63.0513C75.4116 63.0684 75.4244 63.094 75.4308 63.1303C75.4372 63.1665 75.4286 63.1986 75.4073 63.2263L74.9998 63.7725C74.8952 63.9133 74.7694 64.0263 74.6243 64.1117C74.4814 64.1949 74.3043 64.2418 74.0931 64.2482C74.1379 64.4658 74.1357 64.66 74.0867 64.8349C74.0376 65.0077 73.9608 65.1678 73.852 65.315L73.4445 65.8633C73.4274 65.8846 73.3997 65.8995 73.3656 65.9059C73.3293 65.9102 73.2994 65.9059 73.2781 65.8889L72.3137 65.1699C72.286 65.1486 72.2711 65.1208 72.2647 65.0846C72.2604 65.0483 72.2647 65.0184 72.2817 64.9971L72.7767 64.3336C72.8173 64.2781 72.8386 64.2162 72.8365 64.1437C72.8365 64.0733 72.8108 64.0114 72.7575 63.9581L71.5926 62.6652L72.4951 61.8246L73.4701 62.902C73.5341 62.9703 73.5981 63.0044 73.6664 63.0044C73.7346 63.0044 73.7901 62.9724 73.8392 62.9084L74.2467 62.3601C74.268 62.3324 74.2957 62.3174 74.3341 62.3132C74.3725 62.3089 74.4024 62.3153 74.4259 62.3324L75.3902 63.0513H75.3881ZM74.5923 66.034L75.2537 65.1443L76.1775 65.8313L75.514 66.7209L74.5902 66.034H74.5923ZM75.2558 65.1443L75.9193 64.2546L76.8431 64.9416L76.1796 65.8313L75.2558 65.1443Z" fill="#BADE8F" fill-opacity="0.58"/>
<path d="M75.6781 62.8955C75.6632 62.919 75.6397 62.9382 75.6077 62.9488C75.5757 62.9595 75.5437 62.9552 75.5138 62.9382L74.4599 62.3258C74.3959 62.2896 74.3831 62.2362 74.4236 62.1658L74.5537 61.944C74.59 61.8799 74.6028 61.8159 74.5922 61.7498C74.5815 61.6837 74.5495 61.6261 74.5004 61.577L73.8198 60.9839C73.6854 60.8665 73.5745 60.73 73.4934 60.5764C73.4123 60.4228 73.3569 60.2628 73.3291 60.0964C73.3014 59.9299 73.3014 59.7593 73.3291 59.5843C73.359 59.4115 73.4166 59.2472 73.5062 59.0936L73.7473 58.6797C73.8561 58.4941 73.9926 58.3384 74.1612 58.2146C74.3276 58.0909 74.509 58.0034 74.7031 57.9522C74.8972 57.901 75.0999 57.8882 75.3069 57.9138C75.5159 57.9394 75.7144 58.0077 75.9 58.1165L76.3416 58.3746C76.4013 58.4088 76.4632 58.4173 76.5293 58.4002C76.5955 58.3832 76.6446 58.3469 76.6744 58.2936L76.8643 57.9693C76.8792 57.9458 76.9027 57.9266 76.9347 57.9159C76.9667 57.9053 76.9987 57.9074 77.0286 57.9245L78.0676 58.5304C78.0975 58.5474 78.1167 58.573 78.1252 58.6093C78.1337 58.6456 78.1316 58.6733 78.1167 58.6989L78.0313 58.8461C77.9481 58.9891 77.8457 59.1214 77.7241 59.2408C77.6025 59.3603 77.4531 59.435 77.2782 59.4648C77.3379 59.6249 77.3529 59.7785 77.323 59.9257C77.2931 60.0729 77.2441 60.2052 77.1758 60.3225L76.7043 61.1332C76.6232 61.2719 76.5208 61.3935 76.3928 61.5002C76.2648 61.6069 76.0899 61.6773 75.8658 61.7114C75.9405 61.912 75.964 62.0976 75.9384 62.2661C75.9128 62.4347 75.8552 62.5968 75.7656 62.7483L75.6802 62.8955H75.6781ZM75.3666 60.5444L75.9384 59.563L75.2749 59.1768C75.2322 59.1598 75.1938 59.1534 75.1554 59.1619C75.117 59.1683 75.0871 59.1939 75.0658 59.2323L74.6668 59.9193C74.6306 59.9833 74.6391 60.0473 74.6924 60.1113L75.2258 60.57C75.245 60.5935 75.2685 60.6041 75.2983 60.5977C75.3282 60.5913 75.3517 60.5743 75.3687 60.5444" fill="#BADE8F" fill-opacity="0.58"/>
<path d="M77.3528 56.7764C77.3805 56.7145 77.3805 56.6527 77.3549 56.5908C77.3293 56.5289 77.2888 56.4863 77.2312 56.4607L75.4476 55.6627L75.949 54.5405L77.7261 55.3342C77.9395 55.4302 78.1209 55.5603 78.2766 55.7246C78.4302 55.891 78.5454 56.0745 78.6222 56.2772C78.699 56.4799 78.7353 56.6953 78.731 56.9194C78.7267 57.1455 78.6777 57.3653 78.5817 57.5765L78.251 58.3168C78.2382 58.3488 78.2147 58.368 78.1806 58.3787C78.1486 58.3893 78.1187 58.3893 78.0931 58.3787L77.0029 57.8901C76.9709 57.8752 76.9474 57.8538 76.9304 57.8218C76.9133 57.7898 76.9133 57.7578 76.9261 57.7258L77.3528 56.7764ZM79.194 58.7222L79.6463 57.7088L80.6981 58.1803L80.2458 59.1937L79.194 58.7243V58.7222Z" fill="#BADE8F" fill-opacity="0.58"/>
<path d="M73.9886 54.4873L73.5342 54.3123C73.3805 54.2547 73.2568 54.18 73.1672 54.0904C73.0776 54.0008 73.0136 53.9027 72.9752 53.7939C72.9368 53.6851 72.9219 53.572 72.9261 53.4547C72.9304 53.3373 72.9539 53.2242 72.9965 53.1112L73.6089 51.5089L74.5967 51.8865L73.9523 53.5763C73.9331 53.6232 73.9459 53.6552 73.9886 53.6723L74.2595 53.7768L73.9886 54.4873ZM79.941 54.2846L79.4994 55.4409L74.4686 53.5187L74.9103 52.3623L79.941 54.2846Z" fill="#BADE8F" fill-opacity="0.58"/>
</svg>
