<svg width="19" height="19" viewBox="0 0 19 19" fill="none" xmlns="http://www.w3.org/2000/svg">
<path d="M9.50792 18.0025C9.00917 18.0025 8.51833 17.8362 8.13042 17.5037L6.87958 16.435C6.75292 16.3242 6.43625 16.2133 6.27 16.2133H4.88458C3.71292 16.2133 2.76292 15.2633 2.76292 14.0917V12.7379C2.76292 12.5717 2.65208 12.255 2.54917 12.1362L1.4725 10.8696C0.823335 10.1017 0.823335 8.89833 1.4725 8.12249L2.54917 6.85583C2.65208 6.73708 2.76292 6.42041 2.76292 6.25416V4.90833C2.76292 3.73666 3.71292 2.78666 4.88458 2.78666H6.25417C6.42042 2.78666 6.72917 2.66791 6.86375 2.55708L8.11458 1.48833C8.89042 0.831243 10.1017 0.831243 10.8775 1.48833L12.1283 2.55708C12.255 2.66791 12.5796 2.77874 12.7458 2.77874H14.0917C15.2633 2.77874 16.2133 3.72874 16.2133 4.90041V6.24624C16.2133 6.41249 16.3321 6.72124 16.4429 6.85583L17.5117 8.10666C18.1767 8.89041 18.1688 10.1017 17.5117 10.8696L16.4429 12.1204C16.3321 12.255 16.2212 12.5637 16.2212 12.73V14.0758C16.2212 15.2475 15.2712 16.1975 14.0996 16.1975H12.7538C12.5875 16.1975 12.2788 16.3162 12.1363 16.4271L10.8854 17.4958C10.4975 17.8362 9.99875 18.0025 9.50792 18.0025ZM4.88458 3.97416C4.37 3.97416 3.95042 4.39374 3.95042 4.90833V6.25416C3.95042 6.70541 3.74458 7.27541 3.45167 7.62374L2.375 8.89041C2.10583 9.21499 2.10583 9.78499 2.375 10.1017L3.44375 11.3604C3.72875 11.685 3.9425 12.2787 3.9425 12.73V14.0837C3.9425 14.5983 4.36208 15.0179 4.87667 15.0179H6.25417C6.6975 15.0179 7.28333 15.2317 7.63167 15.5246L8.89042 16.6012C9.215 16.8783 9.785 16.8783 10.1096 16.6012L11.3604 15.5325C11.7167 15.2317 12.2946 15.0258 12.7379 15.0258H14.0838C14.5983 15.0258 15.0179 14.6062 15.0179 14.0917V12.7458C15.0179 12.3025 15.2317 11.7246 15.5246 11.3683L16.6012 10.1096C16.8783 9.78499 16.8783 9.21499 16.6012 8.89041L15.5325 7.63958C15.2317 7.28333 15.0258 6.70541 15.0258 6.26208V4.90833C15.0258 4.39374 14.6062 3.97416 14.0917 3.97416H12.7458C12.2946 3.97416 11.7088 3.76041 11.3604 3.46749L10.1017 2.39083C9.77708 2.11374 9.215 2.11374 8.8825 2.39083L7.63958 3.46749C7.28333 3.76041 6.70542 3.97416 6.25417 3.97416H4.88458Z" fill="#00A14B"/>
<path d="M9.49999 13.3554C9.06458 13.3554 8.70833 12.9992 8.70833 12.5638C8.70833 12.1283 9.05666 11.7721 9.49999 11.7721C9.93541 11.7721 10.2917 12.1283 10.2917 12.5638C10.2917 12.9992 9.94333 13.3554 9.49999 13.3554Z" fill="#00A14B"/>
<path d="M9.5 10.8617C9.17542 10.8617 8.90625 10.5925 8.90625 10.2679V6.43625C8.90625 6.11167 9.17542 5.8425 9.5 5.8425C9.82458 5.8425 10.0938 6.11167 10.0938 6.43625V10.26C10.0938 10.5925 9.8325 10.8617 9.5 10.8617Z" fill="#00A14B"/>
</svg>
