<svg width="33" height="32" viewBox="0 0 33 32" fill="none" xmlns="http://www.w3.org/2000/svg">
<path d="M16.2704 18.8933C13.4304 18.8933 11.1104 16.5867 11.1104 13.7333C11.1104 10.88 13.4304 8.58667 16.2704 8.58667C19.1104 8.58667 21.4304 10.8933 21.4304 13.7467C21.4304 16.6 19.1104 18.8933 16.2704 18.8933ZM16.2704 10.5867C14.537 10.5867 13.1104 12 13.1104 13.7467C13.1104 15.4933 14.5237 16.9067 16.2704 16.9067C18.017 16.9067 19.4304 15.4933 19.4304 13.7467C19.4304 12 18.0037 10.5867 16.2704 10.5867Z" fill="white"/>
<path d="M16.2707 30.3466C14.2974 30.3466 12.3107 29.6 10.7641 28.12C6.83074 24.3333 2.48408 18.2933 4.12408 11.1066C5.60408 4.58663 11.2974 1.66663 16.2707 1.66663C16.2707 1.66663 16.2707 1.66663 16.2841 1.66663C21.2574 1.66663 26.9507 4.58663 28.4307 11.12C30.0574 18.3066 25.7107 24.3333 21.7774 28.12C20.2307 29.6 18.2441 30.3466 16.2707 30.3466ZM16.2707 3.66663C12.3907 3.66663 7.40408 5.73329 6.08408 11.5466C4.64408 17.8266 8.59074 23.24 12.1641 26.6666C14.4707 28.8933 18.0841 28.8933 20.3907 26.6666C23.9507 23.24 27.8974 17.8266 26.4841 11.5466C25.1507 5.73329 20.1507 3.66663 16.2707 3.66663Z" fill="white"/>
</svg>
