<svg width="237" height="231" viewBox="0 0 237 231" fill="none" xmlns="http://www.w3.org/2000/svg">
<g filter="url(#filter0_d_84_5128)">
<path d="M158.497 52.7608C158.679 52.1372 158.953 51.4494 159.077 50.736C159.657 47.3348 160.544 44.0362 162.546 41.1922C164.848 37.9258 168.054 35.9001 171.929 35.0985C175.643 34.3317 178.687 35.7738 180.989 38.7563C184.043 42.7035 184.201 47.0031 182.501 51.4965C181.32 54.615 179.352 57.1892 177.177 59.6372C174.764 62.3526 171.986 64.6337 169.018 66.6974C168.364 67.151 167.728 67.6332 167.066 68.0746C166.787 68.2592 166.763 68.4188 166.85 68.7433C167.188 69.9723 167.494 71.2047 167.769 72.4514C167.846 72.8052 167.816 73.1988 167.765 73.5598C167.652 74.4093 167.088 74.7596 166.354 74.3253C165.677 73.9242 165.04 73.388 164.52 72.7934C163.877 72.0594 163.373 71.2014 162.814 70.3908C162.672 70.1878 162.544 69.9702 162.324 69.6272C161.746 72.267 160.544 74.2469 158.094 75.2411C155.702 76.2094 153.404 75.7696 151.101 74.6651C151.224 77.6619 150.465 80.2621 147.859 81.9207C145.286 83.5583 142.603 83.1923 139.901 81.9231C139.901 82.4182 139.917 82.8571 139.899 83.2953C139.821 85.2513 139.165 86.9855 137.797 88.3572C136.223 89.9362 134.238 90.4882 132.029 90.2504C130.194 90.0558 128.581 89.2745 127.097 88.1983C126.955 88.0935 126.813 87.9887 126.599 87.8261C124.971 92.5844 121.983 96.3428 118.339 99.6279C121.772 102.082 122.906 108.4 121.196 112.912C118.973 118.765 114.644 122.104 108.762 123.512C103.204 124.844 97.9352 123.866 93.2056 120.503C89.7405 118.035 87.4131 114.619 86.0733 110.605C83.7879 103.758 85.3453 97.7657 90.1988 92.6569C92.2285 90.521 94.613 88.849 97.5061 88.0606C98.2078 87.8702 98.9629 87.7722 99.6902 87.8015C101.091 87.8659 101.588 88.8031 100.738 89.8949C99.9336 90.9229 98.9474 91.8198 97.9776 92.7063C96.4414 94.1112 94.8336 95.4583 93.7543 97.2616C91.3904 101.213 90.7553 105.381 92.6896 109.775C95.2286 115.544 101.695 118.283 107.529 116.088C110.184 115.089 112.491 113.611 114.157 111.259C115.149 109.857 115.711 108.316 115.567 106.537C115.417 104.686 114.536 103.419 112.799 102.729C111.332 102.148 109.816 102.164 108.297 102.204C106.663 102.243 105.032 102.384 103.397 102.412C102.766 102.425 102.108 102.316 101.497 102.144C99.9618 101.699 99.2467 100.475 99.8316 99.0061C100.304 97.8281 101.04 96.7572 101.707 95.6675C102.895 93.7195 104.616 93.331 106.751 93.9212C108.082 94.2897 109.457 94.6119 110.82 94.6716C114.865 94.8444 118.875 91.9696 120.058 88.1987C120.328 87.3345 120.271 87.2272 119.416 86.9171C116.417 85.8323 113.84 86.7636 111.442 88.5134C110.222 89.4048 109.019 90.3139 107.798 91.2052C106.441 92.1963 103.436 91.4087 102.95 89.2031C102.443 86.8841 102.698 84.63 103.334 82.4137C104.51 78.3252 106.691 74.8536 109.81 72.0083C111.2 70.7434 112.799 69.7876 114.604 69.2243C117.843 68.2202 120.658 69.1349 123.169 71.3274C125.002 72.9292 126.04 75.052 126.989 77.2257C127.624 78.6847 128.16 80.185 129.121 81.4871C130.057 82.7592 131.304 83.25 132.524 82.6357C134.91 81.4346 136.048 79.3982 134.761 76.6804C134.186 75.4592 133.36 74.3586 132.679 73.188C132.035 72.0853 131.396 70.98 130.832 69.8384C130.625 69.4177 130.573 68.8867 130.572 68.4091C130.579 66.7747 131.882 65.94 133.385 66.578C134.388 67.0011 135.127 67.7772 135.803 68.5994C136.962 70.0113 138.064 71.4707 139.247 72.867C139.646 73.337 140.169 73.7219 140.695 74.0583C142.399 75.1438 144.318 75.0198 145.753 73.6454C146.477 72.9509 146.643 71.9234 146.431 70.9645C146.226 70.0419 145.881 69.1169 145.42 68.2892C144.628 66.8839 143.661 65.5803 142.849 64.188C142.417 63.4511 142.09 62.6353 141.848 61.817C141.629 61.0704 141.66 60.2558 142.298 59.6969C143.124 58.972 144.073 58.9973 145.01 59.5429C146.191 60.2262 147.009 61.2863 147.843 62.3359C148.855 63.6107 149.834 64.9307 150.978 66.0868C152.179 67.3045 153.678 67.9451 155.408 67.3549C157.23 66.7287 157.902 65.8544 157.684 63.7074C157.607 62.9675 157.266 62.1837 156.843 61.5505C152.616 55.1875 148.351 48.8547 144.086 42.5152C143.273 41.3086 142.615 40.0307 142.464 38.5724C142.402 37.9444 142.452 37.2673 142.628 36.6705C143.132 34.9765 144.627 34.3067 146.28 34.9636C147.205 35.3274 147.94 35.9622 148.474 36.7777C150.329 39.6095 152.163 42.4543 153.961 45.3227C155.488 47.7598 156.956 50.2294 158.447 52.6833C158.497 52.7608 158.552 52.8291 158.512 52.7746M163.821 61.0244C166.866 59.1773 169.641 57.3698 172.11 55.1369C174.127 53.3143 175.788 51.2135 176.921 48.713C177.398 47.6588 177.723 46.5576 177.642 45.3709C177.488 43.0623 176.009 41.7522 173.726 41.8844C171.479 42.0172 169.615 42.9466 168.142 44.6217C165.05 48.1294 163.765 52.3518 163.599 56.9738C163.554 58.2698 163.736 59.57 163.821 61.0244ZM121.657 79.5829C121.292 78.7799 120.983 78.0559 120.638 77.3555C120.449 76.97 120.198 76.6063 119.949 76.2533C118.886 74.7462 117.4 74.4772 115.965 75.5637C115.368 76.0157 114.808 76.5356 114.297 77.0873C113.443 78.0095 112.639 78.985 111.814 79.9346C111.841 80.0037 111.87 80.0769 111.893 80.1486C115.104 79.9633 118.314 79.7779 121.653 79.5855" fill="white"/>
<path d="M52.7784 140.057C53.3006 140.638 53.8836 141.134 54.2801 141.744C56.3453 144.93 56.8368 148.394 55.8848 152.005C54.5198 157.182 51.2482 160.742 46.3985 162.819C40.5931 165.3 34.817 165.051 29.2247 162.004C25.0244 159.719 22.34 156.043 20.6155 151.653C18.9592 147.432 18.8378 143.144 20.5932 138.989C22.6467 134.131 26.1272 130.628 31.0681 128.711C31.8973 128.387 32.8411 128.341 33.7385 128.187C33.9422 128.154 34.166 128.207 34.3737 128.252C35.3839 128.48 35.7576 129.162 35.2106 130.025C34.7383 130.772 34.1289 131.439 33.5001 132.066C32.0425 133.513 30.4208 134.811 29.0666 136.347C25.8181 140.042 24.2053 146.864 28.3137 152.439C31.478 156.73 36.8996 158.359 41.8518 156.488C44.4851 155.491 46.7784 154.027 48.4388 151.702C49.5376 150.163 50.105 148.469 49.8188 146.521C49.5857 144.908 48.7212 143.837 47.2463 143.198C45.7393 142.546 44.1582 142.568 42.5834 142.609C40.9496 142.648 39.3205 142.794 37.687 142.815C37.0182 142.823 36.3182 142.702 35.6733 142.505C34.2701 142.067 33.6895 140.919 34.0745 139.497C34.419 138.228 35.2322 137.223 35.9258 136.139C37.1965 134.167 38.9216 133.695 41.1175 134.344C42.2549 134.681 43.4296 134.959 44.6035 135.065C46.9471 135.28 49.0262 134.426 51.02 133.304C53.8783 131.697 55.7455 129.244 57.0998 126.297C57.5634 125.286 58.2407 124.357 58.9492 123.494C59.615 122.681 60.5683 122.56 61.5634 122.953C61.8546 123.066 62.1485 123.183 62.4216 123.33C64.2003 124.282 64.7006 125.7 63.8538 127.516C62.0276 131.417 59.641 134.91 56.3525 137.697C55.4166 138.493 54.3041 139.085 53.2666 139.767C53.1074 139.869 52.9377 139.954 52.7814 140.043" fill="white"/>
<path d="M63.7674 109.26C65.9235 112.625 68.0673 115.997 70.2438 119.349C70.7005 120.053 71.2208 120.739 71.8004 121.347C73.3887 123.007 75.1652 123.263 77.1543 122.178C79.286 121.019 80.1854 119.124 79.7492 116.691C79.3459 114.443 78.2209 112.607 76.6209 111C75.8243 110.197 75.1128 109.294 74.446 108.379C73.9734 107.731 73.6986 106.934 74.1563 106.174C74.6237 105.402 75.4552 105.469 76.208 105.574C77.7765 105.801 79.1724 106.496 80.3385 107.552C83.6923 110.593 85.7432 114.341 86.1306 118.874C86.4458 122.566 85.14 125.66 82.2948 127.962C80.8831 129.102 79.3236 130.085 77.5864 130.708C74.6074 131.776 71.9607 130.99 69.554 129.059C67.3502 127.291 65.6537 125.067 64.144 122.711C60.0124 116.263 55.9053 109.8 51.8227 103.321C51.1898 102.316 50.6566 101.223 50.2287 100.115C50 99.5243 50.0077 98.7993 50.0585 98.1504C50.2199 96.1462 52.8557 94.6415 54.743 96.0586C56.0423 97.0346 57.0015 98.2977 57.8664 99.6385" fill="white"/>
<path d="M40.9559 131.827C38.9297 130.355 37.3159 128.619 36.6075 126.21C35.22 121.483 35.2408 116.77 37.5965 112.455C41.2839 105.697 49.0023 106.039 53.0871 110.391C55.5208 112.984 56.341 116.197 56.2236 119.636C56.0917 123.43 54.4466 126.534 51.7208 129.076C50.3743 130.336 48.8669 131.337 47.1046 131.931C45.9677 132.314 44.8668 132.115 43.7968 131.694C43.0367 131.398 42.7557 130.726 43.0923 129.894C43.3712 129.197 43.7627 128.531 44.1896 127.912C45.4688 126.061 46.8159 124.253 48.0858 122.397C48.8859 121.228 49.3712 119.908 49.5263 118.479C49.7094 116.76 48.9357 115.436 47.7467 114.308C47.5668 114.136 47.2012 114.122 46.9203 114.106C44.4338 113.983 42.7148 115.229 41.4662 117.244C39.7051 120.078 39.5145 123.097 40.5939 126.265C40.949 127.304 41.2054 128.378 41.4457 129.446C41.6324 130.276 41.4527 131.065 40.9641 131.822" fill="white"/>
<path d="M140.015 101.203C138.736 101.931 137.802 102.575 136.777 103.025C135.149 103.74 134.493 103.498 133.605 102.229C133.24 101.703 132.933 101.116 132.707 100.512C131.877 98.3368 132.661 96.5847 134.149 95.0323C135.244 93.8925 136.625 93.1803 137.967 92.4068C138.822 91.9165 139.694 91.444 140.568 90.9822C142.46 89.9887 144.465 89.343 146.628 89.3108C147.198 89.3023 147.797 89.4195 148.348 89.5963C149.709 90.0205 150.31 91.3174 149.571 92.5282C148.963 93.5221 148.209 94.4838 147.327 95.2387C144.859 97.3558 142.29 99.3595 140.02 101.2" fill="white"/>
<path d="M150.773 84.1488C151.935 83.4098 153.265 82.7249 154.889 82.9857C156.276 83.2085 157.46 83.752 158.223 85.025C158.882 86.1239 158.909 87.1374 157.985 88.0233C156.806 89.1589 155.515 90.1996 154.183 91.1508C153.283 91.7964 152.578 91.6666 151.782 90.8288C150.991 89.9993 150.212 89.1161 149.623 88.1342C148.592 86.4164 148.963 85.2339 150.77 84.1447" fill="white"/>
<path d="M80.5183 135.724C79.838 134.662 79.2742 133.854 79.393 132.862C79.4561 132.35 79.6214 131.691 79.9817 131.408C81.136 130.513 82.357 129.65 83.8882 129.486C85.3223 129.333 86.6728 129.643 87.7564 130.642C89.1591 131.932 89.4384 133.447 88.0596 134.774C87.0287 135.763 85.9038 136.668 84.7426 137.498C83.6141 138.308 82.9525 138.219 81.9418 137.271C81.3599 136.723 80.852 136.092 80.5183 135.724Z" fill="white"/>
<path d="M11.4882 121.842C11.2302 121.897 11.0136 121.829 10.8273 121.637C10.6452 121.443 10.5217 121.205 10.4568 120.924L9.63612 117.217C9.52408 116.718 9.46711 116.225 9.45849 115.735C9.45249 115.249 9.53326 114.8 9.70344 114.391C9.87624 113.987 10.1559 113.623 10.5518 113.306C10.9436 112.992 11.4792 112.758 12.1613 112.609C12.9541 112.435 13.6388 112.434 14.2155 112.606C14.7882 112.78 15.2452 113.098 15.5743 113.567C15.6232 113.248 15.7026 112.949 15.8099 112.667C15.9158 112.392 16.0697 112.138 16.2743 111.909C16.4789 111.68 16.7435 111.481 17.0681 111.314C17.3941 111.139 17.7894 111.001 18.2648 110.898L18.6673 110.807C19.4237 110.639 20.0783 110.6 20.6324 110.683C21.1891 110.769 21.6661 110.948 22.0728 111.223C22.4768 111.494 22.7986 111.852 23.0436 112.288C23.2886 112.725 23.4668 113.209 23.5875 113.748L24.4864 117.821C24.5611 118.153 24.5412 118.436 24.4307 118.668C24.3202 118.901 24.1671 119.039 23.9604 119.085L11.4774 121.843L11.4882 121.842ZM15.605 118.334L15.1314 116.183C15.0145 115.659 14.7761 115.305 14.4121 115.124C14.0481 114.942 13.6277 114.906 13.1374 115.013C12.639 115.125 12.2744 115.347 12.049 115.688C11.8209 116.024 11.7583 116.439 11.8692 116.926L12.3405 119.055L15.605 118.334ZM21.5178 114.752C21.3873 114.162 21.1177 113.741 20.716 113.492C20.3142 113.242 19.742 113.194 19.0154 113.355L18.7061 113.42C17.9497 113.588 17.4604 113.867 17.234 114.26C17.0076 114.653 16.9556 115.147 17.0835 115.733L17.5635 117.902L21.9978 116.921L21.5178 114.752Z" fill="white"/>
<path d="M14.105 105.638L13.8873 102.656C13.8705 102.396 13.9617 102.188 14.1568 102.034C14.3587 101.881 14.5876 101.798 14.8449 101.777C15.0699 101.76 15.2936 101.812 15.5149 101.924C15.7388 102.04 15.8644 102.236 15.8823 102.506L16.1001 105.489L20.0415 105.204L19.6349 99.6523C19.6155 99.3883 19.7134 99.1815 19.9327 99.0294C20.1521 98.8774 20.4106 98.7865 20.7137 98.7651C20.9777 98.7457 21.2271 98.7932 21.4726 98.9067C21.7181 99.0201 21.8477 99.2134 21.8683 99.4883L22.3754 106.473C22.3972 106.758 22.3467 107.021 22.2265 107.265C22.1038 107.505 21.9145 107.632 21.6505 107.651L8.92221 108.579C8.66227 108.596 8.45553 108.498 8.29937 108.281C8.14729 108.062 8.055 107.81 8.03735 107.522L7.53023 100.538C7.50965 100.263 7.61164 100.053 7.83768 99.9027C8.06634 99.7562 8.30598 99.6718 8.57001 99.6523C8.869 99.6335 9.13992 99.6788 9.37985 99.8015C9.61716 99.9202 9.74685 100.114 9.76366 100.373L10.1703 105.925L14.0942 105.639L14.105 105.638Z" fill="white"/>
<path d="M23.1815 83.8033C23.137 84.1024 23.0434 84.3698 22.8898 84.6065C22.7362 84.8431 22.5028 85.0273 22.1804 85.1533L13.7699 88.2619L21.6 89.344C21.859 89.3797 22.0417 89.539 22.1375 89.8233C22.2358 90.1116 22.2654 90.4094 22.2222 90.7194C22.1759 91.0428 22.0686 91.3247 21.896 91.5678C21.7235 91.8108 21.5077 91.9145 21.2461 91.8748L8.6053 90.1257C8.33291 90.0871 8.14606 89.9304 8.05555 89.6543C7.96242 89.3742 7.9369 89.0737 7.98311 88.7503C8.01696 88.5155 8.06358 88.3186 8.11365 88.154C8.17041 87.991 8.25512 87.8445 8.37302 87.7229C8.49092 87.6012 8.64231 87.487 8.83799 87.3788C9.02958 87.2733 9.28181 87.1636 9.58794 87.048L17.3705 84.2899L9.54045 83.2078C9.26806 83.1692 9.0879 83.0139 9.00147 82.7352C8.91096 82.4591 8.89216 82.1602 8.93576 81.8327C8.97904 81.5227 9.07968 81.2394 9.24292 80.9907C9.40209 80.7448 9.61935 80.6343 9.89174 80.6729L22.5541 82.4197C22.8131 82.4553 22.9918 82.6173 23.0942 82.903C23.1967 83.1887 23.2195 83.4851 23.1789 83.7992" fill="white"/>
<path d="M24.1641 79.1705C24.114 79.335 24.0398 79.4978 23.9358 79.6681C23.8292 79.8343 23.7095 79.9801 23.5767 80.1055C23.444 80.2309 23.3011 80.3225 23.1439 80.3829C22.9894 80.4474 22.8373 80.4527 22.6847 80.4122C22.6579 80.4064 22.602 80.3731 22.5088 80.3176L11.7504 73.1286C11.4872 72.9517 11.3358 72.6974 11.2949 72.3549C11.254 72.0125 11.2871 71.6687 11.3891 71.3154C11.4965 70.9528 11.6636 70.6383 11.8863 70.3746C12.105 70.1136 12.3765 69.9799 12.6926 69.9789L25.6289 69.8971C25.7364 69.9031 25.8022 69.907 25.829 69.9128C25.9802 69.96 26.101 70.0496 26.1873 70.1843C26.2763 70.3232 26.3475 70.4792 26.3968 70.6549C26.4487 70.8348 26.4667 71.0248 26.4633 71.2171C26.4583 71.4161 26.4336 71.5933 26.3835 71.7578C26.3191 71.9719 26.23 72.1384 26.108 72.2627C25.9901 72.3843 25.833 72.4447 25.6407 72.4412L22.9212 72.4041L21.6296 76.7165L23.917 78.1826C24.0765 78.2877 24.1736 78.4213 24.2043 78.586C24.2375 78.7547 24.2206 78.9441 24.1562 79.1582M20.8448 72.3638L14.5708 72.2717L19.8598 75.6446L20.8407 72.3664L20.8448 72.3638Z" fill="white"/>
<path d="M17.423 56.211C17.5379 55.9589 17.7287 55.8251 18.0035 55.8045C18.2783 55.7839 18.5425 55.8277 18.7947 55.9426C19.0696 56.066 19.2844 56.2394 19.4432 56.4602C19.6019 56.681 19.6287 56.9115 19.5194 57.1544L18.346 59.7725L28.6264 64.382C28.8667 64.4873 28.9935 64.694 29.0082 64.9956C29.0229 65.2972 28.9691 65.5909 28.8361 65.8777C28.7002 66.1779 28.5209 66.4195 28.2849 66.5996C28.0516 66.7837 27.8155 66.8197 27.5793 66.7119L17.2948 62.105L16.1143 64.7392C16.0091 64.9795 15.8183 65.1132 15.5554 65.1434C15.2926 65.1737 15.0149 65.1269 14.7266 65.0006C14.4745 64.8858 14.2649 64.7205 14.098 64.505C13.931 64.2894 13.9057 64.0521 14.0139 63.7985L17.4163 56.2096L17.423 56.211Z" fill="white"/>
<path d="M24.0206 46.6149C23.7891 46.4695 23.6936 46.2485 23.7284 45.9612C23.7632 45.674 23.8705 45.3921 24.0478 45.1114C24.218 44.8468 24.4264 44.6326 24.6755 44.473C24.9246 44.3134 25.1682 44.3071 25.3955 44.4551L33.1501 49.4103C33.8456 49.8574 34.3697 50.3337 34.7209 50.8459C35.0722 51.3581 35.2792 51.8878 35.3486 52.4366C35.418 52.9854 35.3648 53.5495 35.1903 54.1221C35.0184 54.6988 34.7553 55.259 34.4022 55.8136C34.0436 56.3775 33.6408 56.8545 33.1938 57.2446C32.7495 57.6388 32.2642 57.9152 31.7351 58.0872C31.2074 58.2526 30.6377 58.2893 30.0289 58.1841C29.4159 58.0816 28.763 57.8087 28.0676 57.3616L20.313 52.4065C20.079 52.2569 19.982 52.0426 20.0208 51.7527C20.0556 51.4655 20.163 51.1836 20.3429 50.907C20.5131 50.6424 20.7215 50.4282 20.9706 50.2686C21.2197 50.109 21.4632 50.1027 21.6906 50.2507L29.4451 55.2059C30.0981 55.6227 30.6807 55.7677 31.1955 55.6452C31.7102 55.5227 32.1484 55.1728 32.5167 54.597C32.8849 54.0211 33.0145 53.4773 32.911 52.9561C32.8033 52.4376 32.4284 51.9694 31.7754 51.5526L24.0209 46.5974L24.0206 46.6149Z" fill="white"/>
<path d="M28.3403 40.5924C28.1815 40.4523 28.0931 40.2785 28.0783 40.0576C28.0594 39.8393 28.1316 39.6375 28.2951 39.4521L30.869 36.5297C31.2908 36.0463 31.7448 35.6402 32.2176 35.3084C32.6904 34.9766 33.1882 34.7556 33.7082 34.6412C34.2241 34.5295 34.759 34.5553 35.313 34.7187C35.867 34.8821 36.4379 35.2248 37.0298 35.744C37.8747 36.4871 38.3733 37.2562 38.5271 38.0446C38.681 38.8331 38.599 39.5768 38.2809 40.276L43.574 41.4979C43.6398 41.5017 43.6986 41.5216 43.7519 41.5509C43.8052 41.5801 43.8451 41.6064 43.8742 41.6338C43.992 41.7368 44.0795 41.8824 44.1381 42.0637C44.1967 42.245 44.2215 42.4365 44.218 42.6288C44.2105 42.8237 44.1746 43.0195 44.1079 43.212C44.0438 43.4086 43.948 43.5737 43.8231 43.7113C43.6982 43.849 43.5526 43.9365 43.3742 43.9817C43.1959 44.0269 42.9969 44.0219 42.7798 43.9709L36.8607 42.4821L35.7715 43.7215L39.6248 47.1101C39.8221 47.2832 39.8839 47.5144 39.8141 47.801C39.7443 48.0876 39.5983 48.354 39.3826 48.6017C39.1765 48.8374 38.9312 49.0119 38.6507 49.1225C38.3702 49.2331 38.1313 49.2019 37.934 49.0288L28.3351 40.5842L28.3403 40.5924ZM31.1195 39.6351L34.2631 42.4014L35.693 40.7767C36.1173 40.2973 36.3401 39.809 36.3597 39.3184C36.3794 38.8277 36.0992 38.3275 35.5192 37.8179C34.9392 37.3083 34.4036 37.0928 33.9166 37.1687C33.4296 37.2447 32.9711 37.527 32.5494 38.0103L31.1195 39.6351Z" fill="white"/>
<path d="M46.8873 40.5381C46.7575 40.6501 46.5997 40.7455 46.4207 40.8256C46.2416 40.9058 46.0644 40.9618 45.8849 40.9962C45.7068 41.0239 45.5346 41.0248 45.3697 40.9922C45.2048 40.9596 45.0744 40.8819 44.9743 40.7618C44.9612 40.7413 44.9246 40.6842 44.8793 40.5865L39.8418 28.6717C39.7192 28.3815 39.7354 28.0832 39.8836 27.7751C40.0359 27.4644 40.2559 27.1967 40.536 26.9596C40.8283 26.7147 41.1395 26.5441 41.4695 26.4478C41.7995 26.3515 42.0935 26.3878 42.3607 26.5621L53.2146 33.6035C53.3022 33.6683 53.3567 33.7083 53.3697 33.7287C53.4698 33.8489 53.5223 33.9938 53.5221 34.1552C53.5219 34.3167 53.4945 34.4897 53.4348 34.6662C53.3751 34.8427 53.2927 35.0107 53.1794 35.1755C53.0661 35.3402 52.9453 35.4753 52.8128 35.5832C52.6407 35.728 52.4736 35.8178 52.3075 35.8552C52.1413 35.8925 51.9805 35.8573 51.821 35.7522L49.5711 34.2276L46.1192 37.1193L47.2258 39.6012C47.3034 39.7761 47.3098 39.939 47.2437 40.0966C47.1777 40.2541 47.0606 40.404 46.8925 40.5463M47.8533 33.0302L42.6612 29.503L45.2306 35.2293L47.8533 33.0302Z" fill="white"/>
<path d="M56.6017 32.9479C56.3567 33.1049 56.0984 33.1782 55.8306 33.1828C55.5628 33.1873 55.3616 33.0801 55.2218 32.8529L48.4618 22.0073C48.3127 21.7746 48.3197 21.5339 48.4789 21.2879C48.634 21.0445 48.8516 20.8359 49.1319 20.6621C49.3973 20.492 49.6816 20.3962 49.9742 20.3585C50.2694 20.3248 50.487 20.4216 50.6361 20.6543L56.6405 30.2849L60.7102 27.7461C60.9307 27.6048 61.1553 27.6049 61.3845 27.7287C61.6122 27.8593 61.7998 28.0443 61.9568 28.2893C62.106 28.5221 62.1849 28.771 62.2029 29.0417C62.2223 29.3058 62.1217 29.5084 61.8946 29.6483L56.6058 32.9453L56.6017 32.9479Z" fill="white"/>
<path d="M68.3515 23.7249C68.6769 23.5855 69.0105 23.5849 69.3565 23.7203C69.6984 23.8583 69.9416 24.0941 70.0889 24.4317C70.2283 24.7571 70.2316 25.0948 70.0947 25.4475C69.9619 25.7976 69.7288 26.0449 69.4034 26.1843C69.0549 26.3327 68.7105 26.3345 68.3701 26.1898C68.0297 26.0451 67.7864 25.8093 67.6511 25.4813C67.5039 25.1436 67.5005 24.8059 67.6319 24.4626C67.7632 24.1192 68.0057 23.8774 68.3515 23.7249Z" fill="white"/>
<path d="M73.9901 9.88195C73.9261 9.62922 73.9894 9.40436 74.1811 9.21815C74.3728 9.03194 74.6052 8.90027 74.8836 8.83132L78.5686 7.92141C79.0659 7.79858 79.5555 7.72673 80.0442 7.70733C80.5329 7.68793 80.981 7.75793 81.3951 7.91879C81.8051 8.08227 82.1768 8.35671 82.4968 8.73919C82.8194 9.12574 83.0681 9.65759 83.2335 10.3292C83.429 11.1197 83.4449 11.8007 83.2824 12.383C83.1239 12.9626 82.8129 13.4211 82.3587 13.764C82.6795 13.8061 82.9836 13.8762 83.2602 13.9754C83.541 14.0719 83.7993 14.2232 84.0298 14.4211C84.2629 14.6231 84.4694 14.8824 84.6452 15.2018C84.8277 15.5226 84.9726 15.9193 85.0879 16.3869L85.1869 16.7842C85.3697 17.5368 85.4265 18.1917 85.3572 18.7487C85.2879 19.3057 85.1191 19.7883 84.8533 20.2005C84.5876 20.6128 84.2412 20.9441 83.8143 21.1947C83.3832 21.4479 82.9021 21.641 82.367 21.7766L78.3184 22.7754C77.9847 22.8568 77.7023 22.8477 77.4688 22.7439C77.2352 22.6401 77.0901 22.4855 77.0399 22.2814L73.9782 9.87232L73.9901 9.88195ZM81.3235 19.7438C81.91 19.5984 82.3213 19.3233 82.5655 18.9134C82.8097 18.5034 82.8402 17.9309 82.6609 17.2106L82.5844 16.9025C82.3975 16.1525 82.1077 15.6643 81.7094 15.4472C81.3111 15.2302 80.8208 15.193 80.2343 15.3385L78.0749 15.8698L79.1627 20.2818L81.3221 19.7505L81.3235 19.7438ZM77.5964 13.9185L79.7341 13.3895C80.2571 13.2618 80.6059 13.0152 80.7781 12.6457C80.9529 12.2802 80.9794 11.8542 80.8604 11.3718C80.7375 10.8745 80.5032 10.5178 80.1614 10.2991C79.8156 10.083 79.4022 10.0311 78.9197 10.1502L76.8009 10.6728L77.6031 13.92L77.5964 13.9185Z" fill="white"/>
<path d="M90.2545 12.1084L93.2314 11.8192C93.4928 11.7957 93.7025 11.8802 93.8604 12.0728C94.0143 12.2679 94.1084 12.4957 94.1319 12.7571C94.1534 12.9794 94.1076 13.2046 93.9986 13.43C93.8896 13.6554 93.6962 13.785 93.4241 13.8097L90.4471 14.0988L90.8319 18.034L96.3708 17.4913C96.6322 17.4678 96.843 17.5631 97.0033 17.7772C97.1635 17.9913 97.2543 18.2499 97.2865 18.5518C97.3101 18.8132 97.2718 19.0681 97.1651 19.3151C97.0584 19.562 96.8676 19.6958 96.594 19.7271L89.6279 20.4068C89.3409 20.4352 89.0767 20.3914 88.8353 20.2754C88.5939 20.1593 88.4586 19.9753 88.4351 19.7139L87.2002 7.00962C87.1767 6.74821 87.2679 6.54 87.482 6.37976C87.6961 6.21951 87.948 6.12721 88.2351 6.09878L95.2011 5.41914C95.4733 5.39447 95.6908 5.49123 95.8429 5.71057C95.995 5.92991 96.0861 6.17103 96.1123 6.43652C96.1419 6.73436 96.0992 7.00937 95.9832 7.25077C95.8671 7.49216 95.6805 7.6233 95.4217 7.6509L89.8802 8.18953L90.2626 12.1031L90.2545 12.1084Z" fill="white"/>
<path d="M107.619 20.0519C107.317 20.0384 107.043 19.9607 106.793 19.8325C106.544 19.7042 106.344 19.4813 106.191 19.1704L102.383 11.0527L101.964 18.9472C101.952 19.208 101.805 19.4004 101.528 19.5259C101.256 19.6487 100.96 19.6999 100.644 19.6834C100.318 19.6681 100.027 19.5834 99.773 19.4295C99.5147 19.2782 99.3947 19.0729 99.4102 18.8095L100.084 6.06314C100.098 5.78897 100.239 5.5951 100.507 5.47486C100.778 5.35869 101.074 5.30755 101.403 5.32697C101.64 5.33663 101.841 5.36314 102.01 5.41059C102.176 5.45396 102.325 5.52528 102.461 5.62863C102.592 5.73459 102.721 5.8822 102.843 6.06333C102.963 6.25116 103.097 6.48767 103.236 6.78479L106.641 14.3087L107.059 6.41415C107.074 6.13998 107.214 5.94612 107.484 5.83665C107.754 5.72719 108.052 5.6801 108.379 5.69544C108.694 5.71192 108.98 5.78838 109.243 5.93038C109.505 6.06829 109.631 6.27508 109.613 6.55188L108.939 19.3157C108.924 19.5791 108.78 19.7689 108.503 19.8944C108.227 20.0198 107.931 20.071 107.619 20.0519Z" fill="white"/>
<path d="M119.538 8.26124C119.603 7.99472 119.773 7.82827 120.057 7.76749C120.341 7.70671 120.644 7.71358 120.962 7.78659C121.266 7.85667 121.537 7.98262 121.77 8.16712C122.004 8.35161 122.088 8.57379 122.026 8.8444L119.135 21.295C119.075 21.5522 118.899 21.7172 118.606 21.7899C118.312 21.8626 118.014 21.8639 117.71 21.7939C117.39 21.7168 117.12 21.5841 116.895 21.3943C116.671 21.1979 116.586 20.9757 116.649 20.7226L119.539 8.272L119.538 8.26124Z" fill="white"/>
<path d="M131.397 15.2979C131.437 15.1453 131.474 14.9603 131.508 14.7429C131.542 14.5256 131.532 14.2954 131.469 14.0535C131.406 13.8115 131.279 13.5765 131.078 13.3536C130.878 13.1306 130.555 12.9405 130.111 12.7872C129.481 12.5686 128.936 12.5722 128.479 12.802C128.021 13.0318 127.667 13.5124 127.413 14.2396L125.601 19.4211C125.343 20.1509 125.328 20.748 125.546 21.2133C125.763 21.6787 126.197 22.0229 126.838 22.2511C127.26 22.3959 127.616 22.4495 127.912 22.3983C128.208 22.3472 128.452 22.2426 128.643 22.0914C128.838 21.9375 128.995 21.7507 129.118 21.539C129.242 21.3273 129.346 21.1221 129.424 20.9284C129.547 20.6535 129.742 20.4997 130.003 20.4654C130.263 20.4311 130.555 20.474 130.879 20.5835C131.3 20.7283 131.58 20.9231 131.72 21.1503C131.867 21.3789 131.85 21.7297 131.686 22.203C131.491 22.7604 131.209 23.2289 130.831 23.6095C130.453 23.9901 130.012 24.2727 129.507 24.4465C129.002 24.6203 128.446 24.7057 127.84 24.6853C127.236 24.669 126.61 24.546 125.967 24.3245C125.387 24.1203 124.863 23.8511 124.393 23.513C123.929 23.1764 123.561 22.7729 123.285 22.3051C123.012 21.8347 122.86 21.2925 122.823 20.677C122.786 20.0616 122.91 19.3656 123.18 18.5822L124.988 13.4033C125.26 12.624 125.606 12.0047 126.022 11.5481C126.438 11.0915 126.9 10.7609 127.407 10.5629C127.913 10.3649 128.452 10.2791 129.028 10.3071C129.602 10.3309 130.18 10.4503 130.764 10.6519C131.41 10.8775 131.971 11.1689 132.458 11.5248C132.945 11.8807 133.328 12.2804 133.615 12.7188C133.898 13.1598 134.071 13.6365 134.134 14.1488C134.197 14.6612 134.138 15.1888 133.948 15.7194C133.779 16.202 133.57 16.4861 133.319 16.5717C133.069 16.6573 132.738 16.6271 132.327 16.4878C131.978 16.3658 131.717 16.2104 131.533 16.0228C131.35 15.8351 131.304 15.5935 131.389 15.3031" fill="white"/>
<path d="M138.539 20.5998L141.194 21.9743C141.427 22.0956 141.551 22.2808 141.578 22.5288C141.604 22.7768 141.558 23.0195 141.437 23.2527C141.334 23.4513 141.175 23.6165 140.96 23.7485C140.745 23.8805 140.516 23.8831 140.267 23.7548L137.612 22.3803L135.794 25.8895L140.735 28.4489C140.968 28.5701 141.091 28.762 141.109 29.0328C141.124 29.2994 141.065 29.5674 140.926 29.8353C140.805 30.0685 140.633 30.2591 140.407 30.4097C140.181 30.5603 139.951 30.5696 139.702 30.4413L133.484 27.2198C133.228 27.0901 133.03 26.9062 132.89 26.679C132.746 26.4544 132.741 26.2216 132.862 25.9884L138.734 14.6572C138.855 14.424 139.047 14.301 139.318 14.2831C139.584 14.2677 139.846 14.3249 140.104 14.4587L146.321 17.6803C146.564 17.8071 146.692 18.0072 146.701 18.2723C146.708 18.5442 146.654 18.7921 146.532 19.0253C146.393 19.2932 146.208 19.4984 145.981 19.6382C145.753 19.778 145.523 19.7873 145.29 19.666L140.349 17.1066L138.539 20.5998Z" fill="white"/>
<path d="M60.2596 167.524C60.4239 167.816 60.5723 168.084 60.7025 168.323C60.8327 168.562 60.9813 168.83 61.1466 169.133C61.312 169.436 61.4867 169.744 61.6573 170.055C62.0621 170.804 62.5256 171.653 63.0412 172.602C63.2432 172.962 63.3822 173.305 63.4435 173.634C63.5089 173.961 63.5397 174.269 63.5317 174.562C63.521 174.851 63.4799 175.12 63.3973 175.369C63.3148 175.617 63.2207 175.839 63.119 176.031L62.835 176.558C62.6331 176.935 62.3575 177.296 62.0015 177.64C61.6481 177.987 61.2302 178.261 60.7491 178.454C60.2707 178.651 59.7376 178.745 59.1566 178.737C58.5729 178.725 57.956 178.544 57.2898 178.188L56.9314 177.997C56.3159 177.666 55.8523 177.266 55.5365 176.8C55.2248 176.332 55.0157 175.844 54.9133 175.333C54.8109 174.823 54.8038 174.326 54.8933 173.837C54.9788 173.35 55.1184 172.921 55.3148 172.553L55.5781 172.056C55.9242 171.437 56.3766 170.974 56.9228 170.676C57.469 170.378 57.987 170.224 58.4753 170.222C58.5092 170.212 58.5415 170.209 58.5628 170.224L58.6342 170.219L57.8742 168.799L60.2529 167.522L60.2596 167.524ZM58.6924 172.871C58.6303 172.882 58.5426 172.898 58.4304 172.93C58.3222 172.959 58.225 173.05 58.147 173.198L57.7614 173.917C57.7433 173.952 57.726 174.015 57.7054 174.108C57.6849 174.202 57.6845 174.3 57.7053 174.414C57.7261 174.527 57.7685 174.638 57.8324 174.747C57.9005 174.853 58.0038 174.943 58.1453 175.002L59.1885 175.56C59.3577 175.653 59.5129 175.698 59.6435 175.695C59.7766 175.696 59.8874 175.671 59.9769 175.631C60.0664 175.591 60.1332 175.542 60.1866 175.491C60.2374 175.435 60.2663 175.399 60.2815 175.378L60.6672 174.659C60.6978 174.599 60.7236 174.513 60.7489 174.382C60.7726 174.257 60.7324 174.104 60.6172 173.924C60.5623 173.839 60.4864 173.72 60.3948 173.577C60.3033 173.434 60.2157 173.289 60.1323 173.141C60.0452 172.978 59.9475 172.798 59.8446 172.611L58.6924 172.871Z" fill="white"/>
<path d="M73.2995 181.338L73.8045 181.533C73.8659 181.557 73.9107 181.609 73.9415 181.693C73.9722 181.777 73.9736 181.851 73.9467 181.925L72.9645 184.456C72.9406 184.517 72.8953 184.563 72.8247 184.597C72.7568 184.635 72.6869 184.633 72.612 184.607L72.3409 184.498C71.8493 184.306 71.4546 184.041 71.1593 183.706C70.8681 183.368 70.6402 183.03 70.4821 182.694C70.0101 182.91 69.5481 183.016 69.095 183.001C68.6419 182.986 68.2023 182.894 67.7655 182.724L65.4878 181.839C65.1124 181.694 64.7867 181.482 64.5064 181.207C64.2262 180.931 64.0058 180.623 63.8466 180.276C63.6901 179.933 63.6026 179.563 63.5909 179.167C63.5752 178.774 63.6413 178.392 63.7867 178.016L64.8367 175.304L67.0049 176.144L66.1906 178.244C66.1131 178.438 66.1779 178.575 66.3849 178.655L68.9899 179.664C69.2424 179.762 69.498 179.765 69.7551 179.681C70.0096 179.593 70.1544 179.396 70.1936 179.089L70.798 172.976L73.6288 173.034L72.8931 180.677C72.8783 180.824 72.9122 180.958 72.9881 181.077C73.0666 181.199 73.1713 181.282 73.3036 181.335" fill="white"/>
<path d="M74.2737 181.474L76.5819 182.155C76.7573 182.204 76.8157 182.322 76.7641 182.493L75.9814 185.155C75.9586 185.227 75.9145 185.284 75.8439 185.318C75.7733 185.351 75.7086 185.358 75.6457 185.341L73.3375 184.66C73.2745 184.643 73.2242 184.6 73.1864 184.532C73.1446 184.467 73.135 184.398 73.1552 184.322L73.938 181.66C73.9895 181.489 74.1024 181.422 74.2763 181.478" fill="white"/>
<path d="M76.7305 182.198L79.0575 182.809C79.2328 182.858 79.2968 182.967 79.252 183.139L78.5456 185.821C78.5253 185.898 78.4813 185.955 78.4107 185.988C78.3401 186.022 78.274 186.036 78.2151 186.016L75.8881 185.404C75.8252 185.387 75.7749 185.345 75.7289 185.282C75.6871 185.217 75.6775 185.148 75.6937 185.074L76.4001 182.392C76.4449 182.22 76.5578 182.153 76.7305 182.198Z" fill="white"/>
<path d="M87.5676 187.119L83.8396 186.91C83.0588 186.869 82.2864 186.805 81.5281 186.709C80.7682 186.62 80.0251 186.503 79.2997 186.369L78.7634 186.269C78.699 186.259 78.6431 186.225 78.5957 186.169C78.5442 186.116 78.5321 186.043 78.5486 185.952L79.056 183.265C79.0695 183.187 79.1042 183.125 79.1602 183.077C79.2162 183.03 79.2865 183.014 79.3777 183.03L80.4637 183.233C80.4244 183.171 80.3992 183.078 80.388 182.953C80.3769 182.828 80.3738 182.697 80.3708 182.566L80.4073 180.7C80.4127 180.178 80.5332 179.692 80.7713 179.245C81.0054 178.802 81.3107 178.433 81.6821 178.132C82.056 177.835 82.4824 177.619 82.9677 177.487C83.4531 177.354 83.9552 177.338 84.4781 177.435L88.2307 178.14L87.671 181.114L83.8205 180.39C83.669 180.361 83.5378 180.399 83.4243 180.5C83.3108 180.602 83.2573 180.734 83.2545 180.891L83.2257 183.669L87.666 183.991L87.5732 187.109L87.5676 187.119Z" fill="white"/>
<path d="M92.5075 188.383C91.9796 188.341 91.4993 188.193 91.0614 187.933C90.6235 187.672 90.2676 187.341 89.9911 186.937C89.7105 186.535 89.5209 186.086 89.4222 185.59C89.3236 185.095 89.338 184.596 89.4669 184.087L89.9494 182.332C90.0601 181.939 90.2226 181.581 90.4504 181.262C90.6781 180.944 90.9454 180.669 91.2602 180.45C91.5723 180.227 91.9251 180.058 92.3078 179.945C92.6906 179.833 93.0896 179.79 93.5033 179.824L94.5673 179.903C95.0577 179.94 95.5141 180.068 95.9299 180.285C96.3483 180.507 96.7077 180.789 97.0042 181.135C97.3006 181.481 97.5287 181.882 97.6927 182.335C97.85 182.787 97.9114 183.261 97.8783 183.748L97.7477 185.468L98.4248 185.518C98.6074 185.533 98.6892 185.625 98.6741 185.79L98.4653 188.556C98.4539 188.736 98.3541 188.823 98.1755 188.805L97.4783 188.751C97.317 189.713 96.8866 190.524 96.1924 191.194C95.5023 191.86 94.6788 192.319 93.7244 192.574L90.5873 193.386L89.953 190.751L93.0901 189.939C93.5145 189.828 93.8769 189.648 94.183 189.388C94.4849 189.131 94.6568 188.779 94.6892 188.327L94.701 188.192C94.5124 188.284 94.2838 188.35 94.0139 188.396C93.744 188.443 93.4815 188.455 93.2237 188.43L92.509 188.376L92.5075 188.383ZM92.3698 185.067L94.9599 185.262L95.0709 183.52C95.0765 183.43 95.0484 183.35 94.9931 183.282C94.9352 183.21 94.8566 183.168 94.7695 183.149L92.9532 183.011C92.8003 182.988 92.6845 183.068 92.6043 183.257L92.1755 184.799C92.1449 184.859 92.1558 184.921 92.2032 184.978C92.2507 185.034 92.308 185.06 92.3698 185.067Z" fill="white"/>
<path d="M101.287 185.4C101.442 185.399 101.571 185.34 101.672 185.228C101.774 185.117 101.823 184.988 101.819 184.846L101.72 180.405L104.514 180.343L104.613 184.766C104.624 185.295 104.538 185.8 104.346 186.274C104.157 186.752 103.892 187.164 103.553 187.525C103.211 187.882 102.805 188.166 102.337 188.379C101.869 188.592 101.375 188.702 100.842 188.715L98.997 188.757C98.9189 188.761 98.8548 188.733 98.8007 188.675C98.7466 188.618 98.7249 188.557 98.718 188.492L98.6554 185.779C98.6515 185.701 98.6769 185.633 98.7306 185.564C98.7803 185.498 98.8441 185.462 98.9208 185.465L101.288 185.411L101.287 185.4ZM101.788 179.1L104.311 179.045L104.252 176.427L101.73 176.483L101.788 179.1Z" fill="white"/>
<path d="M110.484 187.87C110.501 188.049 110.42 188.147 110.238 188.16L109.851 188.195C109.333 188.239 108.836 188.183 108.359 188.023C107.877 187.865 107.455 187.628 107.093 187.324C106.729 187.016 106.425 186.641 106.19 186.193C105.95 185.747 105.809 185.267 105.765 184.748L104.919 174.853L107.72 174.613L108.56 184.455C108.572 184.608 108.636 184.734 108.749 184.829C108.861 184.924 108.992 184.967 109.15 184.952L109.963 184.881C110.038 184.873 110.106 184.898 110.164 184.953C110.22 185.004 110.251 185.07 110.255 185.148L110.487 187.874L110.484 187.87Z" fill="white"/>
<path d="M112.481 190.231L114.97 189.828L115.394 192.413L112.905 192.816L112.481 190.231ZM118.499 186.616C118.51 186.678 118.491 186.748 118.442 186.814C118.392 186.881 118.331 186.92 118.254 186.935L116.721 187.185C116.325 187.249 115.941 187.236 115.572 187.144C115.202 187.053 114.84 186.847 114.489 186.525C114.218 186.946 113.905 187.267 113.552 187.471C113.201 187.678 112.817 187.815 112.412 187.885L110.879 188.136C110.817 188.146 110.751 188.125 110.681 188.078C110.615 188.028 110.574 187.974 110.567 187.909L110.126 185.208C110.111 185.131 110.13 185.061 110.18 184.995C110.229 184.929 110.284 184.888 110.349 184.881L112.205 184.578C112.358 184.556 112.49 184.483 112.603 184.364C112.713 184.247 112.77 184.102 112.771 183.934L112.914 179.977L115.714 180.032L115.599 183.331C115.595 183.541 115.645 183.699 115.755 183.807C115.864 183.916 116.008 183.95 116.186 183.923L117.719 183.672C117.795 183.657 117.868 183.68 117.937 183.734C118.006 183.788 118.045 183.849 118.052 183.913L118.493 186.615L118.499 186.616ZM114.974 189.825L117.464 189.422L117.888 192.008L115.398 192.411L114.974 189.825Z" fill="white"/>
<path d="M119.335 182.797L119.173 180.747C119.143 180.34 119.177 179.944 119.278 179.562C119.379 179.181 119.544 178.827 119.772 178.508C120 178.19 120.274 177.916 120.605 177.687C120.929 177.456 121.286 177.285 121.674 177.18L122.721 176.89C123.195 176.758 123.665 176.728 124.132 176.791C124.599 176.855 125.034 177.003 125.427 177.229C125.823 177.453 126.172 177.754 126.469 178.128C126.766 178.502 126.979 178.924 127.111 179.399L127.681 181.475C127.781 181.838 127.802 182.204 127.747 182.585C127.689 182.962 127.57 183.315 127.382 183.643C127.195 183.97 126.961 184.252 126.67 184.491C126.382 184.733 126.053 184.903 125.676 185.007L123.621 185.575C123.273 185.671 122.908 185.703 122.532 185.674C122.156 185.644 121.758 185.473 121.332 185.158C121.133 185.602 120.879 185.944 120.567 186.184C120.254 186.425 119.911 186.599 119.523 186.703L119.145 186.807C119.086 186.822 119.018 186.814 118.951 186.782C118.882 186.746 118.837 186.694 118.815 186.615L118.081 183.941C118.035 183.78 118.1 183.675 118.276 183.626L118.836 183.474C118.997 183.429 119.121 183.344 119.2 183.224C119.278 183.104 119.324 182.96 119.333 182.793M122.392 182.498L124.879 181.813L124.416 180.129C124.381 180.047 124.319 179.978 124.25 179.924C124.175 179.869 124.086 179.856 123.989 179.884L122.251 180.364C122.165 180.391 122.098 180.439 122.058 180.511C122.017 180.583 121.992 180.651 121.987 180.724L122.123 182.312C122.115 182.381 122.139 182.435 122.197 182.472C122.256 182.51 122.32 182.52 122.394 182.502" fill="white"/>
<path d="M131.019 180.093L132.12 182.849L134.822 181.769L133.72 179.013L131.019 180.093Z" fill="white"/>
<path d="M135.875 169.687C136.213 169.712 136.513 169.739 136.781 169.763C137.05 169.786 137.356 169.815 137.704 169.845C138.049 169.872 138.4 169.906 138.752 169.934C139.598 170.014 140.562 170.099 141.642 170.202C142.053 170.232 142.415 170.311 142.725 170.435C143.033 170.566 143.306 170.714 143.54 170.881C143.774 171.048 143.975 171.236 144.136 171.443C144.298 171.65 144.433 171.852 144.534 172.046L144.818 172.579C145.02 172.956 145.164 173.388 145.255 173.871C145.344 174.361 145.338 174.855 145.233 175.366C145.132 175.874 144.912 176.366 144.579 176.844C144.251 177.32 143.749 177.733 143.089 178.087L142.728 178.278C142.109 178.606 141.522 178.769 140.957 178.768C140.392 178.767 139.869 178.671 139.39 178.471C138.91 178.271 138.493 177.997 138.132 177.658C137.775 177.317 137.499 176.958 137.305 176.593L137.038 176.096C136.717 175.46 136.581 174.833 136.64 174.208C136.696 173.584 136.861 173.07 137.126 172.664C137.137 172.628 137.152 172.607 137.177 172.591L137.207 172.531L135.607 172.37L135.865 169.682L135.875 169.687ZM139.443 173.961C139.412 174.021 139.384 174.103 139.343 174.21C139.309 174.318 139.327 174.445 139.406 174.595L139.786 175.314C139.807 175.347 139.845 175.397 139.913 175.468C139.979 175.535 140.062 175.592 140.167 175.64C140.273 175.687 140.387 175.712 140.516 175.716C140.641 175.722 140.772 175.684 140.9 175.596L141.944 175.042C142.116 174.95 142.238 174.854 142.309 174.739C142.38 174.625 142.423 174.522 142.437 174.427C142.451 174.332 142.448 174.247 142.436 174.174C142.42 174.104 142.406 174.055 142.393 174.035L142.013 173.316C141.983 173.26 141.923 173.184 141.83 173.094C141.738 173.003 141.587 172.956 141.381 172.95C141.276 172.948 141.14 172.943 140.97 172.937C140.799 172.931 140.628 172.925 140.463 172.91C140.278 172.891 140.077 172.875 139.864 172.856L139.443 173.961Z" fill="white"/>
<path d="M150.886 173.149C150.448 173.446 149.98 173.631 149.479 173.704C148.976 173.773 148.493 173.738 148.02 173.603C147.545 173.463 147.117 173.236 146.732 172.913C146.346 172.59 146.044 172.191 145.825 171.714L145.102 170.047C144.938 169.674 144.843 169.291 144.816 168.899C144.792 168.511 144.834 168.127 144.936 167.757C145.043 167.383 145.21 167.034 145.437 166.704C145.664 166.375 145.95 166.093 146.293 165.856L147.173 165.252C147.578 164.975 148.012 164.79 148.477 164.698C148.943 164.607 149.397 164.605 149.846 164.686C150.298 164.77 150.721 164.937 151.132 165.192C151.541 165.443 151.886 165.775 152.162 166.179L153.143 167.601L153.704 167.219C153.852 167.118 153.978 167.135 154.071 167.271L155.646 169.557C155.747 169.705 155.725 169.834 155.577 169.935L155.002 170.332C155.476 171.18 155.654 172.086 155.533 173.039C155.412 173.992 155.058 174.87 154.474 175.665L152.543 178.261L150.395 176.608L152.33 174.009C152.589 173.658 152.759 173.285 152.837 172.895C152.915 172.505 152.827 172.124 152.564 171.75L152.491 171.636C152.4 171.827 152.259 172.021 152.078 172.223C151.897 172.426 151.7 172.604 151.486 172.747L150.895 173.154L150.886 173.149ZM148.695 170.647L150.839 169.175L149.832 167.747C149.782 167.67 149.71 167.629 149.619 167.613C149.528 167.596 149.444 167.61 149.362 167.651L147.862 168.681C147.726 168.757 147.688 168.896 147.744 169.091L148.381 170.561C148.394 170.627 148.438 170.668 148.512 170.684C148.583 170.696 148.645 170.685 148.702 170.649" fill="white"/>
<path d="M153.926 166.846L155.8 165.34C155.941 165.226 156.071 165.241 156.184 165.382L157.922 167.545C157.972 167.605 157.988 167.676 157.979 167.751C157.965 167.829 157.935 167.889 157.884 167.927L156.01 169.433C155.962 169.475 155.894 169.496 155.819 169.486C155.743 169.483 155.676 169.451 155.63 169.388L153.892 167.225C153.779 167.084 153.796 166.958 153.934 166.841" fill="white"/>
<path d="M155.92 165.24L157.747 163.677C157.885 163.56 158.013 163.57 158.13 163.708L159.932 165.819C159.982 165.879 160.003 165.947 159.993 166.022C159.984 166.097 159.953 166.157 159.901 166.202L158.074 167.765C158.026 167.807 157.959 167.827 157.882 167.824C157.805 167.822 157.741 167.794 157.691 167.733L155.889 165.622C155.772 165.484 155.782 165.357 155.92 165.24Z" fill="white"/>
<path d="M157.873 163.568L159.655 161.953C159.791 161.832 159.916 161.838 160.037 161.974L161.9 164.028C161.955 164.086 161.979 164.151 161.968 164.233C161.959 164.308 161.931 164.372 161.883 164.414L160.101 166.028C160.053 166.07 159.994 166.096 159.914 166.096C159.837 166.093 159.769 166.068 159.719 166.008L157.855 163.954C157.734 163.818 157.74 163.693 157.873 163.568Z" fill="white"/>
<path d="M160.576 161.34L159.393 160.25C159.042 159.927 158.773 159.552 158.586 159.125C158.398 158.698 158.297 158.262 158.28 157.812C158.263 157.362 158.331 156.921 158.49 156.485C158.648 156.05 158.885 155.656 159.208 155.305L159.628 154.846C159.905 154.541 160.224 154.302 160.573 154.119C160.925 153.94 161.29 153.827 161.671 153.773C162.051 153.719 162.438 153.73 162.824 153.811C163.212 153.886 163.576 154.032 163.926 154.246L165.207 155.003C165.686 155.284 166.063 155.647 166.336 156.083C166.609 156.518 166.78 156.991 166.846 157.49C166.912 157.988 166.865 158.491 166.714 158.991C166.562 159.492 166.298 159.943 165.931 160.34L165.876 160.398C165.489 160.819 165.078 161.139 164.638 161.37L164.793 161.512C164.872 161.582 164.962 161.623 165.082 161.632C165.197 161.639 165.295 161.622 165.373 161.573L167.658 160.384L167.228 156.818C167.134 156.078 167.157 155.395 167.297 154.769C167.435 154.14 167.759 153.558 168.257 153.014L168.455 152.801C168.5 152.755 168.563 152.726 168.638 152.718C168.714 152.71 168.786 152.733 168.841 152.784L170.854 154.639C170.912 154.694 170.943 154.76 170.951 154.836C170.959 154.911 170.936 154.983 170.886 155.039L170.463 155.494C170.303 155.666 170.191 155.87 170.117 156.113C170.043 156.357 170.034 156.604 170.088 156.869C170.113 157.015 170.152 157.237 170.199 157.535C170.248 157.838 170.302 158.172 170.363 158.547C170.423 158.918 170.486 159.304 170.544 159.693C170.606 160.085 170.66 160.431 170.702 160.738C170.747 161.043 170.779 161.282 170.804 161.456C170.83 161.63 170.835 161.684 170.824 161.622L166.003 164.273C165.797 164.383 165.559 164.443 165.291 164.447C165.023 164.452 164.747 164.416 164.472 164.338C164.195 164.257 163.928 164.146 163.667 164.008C163.41 163.867 163.194 163.718 163.024 163.561L162.565 164.058C162.514 164.113 162.443 164.147 162.363 164.147C162.28 164.153 162.21 164.124 162.154 164.073L160.146 162.215C160.087 162.16 160.059 162.098 160.062 162.021C160.064 161.945 160.09 161.876 160.141 161.821L160.577 161.351L160.576 161.34ZM161.312 158.219L162.453 159.273L163.848 157.763C163.898 157.708 163.92 157.642 163.908 157.569C163.895 157.497 163.859 157.439 163.791 157.397L162.706 156.71C162.521 156.609 162.359 156.627 162.226 156.77L161.291 157.783C161.236 157.841 161.214 157.913 161.212 158.001C161.21 158.088 161.247 158.163 161.31 158.226" fill="white"/>
<path d="M159.448 142.727L160.896 140.664L163.042 142.169L161.593 144.232L159.452 142.724L159.448 142.727ZM172.135 147.488C172.211 147.382 172.242 147.269 172.23 147.15C172.217 147.032 172.149 146.926 172.02 146.841L171.294 146.328C171.306 146.401 171.304 146.488 171.296 146.591C171.29 146.664 171.266 146.76 171.23 146.875C171.187 146.989 171.122 147.112 171.035 147.236L170.419 148.109C170.102 148.566 169.718 148.921 169.281 149.173C168.839 149.427 168.381 149.576 167.902 149.619C167.422 149.661 166.946 149.592 166.465 149.416C165.988 149.238 165.558 148.955 165.171 148.558L164.318 147.676C164.038 147.383 163.816 147.053 163.659 146.693C163.503 146.332 163.413 145.958 163.378 145.571C163.35 145.186 163.386 144.8 163.481 144.41C163.581 144.018 163.746 143.665 163.973 143.335L164.564 142.496C164.848 142.094 165.185 141.775 165.581 141.539C165.977 141.302 166.394 141.144 166.841 141.06C167.283 140.978 167.735 140.982 168.187 141.084C168.64 141.18 169.066 141.368 169.455 141.642L173.536 144.505C173.967 144.81 174.318 145.178 174.582 145.608C174.849 146.042 175.026 146.499 175.109 146.987C175.196 147.473 175.185 147.969 175.082 148.473C174.979 148.977 174.778 149.446 174.475 149.882L171.508 154.105C171.462 154.168 171.401 154.208 171.326 154.216C171.25 154.224 171.183 154.209 171.131 154.173L168.892 152.602C168.828 152.556 168.785 152.497 168.764 152.43C168.741 152.358 168.76 152.288 168.811 152.215L172.121 147.502L172.135 147.488ZM160.896 140.664L162.345 138.601L164.49 140.106L163.042 142.169L160.896 140.664ZM169.191 144.853L167.666 143.785C167.598 143.725 167.526 143.702 167.444 143.726C167.365 143.748 167.292 143.795 167.231 143.862L166.195 145.338C166.074 145.508 166.089 145.666 166.238 145.818L167.377 146.931C167.436 146.986 167.5 147.014 167.571 147.008C167.645 147.007 167.702 146.97 167.748 146.907L169.187 144.855L169.191 144.853Z" fill="white"/>
<path d="M178.267 137.831L176.903 140.402L179.526 141.792L180.889 139.221L178.267 137.831Z" fill="white"/>
<path d="M173.843 129.327C174.114 129.13 174.363 128.953 174.584 128.794C174.808 128.639 175.057 128.462 175.341 128.257C175.62 128.055 175.904 127.85 176.198 127.645C176.891 127.154 177.681 126.597 178.565 125.972C178.899 125.729 179.222 125.551 179.543 125.449C179.864 125.347 180.166 125.28 180.456 125.256C180.746 125.231 181.017 125.242 181.272 125.297C181.53 125.351 181.762 125.415 181.965 125.498L182.525 125.716C182.923 125.87 183.31 126.105 183.699 126.415C184.083 126.727 184.403 127.11 184.654 127.565C184.906 128.02 185.063 128.536 185.116 129.112C185.175 129.691 185.064 130.326 184.788 131.027L184.639 131.405C184.381 132.055 184.038 132.562 183.61 132.929C183.182 133.295 182.718 133.558 182.226 133.717C181.731 133.879 181.236 133.943 180.74 133.915C180.244 133.887 179.805 133.795 179.42 133.644L178.896 133.438C178.239 133.168 177.729 132.775 177.367 132.264C177.005 131.753 176.79 131.257 176.734 130.774C176.72 130.743 176.717 130.71 176.725 130.688L176.709 130.617L175.387 131.539L173.843 129.327ZM179.334 130.255C179.351 130.318 179.382 130.402 179.422 130.509C179.461 130.616 179.562 130.701 179.717 130.763L180.473 131.062C180.512 131.078 180.576 131.088 180.669 131.098C180.762 131.108 180.863 131.095 180.975 131.063C181.087 131.032 181.19 130.977 181.293 130.894C181.394 130.818 181.464 130.704 181.511 130.552L181.946 129.45C182.016 129.273 182.043 129.117 182.027 128.984C182.01 128.85 181.977 128.745 181.925 128.663C181.873 128.581 181.82 128.517 181.763 128.473C181.702 128.432 181.662 128.405 181.637 128.393L180.877 128.097C180.815 128.073 180.724 128.056 180.592 128.048C180.465 128.038 180.318 128.097 180.156 128.23C180.071 128.296 179.967 128.385 179.836 128.487C179.704 128.595 179.569 128.698 179.431 128.798C179.281 128.906 179.112 129.02 178.941 129.147L179.336 130.259L179.334 130.255Z" fill="white"/>
<path d="M187.502 122.221C187.365 122.735 187.127 123.181 186.792 123.557C186.457 123.933 186.063 124.226 185.615 124.426C185.168 124.627 184.688 124.733 184.189 124.736C183.686 124.741 183.194 124.63 182.719 124.41L181.083 123.61C180.715 123.431 180.396 123.203 180.122 122.918C179.85 122.638 179.631 122.323 179.473 121.969C179.311 121.618 179.214 121.242 179.172 120.843C179.133 120.441 179.167 120.045 179.273 119.643L179.551 118.613C179.679 118.139 179.887 117.717 180.179 117.346C180.474 116.979 180.821 116.676 181.215 116.446C181.612 116.22 182.046 116.069 182.522 115.995C182.998 115.92 183.472 115.95 183.946 116.078L185.614 116.524L185.793 115.868C185.842 115.693 185.944 115.628 186.103 115.669L188.782 116.389C188.958 116.438 189.022 116.547 188.973 116.722L188.794 117.396C189.709 117.737 190.426 118.308 190.953 119.111C191.479 119.914 191.778 120.812 191.847 121.792L192.063 125.023L189.355 125.157L189.139 121.926C189.108 121.491 188.998 121.095 188.8 120.75C188.606 120.402 188.291 120.171 187.854 120.054L187.721 120.018C187.775 120.22 187.796 120.46 187.79 120.729C187.783 121.004 187.747 121.263 187.678 121.515L187.494 122.208L187.502 122.221ZM184.214 121.736L184.886 119.226L183.195 118.789C183.109 118.763 183.026 118.776 182.945 118.822C182.868 118.872 182.809 118.933 182.774 119.013L182.297 120.776C182.247 120.923 182.306 121.052 182.475 121.162L183.914 121.871C183.968 121.911 184.03 121.917 184.091 121.878C184.153 121.839 184.194 121.795 184.211 121.732" fill="white"/>
<path d="M185.729 115.454L186.18 113.092C186.215 112.914 186.319 112.842 186.497 112.877L189.222 113.4C189.296 113.416 189.357 113.458 189.399 113.523C189.441 113.588 189.451 113.657 189.44 113.721L188.99 116.084C188.979 116.148 188.939 116.202 188.883 116.25C188.82 116.296 188.75 116.312 188.672 116.298L185.949 115.78C185.771 115.744 185.699 115.641 185.735 115.462" fill="white"/>
<path d="M186.208 112.947L186.587 110.573C186.616 110.393 186.72 110.321 186.899 110.35L189.636 110.791C189.713 110.804 189.772 110.842 189.814 110.907C189.856 110.972 189.869 111.039 189.859 111.103L189.479 113.477C189.469 113.542 189.436 113.598 189.375 113.648C189.315 113.698 189.245 113.714 189.17 113.704L186.434 113.263C186.254 113.235 186.182 113.131 186.211 112.951" fill="white"/>
<path d="M186.61 110.42L186.925 108.035C186.947 107.854 187.048 107.778 187.229 107.8L189.983 108.16C190.059 108.17 190.117 108.207 190.163 108.27C190.205 108.335 190.223 108.399 190.219 108.465L189.904 110.85C189.897 110.911 189.86 110.97 189.806 111.021C189.746 111.071 189.679 111.092 189.604 111.082L186.85 110.722C186.672 110.697 186.592 110.599 186.614 110.417" fill="white"/>
<path d="M190.611 100.224C190.677 100.228 190.733 100.261 190.79 100.323C190.847 100.384 190.869 100.456 190.863 100.535L190.753 102.08C190.725 102.478 190.623 102.849 190.45 103.19C190.278 103.525 189.997 103.832 189.601 104.103C189.953 104.464 190.187 104.839 190.308 105.234C190.426 105.625 190.475 106.025 190.448 106.44L190.34 107.989C190.334 108.051 190.299 108.114 190.241 108.168C190.177 108.22 190.115 108.249 190.053 108.242L187.326 108.049C187.246 108.042 187.184 108.007 187.127 107.946C187.074 107.882 187.046 107.819 187.053 107.758L187.186 105.881C187.196 105.725 187.161 105.58 187.068 105.444C186.981 105.309 186.856 105.222 186.689 105.186L182.874 104.14L183.57 101.424L186.757 102.29C186.964 102.343 187.128 102.329 187.259 102.246C187.389 102.162 187.456 102.033 187.472 101.85L187.579 100.301C187.586 100.222 187.621 100.159 187.689 100.104C187.757 100.048 187.822 100.024 187.888 100.028L190.615 100.221L190.611 100.224ZM192.746 106.908L192.921 104.394L195.532 104.576L195.353 107.093L192.742 106.911L192.746 106.908ZM192.925 104.392L193.104 101.875L195.714 102.057L195.536 104.574L192.925 104.392Z" fill="white"/>
<path d="M190.976 99.57C190.976 99.6332 190.955 99.6988 190.906 99.7584C190.858 99.8181 190.792 99.8492 190.714 99.8532L187.946 99.9739C187.779 99.9829 187.689 99.8966 187.68 99.7121L187.657 99.1278C187.648 98.9609 187.594 98.8227 187.492 98.7092C187.391 98.5957 187.259 98.5247 187.105 98.491L185.075 98.1905C184.674 98.1308 184.294 98.0055 183.95 97.8109C183.607 97.6164 183.304 97.3782 183.047 97.0937C182.79 96.8092 182.581 96.4826 182.419 96.1137C182.264 95.7464 182.173 95.3613 182.156 94.9574L182.11 93.8696C182.091 93.3809 182.161 92.9154 182.332 92.4718C182.498 92.0309 182.738 91.6411 183.047 91.305C183.356 90.9689 183.728 90.6958 184.155 90.491C184.587 90.2836 185.051 90.1709 185.539 90.1515L186.701 90.1039C186.857 90.096 186.986 90.0365 187.092 89.9227C187.197 89.8089 187.247 89.6793 187.239 89.5406L187.204 88.6871C187.204 88.6238 187.225 88.5583 187.274 88.4986C187.322 88.439 187.386 88.4038 187.464 88.3998L190.195 88.2852C190.273 88.2812 190.342 88.3067 190.402 88.3656C190.463 88.4246 190.493 88.4803 190.496 88.5476L190.513 88.934C190.529 89.3096 190.495 89.6884 190.409 90.0662C190.323 90.444 190.129 90.77 189.831 91.0418C190.141 91.2747 190.358 91.5504 190.482 91.8688C190.605 92.1872 190.673 92.5005 190.686 92.8088L190.778 94.9387C190.793 95.3036 190.746 95.6619 190.632 96.023C190.518 96.3842 190.27 96.7335 189.883 97.0736C190.272 97.3658 190.544 97.6923 190.702 98.0463C190.86 98.4002 190.948 98.7812 190.963 99.181L190.98 99.5674L190.976 99.57ZM187.496 95.4523L187.387 92.8728L185.643 92.9475C185.541 92.9672 185.459 93.002 185.396 93.0654C185.331 93.1248 185.305 93.2104 185.311 93.3101L185.39 95.1142C185.399 95.2812 185.494 95.3932 185.675 95.4503L187.258 95.674C187.323 95.6954 187.381 95.687 187.431 95.6382C187.48 95.5893 187.504 95.5278 187.5 95.4497" fill="white"/>
<path d="M186.677 85.8053C186.654 85.6529 186.578 85.5345 186.453 85.4475C186.328 85.3605 186.198 85.3285 186.057 85.3502L181.664 86.0105L181.248 83.2478L185.622 82.5872C186.148 82.5093 186.655 82.5359 187.155 82.6593C187.653 82.7894 188.098 82.9993 188.494 83.293C188.889 83.5867 189.223 83.9546 189.49 84.3886C189.759 84.8267 189.934 85.3074 190.01 85.8294L190.285 87.6518C190.299 87.7288 190.278 87.7943 190.226 87.8566C190.178 87.9163 190.121 87.9529 190.058 87.9639L187.373 88.3659C187.293 88.3766 187.222 88.3645 187.15 88.3242C187.078 88.2839 187.039 88.2226 187.024 88.1457L186.677 85.8053ZM192.587 87.2711L192.209 84.7769L194.801 84.3893L195.178 86.8835L192.589 87.2752L192.587 87.2711Z" fill="white"/>
<path d="M177.43 85.5504L176.346 85.7729C175.981 85.8511 175.653 85.8599 175.371 85.7983C175.09 85.7367 174.847 85.6274 174.64 85.4663C174.433 85.3051 174.266 85.107 174.13 84.8772C173.994 84.6474 173.901 84.4022 173.843 84.1334L173.05 80.316L175.404 79.8272L176.243 83.8513C176.264 83.9647 176.328 84.0103 176.43 83.9906L177.077 83.8584L177.43 85.5504ZM188.573 77.8622L189.146 80.6169L177.161 83.1079L176.588 80.3532L188.573 77.8622Z" fill="white"/>
</g>
<defs>
<filter id="filter0_d_84_5128" x="3.52759" y="5.32294" width="196.187" height="196.063" filterUnits="userSpaceOnUse" color-interpolation-filters="sRGB">
<feFlood flood-opacity="0" result="BackgroundImageFix"/>
<feColorMatrix in="SourceAlpha" type="matrix" values="0 0 0 0 0 0 0 0 0 0 0 0 0 0 0 0 0 0 127 0" result="hardAlpha"/>
<feOffset dy="4"/>
<feGaussianBlur stdDeviation="2"/>
<feComposite in2="hardAlpha" operator="out"/>
<feColorMatrix type="matrix" values="0 0 0 0 0 0 0 0 0 0 0 0 0 0 0 0 0 0 0.25 0"/>
<feBlend mode="normal" in2="BackgroundImageFix" result="effect1_dropShadow_84_5128"/>
<feBlend mode="normal" in="SourceGraphic" in2="effect1_dropShadow_84_5128" result="shape"/>
</filter>
</defs>
</svg>
