<svg width="145" height="140" viewBox="0 0 145 140" fill="none" xmlns="http://www.w3.org/2000/svg">
<path d="M125.319 63.677C125.68 63.3623 126.123 63.044 126.485 62.6506C128.198 60.7694 130.061 59.0742 132.436 58.105C135.164 56.9928 137.961 57.0107 140.686 58.055C143.297 59.0563 144.613 61.1628 144.856 63.9309C145.182 67.5967 143.569 70.3291 140.726 72.4427C138.752 73.909 136.506 74.7244 134.181 75.3789C131.602 76.1049 128.97 76.4161 126.306 76.5162C125.719 76.5377 125.133 76.5842 124.546 76.5949C124.299 76.5985 124.221 76.6879 124.146 76.9239C123.867 77.8216 123.566 78.7085 123.241 79.5919C123.148 79.8422 122.973 80.0747 122.797 80.2786C122.39 80.7614 121.9 80.7542 121.617 80.1927C121.356 79.6741 121.174 79.0876 121.088 78.5118C120.981 77.8001 121.009 77.067 120.984 76.341C120.977 76.1586 120.984 75.9726 120.984 75.6722C119.575 77.0813 118.041 77.8323 116.124 77.4747C114.253 77.1242 113.002 75.9368 112.011 74.3346C110.895 76.2444 109.39 77.5569 107.111 77.5498C104.862 77.5426 103.342 76.248 102.169 74.3847C101.972 74.6923 101.808 74.9712 101.622 75.2359C100.796 76.4196 99.6976 77.2351 98.3028 77.5426C96.697 77.8967 95.245 77.4496 93.9682 76.4232C92.906 75.572 92.2158 74.4455 91.7223 73.1866C91.6758 73.065 91.6293 72.9434 91.5613 72.7574C88.6573 75.0642 85.3063 76.2086 81.737 76.7987C82.8922 79.6884 81.0826 84.0624 78.225 86.1831C74.5163 88.9334 70.5001 89.2839 66.2871 87.8175C62.3066 86.4335 59.424 83.7298 57.8254 79.76C56.6559 76.8488 56.5701 73.8017 57.3354 70.7761C58.6408 65.6154 61.9919 62.5147 67.0381 61.2737C69.1482 60.7551 71.294 60.6657 73.4041 61.3273C73.9155 61.4883 74.4233 61.7279 74.8632 62.0355C75.7073 62.6327 75.6429 63.4124 74.6808 63.7521C73.7724 64.0704 72.8032 64.2349 71.8484 64.3995C70.3355 64.6605 68.8013 64.8572 67.4136 65.5475C64.3737 67.0603 62.3209 69.3956 61.7737 72.8933C61.0549 77.4854 63.9803 81.7592 68.4758 82.7176C70.5215 83.154 72.5422 83.154 74.5128 82.3564C75.6858 81.8808 76.6479 81.1476 77.2666 79.9853C77.9103 78.7765 77.8674 77.6392 77.0627 76.5198C76.3832 75.5756 75.4354 74.9819 74.477 74.4026C73.447 73.7767 72.3777 73.2152 71.3512 72.5822C70.9543 72.339 70.5895 72.01 70.2783 71.6595C69.5022 70.7725 69.5452 69.7282 70.4929 69.0487C71.2547 68.5051 72.138 68.1332 72.9856 67.7219C74.4984 66.9852 75.7216 67.4286 76.8124 68.6446C77.4919 69.4028 78.2179 70.1503 79.0404 70.7296C81.4831 72.4463 85.1167 72.2567 87.3519 70.3863C87.8633 69.9571 87.8705 69.8677 87.4628 69.3348C86.0322 67.468 84.0617 67.0209 81.8765 67.1533C80.7642 67.2212 79.6556 67.307 78.5433 67.375C77.3059 67.4501 75.7538 65.7656 76.3296 64.2027C76.9375 62.5612 77.9926 61.263 79.2693 60.14C81.6262 58.0693 84.3621 56.7818 87.4306 56.256C88.7968 56.0236 90.1701 56.0665 91.5148 56.4349C93.9253 57.1001 95.3094 58.7881 95.996 61.1485C96.4967 62.8723 96.2965 64.6033 96.0211 66.3307C95.8351 67.4894 95.5704 68.6339 95.6491 69.8248C95.7242 70.9871 96.3036 71.7882 97.305 71.892C99.2648 72.0958 100.781 71.284 101.064 69.0845C101.192 68.0974 101.117 67.0853 101.16 66.0875C101.2 65.1469 101.243 64.2063 101.346 63.2729C101.386 62.9296 101.564 62.5791 101.754 62.2822C102.408 61.2701 103.549 61.2701 104.229 62.2644C104.683 62.926 104.833 63.7021 104.926 64.4817C105.084 65.8193 105.187 67.164 105.366 68.5016C105.427 68.9522 105.599 69.3992 105.792 69.8177C106.418 71.1695 107.659 71.8562 109.096 71.5737C109.822 71.4306 110.334 70.8584 110.584 70.1789C110.824 69.5244 110.977 68.8127 111.02 68.1153C111.088 66.9279 111.006 65.7334 111.056 64.5461C111.081 63.9166 111.203 63.28 111.378 62.6756C111.539 62.1249 111.882 61.6313 112.501 61.5384C113.302 61.4168 113.881 61.8102 114.246 62.5219C114.708 63.4159 114.793 64.3995 114.894 65.383C115.015 66.5775 115.097 67.7863 115.348 68.9593C115.609 70.1932 116.285 71.1874 117.594 71.5093C118.974 71.8455 119.74 71.5701 120.458 70.1503C120.705 69.6603 120.805 69.038 120.795 68.4765C120.702 62.8437 120.573 57.2145 120.448 51.5817C120.423 50.5088 120.523 49.4538 121.009 48.4882C121.22 48.0733 121.521 47.6727 121.868 47.3723C122.855 46.5212 124.049 46.7 124.814 47.7657C125.244 48.3594 125.447 49.0461 125.455 49.7649C125.48 52.2612 125.487 54.7575 125.462 57.2539C125.44 59.3746 125.369 61.4919 125.319 63.6091C125.319 63.677 125.326 63.7414 125.322 63.6913M125.337 70.9263C127.962 70.9907 130.404 70.9728 132.826 70.5687C134.803 70.2397 136.67 69.5959 138.369 68.4944C139.084 68.0295 139.724 67.4751 140.146 66.7062C140.969 65.2113 140.572 63.8094 139.102 62.9832C137.654 62.1714 136.127 62.0069 134.546 62.4611C131.23 63.4088 128.752 65.5189 126.81 68.3227C126.266 69.1095 125.862 69.9893 125.337 70.9263ZM91.7723 65.6726C91.8653 65.0289 91.9619 64.4567 92.0262 63.8845C92.062 63.5697 92.0513 63.2443 92.037 62.926C91.9762 61.567 91.1608 60.8088 89.8375 60.9125C89.2867 60.9554 88.7324 61.0555 88.196 61.195C87.2983 61.4275 86.4113 61.7136 85.5208 61.9747C85.5101 62.0283 85.4994 62.0855 85.4851 62.1392C87.5522 63.3015 89.6194 64.4638 91.7688 65.6726" fill="white"/>
<path d="M24.9442 75.8148C25.0372 76.3834 25.2017 76.9234 25.2053 77.4599C25.2196 80.2602 24.1467 82.6063 22.1189 84.4696C19.2113 87.1411 15.7636 88.0495 11.9262 87.4094C7.33413 86.6404 3.84716 84.1871 1.58689 80.0706C-0.111888 76.9807 -0.315739 73.6296 0.360196 70.2177C1.0111 66.9382 2.64192 64.2273 5.385 62.3461C8.593 60.1467 12.1479 59.3563 15.9782 60.1324C16.622 60.2611 17.2264 60.608 17.8451 60.8691C17.9846 60.9299 18.1026 61.0515 18.2135 61.1624C18.7499 61.706 18.7106 62.2782 18.0275 62.5965C17.4374 62.8719 16.7936 63.0435 16.1535 63.183C14.6729 63.5013 13.1493 63.6622 11.6973 64.0771C8.21034 65.0785 4.49448 68.6727 4.82708 73.7691C5.08458 77.6924 7.80262 80.861 11.6222 81.6693C13.6536 82.0985 15.6599 82.102 17.6162 81.3188C18.9108 80.8002 19.9373 79.9741 20.5345 78.6508C21.0316 77.5565 20.9208 76.5479 20.2591 75.5644C19.5832 74.5595 18.5926 73.9443 17.5983 73.3435C16.5683 72.7176 15.499 72.1597 14.4762 71.5231C14.0577 71.262 13.6715 70.908 13.3496 70.5289C12.6522 69.6992 12.7488 68.755 13.5534 68.0254C14.2723 67.3745 15.1771 67.0741 16.039 66.6771C17.6126 65.9583 18.8715 66.3517 19.9766 67.6284C20.5488 68.2901 21.1675 68.9302 21.8542 69.4631C23.224 70.5289 24.8548 70.8257 26.5393 70.9223C28.9533 71.0618 31.0884 70.2821 33.1019 68.991C33.7921 68.5476 34.5825 68.24 35.3657 67.9861C36.1025 67.7465 36.7426 68.0505 37.204 68.6906C37.3399 68.8766 37.4758 69.0661 37.5867 69.2664C38.3127 70.5646 38.0588 71.6447 36.8106 72.4351C34.1248 74.1303 31.2529 75.3498 28.1021 75.7718C27.2045 75.8934 26.2782 75.8183 25.3626 75.8291C25.2232 75.8291 25.0837 75.8148 24.9513 75.8076" fill="white"/>
<path d="M44.0204 61.0659C44.0204 64.0128 44.0097 66.9597 44.0276 69.9067C44.0312 70.5254 44.0812 71.1584 44.1993 71.7664C44.5247 73.4294 45.5261 74.2949 47.1927 74.4129C48.9773 74.5416 50.2898 73.7227 50.9872 72.0382C51.631 70.4825 51.6631 68.8946 51.3091 67.2602C51.1338 66.4447 51.0516 65.6007 51.0015 64.7674C50.9658 64.1773 51.1124 63.5729 51.6989 63.2832C52.2962 62.99 52.7861 63.3619 53.2117 63.7267C54.0951 64.492 54.6852 65.4791 54.9892 66.5985C55.8618 69.8208 55.6437 72.9645 54.0808 75.9329C52.8076 78.3505 50.7655 79.7524 48.0832 80.0493C46.7528 80.1959 45.3938 80.1852 44.0669 79.8812C41.7924 79.359 40.462 77.8176 39.736 75.6611C39.0707 73.6869 38.9026 71.6305 38.9026 69.5669C38.9026 63.9198 38.9241 58.2727 38.967 52.6256C38.9742 51.7494 39.0779 50.8589 39.2531 50.0006C39.3461 49.5428 39.6394 49.0957 39.9291 48.7131C40.8267 47.5329 43.062 47.6473 43.67 49.2781C44.0884 50.4011 44.1814 51.567 44.185 52.7437" fill="white"/>
<path d="M20.8778 66.0017C20.2055 64.2815 19.8944 62.5612 20.4129 60.7838C21.4322 57.2968 23.3205 54.3785 26.4999 52.6368C31.4782 49.908 36.1347 53.1911 36.9394 57.5185C37.4186 60.0971 36.6497 62.4182 35.2084 64.5068C33.6169 66.81 31.3602 68.0832 28.6565 68.5767C27.3189 68.8235 25.9849 68.8449 24.6545 68.5123C23.7962 68.2977 23.1918 67.7362 22.6947 67.0496C22.3406 66.5632 22.4336 66.0339 22.9736 65.6512C23.4242 65.3293 23.9321 65.0718 24.4435 64.8573C25.9742 64.2171 27.5299 63.6306 29.057 62.9832C30.0191 62.5755 30.8452 61.9497 31.5104 61.1235C32.308 60.1293 32.3544 58.9992 32.0648 57.8261C32.0218 57.6473 31.8001 57.4935 31.632 57.3719C30.1371 56.3062 28.5742 56.3956 26.997 57.1502C24.7761 58.2088 23.4564 60.0077 22.8663 62.4039C22.6732 63.1907 22.405 63.9596 22.1296 64.7178C21.915 65.3079 21.4894 65.7263 20.885 66.0017" fill="white"/>
<path d="M94.569 86.4013C93.4854 86.344 92.6485 86.3726 91.8331 86.2439C90.5384 86.04 90.2273 85.6288 90.1808 84.4879C90.1629 84.0158 90.2058 83.5294 90.3059 83.0645C90.6564 81.3836 91.8402 80.6075 93.3816 80.2356C94.5153 79.9638 95.6562 80.0711 96.7971 80.1247C97.5231 80.1605 98.2526 80.2141 98.9786 80.2749C100.549 80.4108 102.051 80.8078 103.406 81.6483C103.764 81.87 104.089 82.1811 104.361 82.5102C105.037 83.3148 104.894 84.3591 103.953 84.8169C103.181 85.1924 102.33 85.4893 101.482 85.6073C99.1074 85.9399 96.7148 86.1616 94.5726 86.4013" fill="white"/>
<path d="M108.034 80.0927C109.05 80.0963 110.148 80.2 111.053 81.0082C111.825 81.6985 112.344 82.5067 112.312 83.6011C112.283 84.5453 111.897 85.1854 110.971 85.3678C109.787 85.6039 108.571 85.7362 107.366 85.797C106.55 85.8399 106.164 85.4787 106.003 84.6418C105.842 83.8121 105.71 82.9538 105.735 82.1098C105.778 80.6327 106.479 80.0462 108.034 80.0891" fill="white"/>
<path d="M43.8921 84.1622C43.8921 83.2324 43.8635 82.5064 44.332 81.9377C44.5752 81.6444 44.94 81.3011 45.2761 81.2689C46.3491 81.1724 47.4506 81.1223 48.4663 81.6301C49.4176 82.1058 50.1329 82.8354 50.4082 83.8868C50.7659 85.2459 50.3367 86.2973 48.9526 86.5727C47.9191 86.7765 46.8605 86.891 45.809 86.9446C44.7862 86.9983 44.4107 86.68 44.1603 85.6893C44.0173 85.1171 43.9529 84.5234 43.8921 84.1622Z" fill="white"/>
<path d="M6.55427 48.0767C6.37188 48.0088 6.26459 47.88 6.22525 47.6869C6.18949 47.4938 6.20736 47.2971 6.27888 47.0968L7.24451 44.4682C7.37326 44.1141 7.53421 43.7851 7.72375 43.4775C7.9133 43.1735 8.14218 42.9267 8.41041 42.7408C8.67864 42.5584 8.99693 42.4439 9.36888 42.4046C9.73724 42.3653 10.1628 42.4332 10.6456 42.612C11.2071 42.8195 11.6327 43.0913 11.9224 43.4274C12.2085 43.7636 12.3659 44.1427 12.3838 44.5647C12.5411 44.3859 12.7092 44.2321 12.888 44.0998C13.0633 43.971 13.26 43.8745 13.4781 43.8137C13.6963 43.7529 13.9395 43.735 14.2077 43.76C14.4795 43.7815 14.7799 43.853 15.1161 43.9782L15.4022 44.0819C15.9387 44.2786 16.3607 44.5147 16.6718 44.7865C16.983 45.0618 17.2083 45.3623 17.3513 45.6949C17.4944 46.0239 17.5516 46.3744 17.5302 46.7427C17.5087 47.1111 17.4265 47.483 17.287 47.8657L16.2248 50.7518C16.139 50.9879 16.0138 51.156 15.8528 51.2561C15.6919 51.3563 15.5417 51.3813 15.3951 51.3276L6.54711 48.0731L6.55427 48.0767ZM10.5062 47.5367L11.0677 46.0132C11.2036 45.6412 11.1964 45.3265 11.0426 45.069C10.8888 44.8115 10.6421 44.6219 10.2952 44.4932C9.94111 44.3644 9.62638 44.3573 9.351 44.4789C9.07562 44.5969 8.87176 44.8294 8.74659 45.1763L8.19226 46.6855L10.5062 47.5367ZM15.6025 47.6654C15.7563 47.247 15.7563 46.8786 15.6061 46.5639C15.4559 46.2492 15.1197 45.9917 14.6047 45.8022L14.3865 45.7199C13.8501 45.5232 13.4352 45.5017 13.1384 45.6555C12.8415 45.8093 12.6127 46.0954 12.4589 46.5103L11.8938 48.0481L15.0374 49.2033L15.6025 47.6654Z" fill="white"/>
<path d="M14.626 39.0569L15.6775 37.1185C15.7705 36.9504 15.91 36.8574 16.0924 36.8395C16.2783 36.8252 16.4536 36.8646 16.6217 36.954C16.7683 37.0326 16.8863 37.1542 16.9793 37.3116C17.0723 37.4725 17.0723 37.6442 16.9757 37.8195L15.9243 39.7578L18.4849 41.1491L20.4412 37.5405C20.5342 37.3688 20.6773 37.2794 20.874 37.2723C21.0707 37.2651 21.2674 37.3116 21.4641 37.4189C21.6357 37.5119 21.7717 37.6406 21.8789 37.8087C21.9862 37.9768 21.9898 38.1485 21.8932 38.3273L19.4291 42.8657C19.329 43.0517 19.1931 43.1947 19.0214 43.2985C18.8497 43.3986 18.6817 43.4022 18.51 43.3092L10.2378 38.8208C10.0697 38.7279 9.98033 38.5848 9.9696 38.3881C9.96245 38.1914 10.0054 37.9983 10.1091 37.8123L12.5732 33.2739C12.6698 33.0951 12.8164 33.0057 13.0167 33.0021C13.217 33.0021 13.3993 33.045 13.571 33.138C13.7641 33.2453 13.9143 33.3812 14.0145 33.5528C14.1146 33.7209 14.1182 33.8926 14.0252 34.0607L12.0689 37.6692L14.6189 39.0533L14.626 39.0569Z" fill="white"/>
<path d="M28.9498 29.1111C28.8031 29.2792 28.6386 29.408 28.4491 29.4938C28.2595 29.5797 28.0414 29.6011 27.791 29.551L21.3321 28.1348L25.7632 31.9222C25.9099 32.0474 25.9599 32.219 25.9063 32.4336C25.8526 32.6518 25.7525 32.8485 25.6023 33.0237C25.4449 33.2061 25.2661 33.3384 25.0623 33.4207C24.8584 33.5029 24.6832 33.4815 24.5365 33.3527L17.3838 27.2371C17.23 27.1048 17.1764 26.9331 17.23 26.7257C17.2837 26.5147 17.3873 26.318 17.5447 26.1356C17.6592 26.0033 17.7664 25.8996 17.863 25.8173C17.9632 25.7386 18.074 25.6814 18.1956 25.6528C18.3172 25.6242 18.4567 25.6135 18.6212 25.6242C18.7821 25.6349 18.9824 25.6671 19.2185 25.7172L25.1481 27.1012L20.717 23.3138C20.5632 23.1815 20.5131 23.0134 20.5703 22.806C20.624 22.5986 20.7313 22.4054 20.8886 22.2195C21.0388 22.0442 21.2141 21.9083 21.4143 21.8189C21.611 21.7295 21.7899 21.7474 21.9437 21.8797L29.1107 28.0025C29.2573 28.1276 29.3038 28.2993 29.2538 28.5175C29.2037 28.7356 29.1 28.9288 28.9498 29.1076" fill="white"/>
<path d="M31.4026 26.6255C31.306 26.7078 31.1952 26.7793 31.0628 26.8437C30.9305 26.9045 30.7982 26.9474 30.6658 26.9724C30.5335 26.9975 30.4083 26.9975 30.2867 26.9724C30.1651 26.951 30.0686 26.8937 29.9899 26.8079C29.9756 26.7936 29.9542 26.7507 29.9184 26.6792L26.0988 17.9349C26.0058 17.7203 26.013 17.5022 26.1239 17.2733C26.2347 17.0444 26.3921 16.8441 26.5959 16.6653C26.807 16.4829 27.0358 16.3542 27.279 16.2791C27.5186 16.204 27.7404 16.229 27.9371 16.3542L36.0018 21.4505C36.0662 21.497 36.1055 21.5256 36.1198 21.5399C36.1949 21.6293 36.2343 21.733 36.2343 21.8511C36.2343 21.9726 36.2164 22.0978 36.177 22.2266C36.1377 22.3589 36.0733 22.4841 35.9946 22.6021C35.9124 22.7237 35.8266 22.8238 35.73 22.9061C35.6048 23.0134 35.4832 23.0813 35.3581 23.1099C35.2365 23.1385 35.1149 23.1135 34.9968 23.0348L33.3231 21.9297L30.8053 24.0934L31.6422 25.9138C31.6994 26.0426 31.7066 26.1642 31.6601 26.2786C31.6136 26.3966 31.5277 26.5075 31.4026 26.6148M32.0499 21.0786L28.191 18.525L30.133 22.7237L32.0463 21.0786H32.0499Z" fill="white"/>
<path d="M36.3531 9.68788C36.5247 9.57702 36.6964 9.56986 36.8752 9.66643C37.0541 9.76299 37.2007 9.89531 37.3115 10.067C37.4331 10.253 37.4975 10.4461 37.5082 10.6464C37.519 10.8466 37.4439 11.0004 37.2794 11.1077L35.5091 12.2665L40.0582 19.2189C40.1655 19.3799 40.1619 19.5587 40.0511 19.7518C39.9402 19.9449 39.79 20.1059 39.5933 20.231C39.3894 20.3634 39.182 20.442 38.9638 20.4599C38.7457 20.4814 38.5847 20.4099 38.481 20.2489L33.9283 13.2964L32.1473 14.4623C31.9863 14.5696 31.8147 14.5768 31.6394 14.491C31.4642 14.4051 31.3104 14.2656 31.1816 14.0725C31.0708 13.9009 31.0064 13.7149 30.9885 13.5146C30.9706 13.3143 31.0493 13.157 31.2174 13.0425L36.3495 9.68431L36.3531 9.68788Z" fill="white"/>
<path d="M44.268 6.35425C44.1822 6.17185 44.2108 5.99661 44.3467 5.8321C44.4826 5.66758 44.6614 5.53526 44.8832 5.43154C45.0942 5.33498 45.3088 5.28491 45.5269 5.28491C45.7451 5.28491 45.8988 5.3779 45.9811 5.56029L48.8243 11.7224C49.0782 12.2767 49.2142 12.781 49.2285 13.2388C49.2428 13.6965 49.1605 14.1078 48.9853 14.4762C48.81 14.8446 48.5525 15.1736 48.2163 15.4597C47.8802 15.7494 47.4939 15.9926 47.054 16.1964C46.607 16.4039 46.1671 16.5398 45.7343 16.6041C45.3016 16.6721 44.8903 16.6506 44.4933 16.5469C44.0999 16.4396 43.7316 16.2358 43.3954 15.9282C43.0556 15.6206 42.7588 15.1915 42.5049 14.6371L39.6617 8.47504C39.5758 8.28907 39.6009 8.1174 39.7404 7.95289C39.8763 7.78837 40.0551 7.65605 40.2768 7.55591C40.4878 7.45935 40.7024 7.40928 40.9205 7.40928C41.1387 7.40928 41.2925 7.50226 41.3747 7.68466L44.218 13.8468C44.4576 14.3653 44.7616 14.6872 45.1299 14.8159C45.4983 14.9447 45.9096 14.9018 46.3674 14.6908C46.8251 14.4798 47.122 14.1937 47.265 13.8289C47.4045 13.4641 47.358 13.0242 47.1184 12.5056L44.2752 6.34352L44.268 6.35425Z" fill="white"/>
<path d="M49.346 4.33394C49.3031 4.18374 49.3174 4.04068 49.3961 3.89763C49.4712 3.75457 49.5964 3.65801 49.7716 3.60794L52.5325 2.81756C52.9867 2.68524 53.4302 2.61371 53.8558 2.59583C54.2814 2.57794 54.6784 2.63874 55.0468 2.77465C55.4115 2.91055 55.7334 3.13944 56.0124 3.46131C56.2913 3.78318 56.5095 4.22308 56.6704 4.78099C56.8993 5.57852 56.9029 6.25446 56.6847 6.80522C56.4666 7.35598 56.1197 7.78514 55.644 8.09271L58.4443 10.9574C58.4836 10.986 58.5123 11.0218 58.5337 11.0611C58.5552 11.1004 58.5695 11.1326 58.5766 11.1612C58.6088 11.2721 58.6052 11.3973 58.5695 11.5332C58.5337 11.6691 58.4729 11.7978 58.3942 11.9159C58.312 12.0339 58.2118 12.1412 58.0938 12.2342C57.9758 12.3307 57.8506 12.3951 57.7183 12.4309C57.586 12.4666 57.4608 12.463 57.332 12.4201C57.2033 12.3772 57.0817 12.295 56.9673 12.1769L53.8844 8.8974L52.7149 9.23358L53.7592 12.8707C53.8129 13.0567 53.7592 13.2248 53.6019 13.375C53.4445 13.5252 53.2478 13.6325 53.0154 13.7005C52.7936 13.7648 52.5719 13.7756 52.3537 13.7327C52.1356 13.6897 51.9997 13.5753 51.946 13.3893L49.346 4.32679V4.33394ZM51.4525 4.84537L52.3037 7.81376L53.8379 7.37386C54.2921 7.24511 54.6247 7.03053 54.8322 6.73369C55.0396 6.43685 55.0646 6.01484 54.9073 5.46766C54.7499 4.92047 54.5031 4.57356 54.1705 4.42693C53.8379 4.2803 53.441 4.27315 52.9868 4.40547L51.4525 4.84537Z" fill="white"/>
<path d="M60.8836 11.6805C60.7584 11.6984 60.6225 11.6948 60.4795 11.6733C60.3364 11.6519 60.2041 11.6161 60.0789 11.566C59.9573 11.5124 59.85 11.4444 59.7606 11.3586C59.6712 11.2728 59.6211 11.1726 59.6068 11.0582C59.6068 11.0403 59.6068 10.9902 59.6176 10.9116L61.2305 1.50927C61.2698 1.28039 61.3986 1.10157 61.6132 0.969241C61.8313 0.836916 62.0745 0.758235 62.3428 0.722472C62.6217 0.686708 62.8828 0.70459 63.126 0.776117C63.3692 0.847645 63.5373 0.987123 63.6338 1.20171L67.5714 9.89229C67.6 9.9674 67.6179 10.0139 67.6179 10.0318C67.6322 10.1462 67.6072 10.2571 67.5428 10.3572C67.4784 10.4574 67.3926 10.5539 67.2853 10.6398C67.178 10.7256 67.06 10.7971 66.9241 10.8543C66.7882 10.9116 66.6594 10.9473 66.5343 10.9616C66.3698 10.9831 66.2303 10.9724 66.1123 10.9294C65.9942 10.8865 65.9084 10.8007 65.8512 10.6719L65.0608 8.83011L61.767 9.25212L61.4666 11.2334C61.4451 11.3729 61.3843 11.4766 61.2806 11.5482C61.1769 11.6197 61.0445 11.6662 60.8836 11.6876M64.4707 7.40314L62.6503 3.14725L61.9672 7.72501L64.4707 7.40314Z" fill="white"/>
<path d="M69.9356 10.8324C69.721 10.8324 69.5315 10.7752 69.3634 10.6715C69.1953 10.5677 69.113 10.4211 69.1166 10.2244L69.2346 0.800661C69.2346 0.596808 69.3348 0.450177 69.5315 0.360767C69.7246 0.271358 69.9427 0.228441 70.1859 0.232018C70.4184 0.232018 70.633 0.285663 70.8297 0.378649C71.0264 0.475211 71.123 0.621843 71.123 0.825696L71.0192 9.19441L74.5563 9.23733C74.7494 9.23733 74.8889 9.32674 74.9819 9.49483C75.0713 9.66649 75.1142 9.85604 75.1142 10.0706C75.1142 10.2745 75.0641 10.4604 74.9676 10.6357C74.8746 10.8074 74.7315 10.8932 74.5348 10.8896L69.9392 10.8324H69.9356Z" fill="white"/>
<path d="M80.9001 9.78116C81.1576 9.82407 81.365 9.9564 81.526 10.1781C81.6833 10.3999 81.7406 10.6431 81.6976 10.9113C81.6547 11.1688 81.5224 11.3798 81.2971 11.5443C81.0754 11.7088 80.8322 11.7696 80.5747 11.7267C80.2993 11.6802 80.0847 11.5443 79.9309 11.319C79.7771 11.0937 79.7199 10.8505 79.7664 10.593C79.8093 10.3248 79.9417 10.1138 80.1598 9.95282C80.378 9.79189 80.6247 9.73824 80.9001 9.78116Z" fill="white"/>
<path d="M89.9084 3.42889C89.9692 3.2465 90.098 3.13205 90.2911 3.09271C90.4842 3.05337 90.681 3.0641 90.8812 3.13205L93.5313 4.0333C93.889 4.1549 94.2215 4.3051 94.5327 4.4875C94.8438 4.66989 95.0942 4.89163 95.2873 5.15628C95.4769 5.42093 95.5984 5.73923 95.6449 6.10402C95.6914 6.47239 95.6342 6.90155 95.4697 7.38436C95.2766 7.953 95.0155 8.38217 94.6829 8.67901C94.3539 8.97585 93.9784 9.13678 93.5599 9.16897C93.7423 9.32276 93.9032 9.48727 94.0356 9.65894C94.1715 9.8306 94.2716 10.0273 94.336 10.2419C94.4004 10.46 94.4254 10.7032 94.4075 10.9715C94.3932 11.2433 94.3253 11.5473 94.2108 11.8834L94.1143 12.1695C93.9283 12.7096 93.703 13.1387 93.4383 13.457C93.1737 13.7753 92.8768 14.0078 92.5478 14.158C92.2188 14.3082 91.8719 14.3762 91.5071 14.3619C91.1387 14.3476 90.7632 14.276 90.3769 14.1473L87.4658 13.1566C87.2262 13.0744 87.0545 12.9564 86.9508 12.799C86.8471 12.6416 86.8185 12.4878 86.8685 12.3412L89.9049 3.41816L89.9084 3.42889ZM90.5379 12.47C90.9599 12.613 91.3247 12.6059 91.6394 12.4485C91.9541 12.2911 92.2009 11.9478 92.3762 11.4292L92.4512 11.2075C92.6336 10.6675 92.648 10.249 92.487 9.95577C92.3261 9.66251 92.0364 9.44435 91.6144 9.3013L90.0622 8.77199L88.9822 11.9442L90.5343 12.4735L90.5379 12.47ZM90.5415 7.37006L92.0793 7.89221C92.4548 8.02096 92.7696 8.00665 93.0235 7.84571C93.2774 7.68835 93.4634 7.43443 93.5814 7.08752C93.703 6.72988 93.6994 6.41516 93.5742 6.14336C93.4455 5.87156 93.2094 5.67485 92.8625 5.55683L91.339 5.03826L90.5451 7.37363L90.5415 7.37006Z" fill="white"/>
<path d="M99.1217 11.2832L101.085 12.2881C101.257 12.3776 101.353 12.5135 101.375 12.6959C101.393 12.8782 101.36 13.0571 101.271 13.2287C101.196 13.3754 101.078 13.497 100.921 13.5935C100.763 13.6901 100.592 13.6937 100.413 13.6007L98.4493 12.5957L97.1225 15.1922L100.778 17.059C100.949 17.1484 101.042 17.2915 101.056 17.4882C101.071 17.6849 101.024 17.8816 100.924 18.0819C100.835 18.2535 100.71 18.3966 100.545 18.5075C100.381 18.6183 100.209 18.6255 100.026 18.5361L95.4308 16.1864C95.2413 16.0898 95.0947 15.9575 94.991 15.7894C94.8872 15.6213 94.8765 15.4532 94.9659 15.2816L99.254 6.90213C99.3434 6.73046 99.4829 6.63748 99.6796 6.62317C99.8763 6.60887 100.069 6.65178 100.259 6.74835L104.855 9.09802C105.033 9.19101 105.13 9.33764 105.137 9.53434C105.144 9.73104 105.105 9.91701 105.016 10.0923C104.915 10.289 104.779 10.4427 104.611 10.5465C104.443 10.6502 104.275 10.6573 104.104 10.5715L100.449 8.70105L99.1288 11.2832H99.1217Z" fill="white"/>
<path d="M106.743 23.1246C106.561 22.9958 106.421 22.8385 106.318 22.6597C106.214 22.4808 106.178 22.2627 106.207 22.0088L107.072 15.4533L103.671 20.1884C103.56 20.3457 103.392 20.4065 103.17 20.3744C102.952 20.3422 102.748 20.2563 102.559 20.1204C102.362 19.981 102.216 19.8129 102.119 19.6162C102.019 19.4195 102.026 19.2442 102.14 19.0869L107.63 11.4406C107.748 11.2761 107.913 11.2117 108.127 11.2439C108.342 11.2796 108.546 11.3655 108.742 11.5085C108.885 11.6087 109 11.7052 109.086 11.8018C109.172 11.8948 109.236 11.9985 109.279 12.1165C109.318 12.2345 109.34 12.3776 109.343 12.5385C109.343 12.703 109.333 12.9033 109.3 13.1429L108.421 19.1691L111.822 14.434C111.94 14.2695 112.104 14.2051 112.315 14.2444C112.526 14.2838 112.73 14.3732 112.927 14.5127C113.116 14.6486 113.263 14.8095 113.37 15.0026C113.478 15.1922 113.474 15.371 113.352 15.5355L107.855 23.1925C107.741 23.3499 107.577 23.4107 107.355 23.3785C107.133 23.3463 106.929 23.2605 106.743 23.1246Z" fill="white"/>
<path d="M118.835 20.5462C118.982 20.4067 119.153 20.3709 119.354 20.446C119.554 20.5211 119.74 20.6463 119.908 20.818C120.069 20.9825 120.187 21.1685 120.259 21.3759C120.33 21.5833 120.294 21.755 120.148 21.898L113.399 28.4786C113.26 28.6145 113.084 28.6467 112.873 28.5751C112.662 28.5036 112.476 28.3856 112.315 28.2211C112.147 28.0458 112.033 27.8563 111.968 27.6489C111.908 27.4378 111.943 27.2662 112.083 27.1339L118.832 20.5533L118.835 20.5462Z" fill="white"/>
<path d="M123.398 29.6334C123.484 29.5547 123.581 29.4545 123.688 29.3329C123.795 29.2113 123.881 29.0647 123.938 28.8895C123.995 28.7142 124.01 28.5175 123.974 28.2994C123.938 28.0812 123.813 27.8344 123.598 27.5626C123.294 27.1764 122.955 26.9618 122.579 26.9225C122.204 26.8831 121.792 27.0405 121.345 27.391L118.159 29.8873C117.708 30.2378 117.461 30.6026 117.411 30.9781C117.361 31.3536 117.494 31.7398 117.801 32.1368C118.005 32.3943 118.205 32.5696 118.409 32.6554C118.613 32.7412 118.806 32.7734 118.985 32.7555C119.167 32.7376 119.339 32.684 119.5 32.6017C119.661 32.5195 119.808 32.4337 119.933 32.3442C120.119 32.2226 120.301 32.2048 120.476 32.287C120.652 32.3693 120.816 32.5123 120.973 32.709C121.177 32.9665 121.274 33.199 121.27 33.3957C121.27 33.596 121.12 33.807 120.83 34.0359C120.487 34.3041 120.126 34.4829 119.74 34.5688C119.353 34.6546 118.967 34.6546 118.584 34.5616C118.202 34.4686 117.823 34.3005 117.454 34.0466C117.086 33.7963 116.746 33.4708 116.435 33.0774C116.156 32.7198 115.938 32.3442 115.781 31.9473C115.627 31.5539 115.559 31.1569 115.573 30.7563C115.591 30.3558 115.713 29.9588 115.934 29.5618C116.156 29.1649 116.51 28.7822 116.989 28.4031L120.172 25.9068C120.652 25.5313 121.113 25.2845 121.553 25.1665C121.993 25.0484 122.411 25.027 122.805 25.1057C123.198 25.1843 123.566 25.3453 123.913 25.5921C124.26 25.8352 124.571 26.1392 124.854 26.4969C125.165 26.8939 125.397 27.298 125.558 27.7128C125.719 28.1277 125.798 28.5283 125.802 28.9145C125.802 29.3008 125.719 29.6655 125.555 30.0089C125.39 30.3522 125.143 30.6562 124.814 30.9101C124.518 31.1426 124.274 31.2356 124.085 31.1891C123.895 31.1426 123.702 30.9924 123.502 30.742C123.334 30.5274 123.234 30.3272 123.194 30.1376C123.155 29.9481 123.223 29.78 123.391 29.6334" fill="white"/>
<path d="M125.723 35.767L126.824 37.6767C126.921 37.8448 126.924 38.0093 126.842 38.1739C126.76 38.3384 126.635 38.4707 126.467 38.5673C126.324 38.6495 126.159 38.6889 125.973 38.6853C125.787 38.6817 125.644 38.5923 125.54 38.4135L124.439 36.5037L121.914 37.9593L123.963 41.5142C124.06 41.6823 124.06 41.8504 123.963 42.0256C123.867 42.1973 123.724 42.3403 123.53 42.4512C123.362 42.5478 123.18 42.5978 122.98 42.6014C122.779 42.605 122.633 42.5191 122.529 42.3403L119.951 37.8663C119.843 37.6839 119.793 37.4908 119.797 37.2941C119.797 37.0974 119.886 36.9507 120.054 36.8542L128.208 32.1548C128.377 32.0583 128.545 32.0583 128.72 32.1548C128.891 32.2514 129.031 32.3909 129.138 32.5768L131.717 37.0509C131.817 37.2261 131.817 37.4014 131.717 37.5694C131.613 37.7411 131.481 37.8734 131.313 37.97C131.12 38.0809 130.923 38.1345 130.726 38.1309C130.529 38.1274 130.383 38.0415 130.286 37.8734L128.237 34.3185L125.723 35.767Z" fill="white"/>
<path d="M18.661 95.8463C18.6467 96.0931 18.6324 96.3184 18.6181 96.5187C18.6038 96.719 18.5895 96.9443 18.5716 97.1982C18.5537 97.4521 18.5394 97.7132 18.5215 97.9743C18.475 98.6001 18.425 99.3118 18.3677 100.106C18.3499 100.41 18.2998 100.678 18.2068 100.907C18.1174 101.136 18.0137 101.34 17.8921 101.518C17.7705 101.694 17.6382 101.844 17.4879 101.965C17.3377 102.087 17.1911 102.187 17.0516 102.266L16.6654 102.48C16.39 102.634 16.0753 102.749 15.7176 102.82C15.36 102.895 14.9916 102.899 14.6161 102.827C14.2406 102.759 13.8722 102.606 13.5146 102.37C13.157 102.13 12.8458 101.772 12.574 101.286L12.4274 101.025C12.177 100.574 12.0483 100.142 12.0376 99.7267C12.0304 99.3118 12.0948 98.9256 12.2343 98.5679C12.3737 98.2103 12.5669 97.8992 12.8172 97.6309C13.064 97.3627 13.3215 97.1517 13.5897 97.0015L13.9509 96.7976C14.4123 96.5509 14.8772 96.4436 15.335 96.4758C15.7927 96.5079 16.1754 96.6188 16.4794 96.8119C16.5044 96.8191 16.5259 96.8298 16.5331 96.8477L16.5796 96.8727L16.6725 95.689L18.6574 95.8427L18.661 95.8463ZM15.5603 98.5429C15.5174 98.525 15.4566 98.5 15.3743 98.475C15.2956 98.4499 15.1991 98.4678 15.0918 98.5286L14.5661 98.8219C14.541 98.8362 14.5053 98.8684 14.4552 98.9184C14.4051 98.9685 14.3658 99.0293 14.3336 99.108C14.3014 99.1867 14.2835 99.2725 14.2799 99.3655C14.2799 99.4585 14.3085 99.555 14.3729 99.648L14.7985 100.41C14.8665 100.535 14.9451 100.624 15.0274 100.674C15.1097 100.728 15.1883 100.757 15.2599 100.767C15.3314 100.778 15.3922 100.775 15.4458 100.764C15.4995 100.75 15.5317 100.739 15.5496 100.732L16.0753 100.438C16.1182 100.413 16.1683 100.37 16.2362 100.299C16.3006 100.231 16.3364 100.12 16.3364 99.9627C16.3364 99.8876 16.3364 99.7839 16.3364 99.6587C16.3364 99.5336 16.3399 99.4084 16.3471 99.2832C16.3578 99.1473 16.3685 98.9971 16.3793 98.8397L15.5603 98.5429Z" fill="white"/>
<path d="M21.2606 109.612L21.4966 109.934C21.5253 109.973 21.5324 110.023 21.5181 110.087C21.5038 110.152 21.4752 110.198 21.4287 110.234L19.8122 111.414C19.7728 111.443 19.7263 111.454 19.6691 111.446C19.6119 111.443 19.569 111.414 19.5332 111.368L19.408 111.192C19.1791 110.878 19.0397 110.556 18.9896 110.23C18.9431 109.905 18.936 109.605 18.9717 109.333C18.5926 109.279 18.2636 109.161 17.9882 108.972C17.7128 108.782 17.4768 108.55 17.2729 108.271L16.2108 106.815C16.0355 106.575 15.9175 106.314 15.8531 106.032C15.7887 105.749 15.7744 105.47 15.8138 105.191C15.8531 104.916 15.9461 104.651 16.0963 104.401C16.2429 104.151 16.4361 103.94 16.6757 103.764L18.4067 102.498L19.4188 103.882L18.0776 104.862C17.9525 104.952 17.9382 105.063 18.0347 105.195L19.2507 106.858C19.3687 107.019 19.5261 107.123 19.7192 107.173C19.9123 107.219 20.0804 107.155 20.227 106.979L23.0345 103.425L24.769 104.587L21.2713 109.039C21.2034 109.125 21.1712 109.222 21.1712 109.326C21.1712 109.433 21.2034 109.526 21.2642 109.612" fill="white"/>
<path d="M21.8114 110.084L22.9737 111.425C23.0631 111.525 23.0524 111.622 22.9522 111.707L21.4072 113.048C21.3643 113.084 21.3142 113.102 21.257 113.095C21.1998 113.088 21.1569 113.066 21.1247 113.031L19.9624 111.689C19.9302 111.654 19.9159 111.607 19.9195 111.55C19.9195 111.493 19.9409 111.446 19.9838 111.407L21.5288 110.066C21.629 109.98 21.7255 109.984 21.8114 110.087" fill="white"/>
<path d="M23.0489 111.511L24.2506 112.817C24.34 112.917 24.3364 113.01 24.2399 113.099L22.7342 114.483C22.6913 114.523 22.6412 114.54 22.584 114.533C22.5268 114.526 22.4803 114.508 22.4517 114.472L21.25 113.167C21.2178 113.131 21.2035 113.085 21.2 113.028C21.2 112.97 21.2214 112.924 21.2607 112.885L22.7664 111.501C22.863 111.411 22.9595 111.415 23.0489 111.511Z" fill="white"/>
<path d="M27.8199 118.878L25.5883 117.265C25.1198 116.929 24.6656 116.582 24.2328 116.221C23.7965 115.864 23.3817 115.495 22.9847 115.123L22.6914 114.848C22.6557 114.816 22.6342 114.773 22.627 114.719C22.6163 114.665 22.6378 114.615 22.6843 114.565L24.0683 113.099C24.1077 113.056 24.1541 113.031 24.2078 113.024C24.2614 113.017 24.3115 113.035 24.3616 113.081L24.9553 113.639C24.9553 113.585 24.9767 113.517 25.0196 113.435C25.0626 113.353 25.1126 113.271 25.1627 113.188L25.928 112.044C26.139 111.722 26.4073 111.468 26.7327 111.286C27.0546 111.103 27.3908 110.996 27.7413 110.957C28.0917 110.921 28.4422 110.957 28.7963 111.068C29.1504 111.178 29.4686 111.368 29.7548 111.636L31.804 113.567L30.2733 115.191L28.1704 113.21C28.0882 113.131 27.9916 113.103 27.8807 113.12C27.7699 113.138 27.684 113.199 27.6197 113.296L26.4967 115.009L29.1253 116.976L27.8271 118.875L27.8199 118.878Z" fill="white"/>
<path d="M30.3831 121.628C30.072 121.392 29.8324 121.11 29.6643 120.774C29.4962 120.438 29.4068 120.091 29.3961 119.729C29.3818 119.368 29.4426 119.014 29.5785 118.667C29.7144 118.32 29.9218 118.016 30.2043 117.752L31.2021 116.854C31.4274 116.654 31.6706 116.496 31.9389 116.389C32.2071 116.282 32.4825 116.217 32.765 116.207C33.0476 116.192 33.3336 116.228 33.6162 116.31C33.8987 116.393 34.1634 116.525 34.4066 116.711L35.036 117.183C35.3257 117.401 35.5582 117.662 35.7298 117.963C35.9015 118.267 36.0124 118.585 36.0588 118.918C36.1053 119.25 36.0875 119.59 36.0088 119.937C35.9265 120.28 35.7763 120.598 35.5617 120.888L34.7964 121.904L35.197 122.204C35.3042 122.287 35.3186 122.376 35.2434 122.472L34.0132 124.107C33.9345 124.214 33.8379 124.228 33.7342 124.146L33.3229 123.835C32.8401 124.368 32.25 124.701 31.5526 124.84C30.8588 124.98 30.165 124.937 29.4712 124.715L27.2002 123.971L27.8546 122.083L30.1257 122.827C30.4332 122.927 30.73 122.959 31.0233 122.92C31.313 122.88 31.5598 122.73 31.76 122.462L31.8209 122.383C31.6671 122.365 31.499 122.315 31.313 122.236C31.127 122.158 30.9589 122.061 30.8087 121.943L30.3867 121.625L30.3831 121.628ZM31.617 119.515L33.1477 120.666L33.9094 119.629C33.9488 119.576 33.9631 119.515 33.9559 119.45C33.9488 119.383 33.9166 119.325 33.8701 119.279L32.7972 118.471C32.7114 118.395 32.6076 118.399 32.4825 118.485L31.6027 119.272C31.5598 119.297 31.5419 119.34 31.549 119.393C31.5562 119.447 31.5812 119.486 31.617 119.515Z" fill="white"/>
<path d="M37.0213 123.27C37.1179 123.331 37.2216 123.345 37.3289 123.317C37.4361 123.288 37.5184 123.227 37.572 123.138L39.278 120.341L41.0376 121.414L39.3388 124.2C39.1349 124.533 38.881 124.812 38.5735 125.03C38.2659 125.251 37.9368 125.402 37.5828 125.491C37.2287 125.577 36.8639 125.591 36.4884 125.538C36.1129 125.484 35.7624 125.355 35.4262 125.151L34.2639 124.443C34.2138 124.415 34.1852 124.372 34.1745 124.314C34.1638 124.257 34.1745 124.211 34.196 124.168L35.2367 122.458C35.2653 122.408 35.3082 122.376 35.369 122.355C35.4262 122.333 35.4799 122.337 35.5264 122.369L37.0177 123.277L37.0213 123.27ZM39.8395 119.558L41.4274 120.527L42.4324 118.878L40.8444 117.909L39.8395 119.558Z" fill="white"/>
<path d="M41.7496 128.463C41.6888 128.581 41.5994 128.61 41.4814 128.545L41.2275 128.413C40.8877 128.234 40.6016 128.002 40.3691 127.712C40.1331 127.422 39.965 127.107 39.8613 126.775C39.7576 126.439 39.7182 126.085 39.7504 125.713C39.779 125.341 39.8827 124.987 40.0616 124.647L43.4734 118.167L45.3081 119.132L41.9141 125.577C41.8605 125.677 41.8498 125.781 41.8819 125.884C41.9141 125.988 41.9785 126.067 42.0822 126.12L42.6151 126.399C42.6652 126.424 42.6974 126.467 42.7117 126.524C42.726 126.578 42.7188 126.632 42.6902 126.682L41.7496 128.466V128.463Z" fill="white"/>
<path d="M42.0501 130.723L43.756 131.463L42.9907 133.237L41.2847 132.497L42.0501 130.723ZM47.2251 130.873C47.2072 130.916 47.1679 130.952 47.1107 130.973C47.0534 130.995 46.9998 130.995 46.9461 130.973L45.8947 130.519C45.6229 130.401 45.3904 130.24 45.1973 130.036C45.0042 129.833 44.8611 129.561 44.7717 129.221C44.4355 129.375 44.1136 129.45 43.8132 129.436C43.5128 129.425 43.2195 129.357 42.9406 129.239L41.8891 128.785C41.8462 128.767 41.814 128.727 41.789 128.67C41.7676 128.613 41.764 128.563 41.7854 128.52L42.5865 126.667C42.608 126.614 42.6473 126.578 42.7046 126.557C42.7618 126.535 42.8118 126.532 42.8548 126.553L44.128 127.104C44.2317 127.15 44.3425 127.157 44.4606 127.129C44.575 127.1 44.668 127.032 44.7359 126.929L46.399 124.529L48.1156 125.677L46.7316 127.68C46.6457 127.808 46.6135 127.926 46.6386 128.037C46.6636 128.148 46.7387 128.227 46.8603 128.28L47.9118 128.735C47.9654 128.756 48.0012 128.799 48.0226 128.86C48.0441 128.921 48.0441 128.974 48.0226 129.017L47.2215 130.87L47.2251 130.873ZM43.7596 131.463L45.4655 132.204L44.7002 133.978L42.9942 133.237L43.7596 131.463Z" fill="white"/>
<path d="M49.264 128.835L49.9793 127.498C50.1223 127.233 50.3011 127 50.5157 126.804C50.7303 126.607 50.9735 126.453 51.2417 126.346C51.51 126.239 51.7889 126.178 52.0857 126.167C52.379 126.153 52.6687 126.189 52.9512 126.278L53.7166 126.514C54.0635 126.621 54.3675 126.789 54.6321 127.015C54.8968 127.24 55.1078 127.505 55.2616 127.802C55.4189 128.098 55.5155 128.424 55.5513 128.774C55.587 129.125 55.5513 129.472 55.444 129.819L54.9719 131.335C54.8896 131.6 54.7573 131.836 54.5713 132.05C54.3854 132.261 54.1708 132.433 53.924 132.562C53.6772 132.69 53.4197 132.773 53.1444 132.805C52.869 132.841 52.5972 132.816 52.3218 132.73L50.8197 132.265C50.5658 132.186 50.3262 132.061 50.1044 131.893C49.8827 131.725 49.7039 131.46 49.5644 131.095C49.264 131.292 48.9707 131.403 48.6811 131.428C48.3914 131.453 48.1088 131.424 47.8263 131.335L47.5509 131.249C47.508 131.235 47.4687 131.203 47.44 131.156C47.4114 131.106 47.4043 131.056 47.4222 130.999L48.0302 129.046C48.0659 128.928 48.1482 128.889 48.2769 128.928L48.6846 129.057C48.8026 129.093 48.9135 129.089 49.0101 129.046C49.1066 129.003 49.1925 128.932 49.264 128.832M51.2811 129.865L53.0979 130.43L53.4805 129.2C53.4913 129.136 53.4805 129.068 53.4591 129.007C53.4341 128.942 53.384 128.899 53.3124 128.878L52.0428 128.485C51.9785 128.467 51.9177 128.47 51.864 128.499C51.8104 128.528 51.7675 128.56 51.7353 128.603L51.1881 129.643C51.1559 129.683 51.1487 129.726 51.1702 129.772C51.1917 129.819 51.2274 129.851 51.2811 129.869" fill="white"/>
<path d="M57.594 131.805L57.1816 133.954L59.289 134.358L59.7014 132.209L57.594 131.805Z" fill="white"/>
<path d="M64.7495 127.275C64.9498 127.426 65.125 127.562 65.2824 127.683C65.4397 127.805 65.6186 127.944 65.8224 128.102C66.0263 128.255 66.2301 128.416 66.4375 128.574C66.9311 128.96 67.4962 129.396 68.1256 129.89C68.3688 130.072 68.5619 130.265 68.705 130.466C68.8445 130.669 68.9553 130.87 69.034 131.066C69.1127 131.263 69.1627 131.46 69.1806 131.653C69.1985 131.846 69.2021 132.025 69.1878 132.186L69.152 132.629C69.127 132.944 69.0447 133.269 68.9088 133.606C68.7694 133.945 68.5691 134.249 68.3008 134.525C68.0362 134.8 67.7036 135.018 67.3066 135.183C66.9132 135.347 66.4376 135.405 65.8868 135.362L65.5864 135.337C65.0714 135.294 64.6422 135.161 64.2917 134.936C63.9412 134.711 63.6551 134.443 63.437 134.128C63.2188 133.813 63.0686 133.477 62.9792 133.123C62.8934 132.769 62.8648 132.436 62.8898 132.132L62.922 131.717C62.9756 131.195 63.1401 130.752 63.4262 130.387C63.7088 130.022 64.0163 129.768 64.3418 129.622C64.3633 129.604 64.3811 129.597 64.4026 129.597L64.4455 129.571L63.5157 128.835L64.7459 127.268L64.7495 127.275ZM65.2645 131.349C65.2216 131.374 65.1715 131.413 65.1036 131.463C65.0392 131.517 64.9998 131.603 64.9891 131.728L64.939 132.325C64.939 132.354 64.9426 132.4 64.9569 132.472C64.9712 132.54 64.9998 132.608 65.0463 132.679C65.0928 132.751 65.1536 132.812 65.2323 132.865C65.3074 132.919 65.404 132.948 65.5184 132.944L66.3875 133.016C66.5305 133.026 66.645 133.016 66.7344 132.973C66.8238 132.93 66.8918 132.883 66.9382 132.83C66.9847 132.776 67.0169 132.722 67.0384 132.672C67.0563 132.622 67.067 132.586 67.067 132.568L67.1171 131.971C67.1206 131.925 67.1135 131.853 67.092 131.76C67.0706 131.667 66.9955 131.578 66.8703 131.492C66.8059 131.449 66.7237 131.392 66.6199 131.32C66.5162 131.249 66.4125 131.177 66.316 131.102C66.2087 131.016 66.0906 130.927 65.9655 130.83L65.2645 131.349Z" fill="white"/>
<path d="M72.6925 135.398C72.3027 135.408 71.9379 135.337 71.5981 135.183C71.2584 135.026 70.9723 134.811 70.7327 134.539C70.493 134.264 70.3178 133.953 70.2069 133.599C70.0961 133.245 70.0674 132.876 70.1211 132.494L70.3357 131.17C70.3822 130.874 70.4752 130.598 70.6146 130.344C70.7541 130.094 70.9329 129.872 71.1439 129.683C71.3585 129.493 71.6017 129.343 71.8735 129.228C72.1453 129.114 72.435 129.053 72.7426 129.042L73.5294 129.017C73.8906 129.007 74.2339 129.064 74.5594 129.193C74.8848 129.321 75.1674 129.5 75.4141 129.729C75.6609 129.962 75.8576 130.233 76.0114 130.555C76.1652 130.874 76.2474 131.217 76.2582 131.578L76.3011 132.851L76.8018 132.837C76.9341 132.833 77.0056 132.894 77.0092 133.016L77.0771 135.061C77.0807 135.194 77.0163 135.265 76.884 135.269L76.369 135.287C76.3261 136.002 76.0758 136.635 75.6216 137.179C75.1674 137.722 74.5987 138.126 73.9192 138.387L71.6875 139.232L71.0116 137.35L73.2468 136.506C73.5473 136.392 73.8012 136.227 74.005 136.016C74.2089 135.805 74.3055 135.534 74.2912 135.197V135.097C74.1588 135.179 73.9943 135.244 73.8012 135.297C73.6081 135.351 73.4149 135.383 73.2254 135.387L72.6961 135.405L72.6925 135.398ZM72.3277 132.973L74.2447 132.912L74.1874 131.625C74.1874 131.557 74.1588 131.503 74.1088 131.456C74.0587 131.41 74.0015 131.385 73.9335 131.378L72.5924 131.421C72.4779 131.414 72.3992 131.485 72.3563 131.628L72.1668 132.794C72.1489 132.841 72.1596 132.883 72.199 132.923C72.2383 132.959 72.2812 132.976 72.3313 132.976" fill="white"/>
<path d="M77.0878 132.694L78.8509 132.504C78.9833 132.49 79.0584 132.55 79.0727 132.683L79.2908 134.718C79.298 134.775 79.2801 134.825 79.2443 134.868C79.205 134.911 79.1621 134.936 79.1156 134.94L77.3524 135.129C77.3059 135.136 77.2559 135.122 77.213 135.086C77.1665 135.054 77.1379 135.007 77.1343 134.95L76.9161 132.915C76.9018 132.783 76.9626 132.711 77.0949 132.694" fill="white"/>
<path d="M78.965 132.49L80.721 132.247C80.8534 132.229 80.9285 132.286 80.9463 132.418L81.2253 134.446C81.2325 134.503 81.2181 134.553 81.1824 134.596C81.1466 134.639 81.1037 134.664 81.0536 134.671L79.2976 134.915C79.2511 134.922 79.2011 134.907 79.1546 134.875C79.1081 134.843 79.0795 134.8 79.0723 134.743L78.7934 132.715C78.7755 132.583 78.8327 132.508 78.965 132.49Z" fill="white"/>
<path d="M80.8428 132.229L82.5916 131.935C82.724 131.914 82.7991 131.967 82.8205 132.1L83.1603 134.117C83.171 134.174 83.1603 134.224 83.121 134.271C83.0852 134.314 83.0423 134.342 82.9958 134.349L81.2469 134.643C81.2005 134.65 81.154 134.643 81.1039 134.61C81.0574 134.578 81.0252 134.535 81.0181 134.478L80.6783 132.461C80.6568 132.329 80.7105 132.254 80.8428 132.229Z" fill="white"/>
<path d="M83.4072 131.921L83.1068 130.773C83.0173 130.434 82.9995 130.094 83.0531 129.754C83.1068 129.414 83.2176 129.103 83.3857 128.817C83.5538 128.531 83.772 128.284 84.0438 128.077C84.3156 127.869 84.6196 127.719 84.9593 127.63L85.4028 127.512C85.6961 127.433 85.9893 127.412 86.279 127.437C86.5687 127.465 86.8405 127.54 87.098 127.658C87.3555 127.776 87.5915 127.937 87.799 128.141C88.01 128.341 88.1781 128.578 88.3104 128.849L88.8039 129.829C88.9899 130.194 89.0793 130.57 89.0757 130.949C89.0721 131.328 88.9899 131.689 88.8325 132.025C88.6752 132.361 88.4463 132.655 88.153 132.905C87.8598 133.155 87.5164 133.331 87.1302 133.431L87.073 133.445C86.6653 133.552 86.2826 133.588 85.9178 133.556L85.9571 133.706C85.9786 133.781 86.0179 133.842 86.0895 133.896C86.1574 133.946 86.2254 133.974 86.2933 133.974L88.1852 134.146L89.3368 131.761C89.5729 131.263 89.8589 130.849 90.1951 130.516C90.5313 130.18 90.964 129.947 91.4898 129.808L91.6972 129.754C91.7437 129.743 91.7938 129.751 91.8438 129.776C91.8939 129.801 91.9297 129.844 91.944 129.897L92.4554 131.85C92.4697 131.907 92.4626 131.961 92.4375 132.011C92.4125 132.061 92.3696 132.097 92.3159 132.111L91.8724 132.225C91.7044 132.268 91.5542 132.351 91.4111 132.472C91.268 132.594 91.1643 132.744 91.0928 132.93C91.0499 133.03 90.9855 133.184 90.8961 133.388C90.8067 133.595 90.7065 133.824 90.5957 134.082C90.4848 134.335 90.3704 134.6 90.2524 134.865C90.1343 135.133 90.0306 135.369 89.9341 135.576C89.8411 135.784 89.766 135.945 89.7123 136.063C89.6587 136.181 89.6408 136.217 89.6587 136.174L85.6102 135.902C85.4385 135.888 85.2669 135.83 85.0988 135.727C84.9307 135.623 84.7733 135.491 84.6339 135.333C84.4944 135.172 84.3728 134.997 84.2655 134.808C84.1618 134.618 84.0867 134.439 84.0438 134.275L83.561 134.4C83.5073 134.414 83.4501 134.407 83.4 134.375C83.3464 134.346 83.3142 134.3 83.2999 134.246L82.792 132.293C82.7777 132.236 82.7849 132.186 82.8171 132.14C82.8493 132.093 82.8922 132.061 82.9458 132.047L83.4036 131.929L83.4072 131.921ZM85.106 130.276L85.3956 131.385L86.8619 131.002C86.9156 130.988 86.9549 130.956 86.9764 130.906C86.9978 130.856 86.9978 130.806 86.9728 130.752L86.5723 129.894C86.4972 129.758 86.3899 129.704 86.2504 129.74L85.2669 129.997C85.2097 130.012 85.1668 130.047 85.131 130.101C85.0952 130.155 85.0881 130.216 85.1024 130.28" fill="white"/>
<path d="M90.1131 119.915L91.8333 119.21L92.5665 120.999L90.8463 121.703L90.1167 119.915H90.1131ZM96.0964 127.919C96.1858 127.883 96.2502 127.826 96.2895 127.747C96.3288 127.669 96.3288 127.576 96.2823 127.472L96.0356 126.864C96.0141 126.914 95.9784 126.968 95.9319 127.028C95.8997 127.071 95.846 127.121 95.7781 127.179C95.7065 127.232 95.6171 127.282 95.5134 127.325L94.7838 127.622C94.4047 127.779 94.0257 127.847 93.6537 127.829C93.2782 127.812 92.9349 127.722 92.6201 127.558C92.3054 127.393 92.0372 127.161 91.8083 126.86C91.583 126.56 91.4292 126.213 91.347 125.812L91.1681 124.925C91.1109 124.632 91.1038 124.339 91.1503 124.053C91.1967 123.767 91.2897 123.498 91.422 123.245C91.5579 122.994 91.7332 122.769 91.9478 122.565C92.1659 122.361 92.4091 122.207 92.6809 122.093L93.3819 121.807C93.7181 121.671 94.0543 121.607 94.394 121.617C94.7338 121.628 95.0556 121.696 95.3668 121.821C95.6744 121.946 95.9533 122.129 96.1929 122.372C96.4361 122.612 96.6257 122.898 96.758 123.223L98.1528 126.624C98.2994 126.985 98.3709 127.354 98.3638 127.726C98.3566 128.101 98.2851 128.455 98.1421 128.792C98.0026 129.128 97.7987 129.432 97.5341 129.703C97.2694 129.975 96.9583 130.186 96.5971 130.337L93.0743 131.778C93.0207 131.799 92.967 131.799 92.917 131.774C92.8669 131.749 92.8311 131.713 92.8133 131.67L92.0479 129.804C92.0264 129.75 92.0229 129.696 92.0372 129.646C92.0515 129.593 92.0908 129.557 92.1516 129.532L96.0821 127.922L96.0964 127.919ZM91.8333 119.21L93.5536 118.506L94.2867 120.294L92.5665 120.999L91.8333 119.21ZM95.3167 125.111L94.7946 123.842C94.7767 123.777 94.7409 123.735 94.6801 123.717C94.6229 123.699 94.5585 123.699 94.4942 123.717L93.2639 124.221C93.1208 124.278 93.0672 124.382 93.0994 124.536L93.364 125.68C93.3783 125.737 93.4069 125.78 93.4534 125.805C93.4999 125.834 93.55 125.834 93.6036 125.812L95.3131 125.111H95.3167Z" fill="white"/>
<path d="M103.746 124.364L101.876 125.417L102.951 127.324L104.821 126.27L103.746 124.364Z" fill="white"/>
<path d="M104.383 117.323C104.63 117.308 104.855 117.298 105.056 117.287C105.256 117.28 105.481 117.269 105.739 117.255C105.993 117.24 106.25 117.226 106.515 117.215C107.141 117.187 107.852 117.155 108.65 117.119C108.954 117.101 109.226 117.119 109.465 117.183C109.705 117.248 109.919 117.326 110.109 117.426C110.299 117.527 110.463 117.641 110.599 117.777C110.738 117.913 110.856 118.045 110.949 118.177L111.211 118.535C111.396 118.789 111.543 119.089 111.661 119.436C111.776 119.783 111.822 120.148 111.797 120.531C111.772 120.913 111.665 121.296 111.468 121.675C111.275 122.058 110.953 122.408 110.502 122.734L110.259 122.909C109.841 123.209 109.426 123.388 109.015 123.445C108.603 123.503 108.21 123.481 107.842 123.385C107.47 123.288 107.137 123.131 106.84 122.916C106.543 122.702 106.307 122.469 106.128 122.222L105.885 121.886C105.585 121.457 105.424 121.01 105.402 120.549C105.381 120.087 105.445 119.694 105.603 119.372C105.606 119.347 105.617 119.325 105.631 119.315L105.649 119.265L104.462 119.311L104.383 117.323ZM107.423 120.084C107.409 120.13 107.395 120.195 107.377 120.277C107.359 120.359 107.387 120.452 107.459 120.552L107.809 121.039C107.827 121.064 107.863 121.096 107.917 121.139C107.97 121.182 108.038 121.214 108.121 121.239C108.203 121.264 108.289 121.271 108.385 121.26C108.478 121.253 108.568 121.21 108.657 121.135L109.365 120.624C109.48 120.541 109.558 120.456 109.601 120.366C109.644 120.277 109.666 120.198 109.666 120.127C109.666 120.055 109.658 119.994 109.64 119.944C109.619 119.894 109.605 119.862 109.594 119.844L109.24 119.358C109.211 119.318 109.161 119.272 109.083 119.215C109.007 119.157 108.893 119.136 108.739 119.154C108.661 119.161 108.56 119.175 108.439 119.186C108.314 119.2 108.188 119.211 108.063 119.218C107.927 119.225 107.777 119.229 107.62 119.24L107.423 120.087V120.084Z" fill="white"/>
<path d="M115.691 118.345C115.402 118.61 115.076 118.792 114.719 118.892C114.361 118.992 114 119.017 113.642 118.964C113.284 118.91 112.945 118.785 112.634 118.588C112.319 118.391 112.058 118.127 111.85 117.801L111.153 116.653C110.996 116.396 110.888 116.128 110.831 115.842C110.774 115.559 110.763 115.276 110.806 114.994C110.845 114.711 110.935 114.44 111.067 114.175C111.203 113.91 111.382 113.678 111.607 113.47L112.19 112.941C112.458 112.698 112.755 112.519 113.084 112.405C113.413 112.294 113.749 112.244 114.086 112.258C114.422 112.276 114.751 112.355 115.076 112.498C115.402 112.641 115.684 112.848 115.927 113.116L116.786 114.057L117.158 113.721C117.258 113.631 117.347 113.631 117.429 113.721L118.806 115.234C118.896 115.334 118.892 115.427 118.792 115.516L118.413 115.863C118.846 116.439 119.064 117.079 119.071 117.787C119.078 118.495 118.907 119.171 118.56 119.808L117.408 121.9L115.673 120.906L116.825 118.814C116.979 118.531 117.068 118.241 117.083 117.948C117.1 117.655 116.997 117.387 116.771 117.14L116.703 117.065C116.657 117.211 116.575 117.369 116.464 117.533C116.349 117.701 116.224 117.848 116.081 117.977L115.691 118.334V118.345ZM113.842 116.736L115.259 115.445L114.382 114.5C114.339 114.45 114.282 114.425 114.214 114.422C114.146 114.422 114.086 114.436 114.032 114.472L113.034 115.377C112.945 115.448 112.93 115.552 112.991 115.688L113.603 116.7C113.621 116.746 113.656 116.775 113.71 116.775C113.764 116.775 113.807 116.764 113.842 116.732" fill="white"/>
<path d="M117.282 113.439L118.502 112.151C118.595 112.055 118.688 112.051 118.785 112.144L120.269 113.553C120.308 113.592 120.33 113.642 120.33 113.7C120.33 113.757 120.308 113.803 120.276 113.839L119.056 115.127C119.024 115.162 118.978 115.18 118.924 115.187C118.867 115.191 118.817 115.173 118.774 115.134L117.29 113.728C117.193 113.635 117.189 113.542 117.282 113.446" fill="white"/>
<path d="M118.577 112.072L119.757 110.749C119.846 110.649 119.939 110.645 120.04 110.734L121.563 112.097C121.606 112.136 121.628 112.183 121.628 112.24C121.628 112.297 121.61 112.344 121.577 112.38L120.397 113.703C120.365 113.739 120.322 113.76 120.265 113.767C120.208 113.774 120.158 113.757 120.115 113.721L118.591 112.358C118.491 112.269 118.487 112.176 118.577 112.076" fill="white"/>
<path d="M119.832 110.663L120.977 109.308C121.062 109.204 121.155 109.197 121.259 109.283L122.826 110.602C122.868 110.638 122.89 110.685 122.894 110.742C122.894 110.799 122.879 110.846 122.851 110.885L121.706 112.24C121.678 112.276 121.631 112.298 121.577 112.308C121.52 112.315 121.47 112.301 121.427 112.265L119.861 110.946C119.761 110.86 119.75 110.767 119.836 110.663" fill="white"/>
<path d="M126.374 105.925C126.413 105.953 126.434 105.996 126.445 106.057C126.456 106.118 126.441 106.172 126.406 106.218L125.723 107.134C125.547 107.37 125.336 107.559 125.093 107.702C124.854 107.842 124.557 107.92 124.203 107.931C124.278 108.296 124.274 108.621 124.192 108.915C124.11 109.204 123.981 109.473 123.799 109.719L123.115 110.638C123.087 110.674 123.04 110.699 122.983 110.71C122.922 110.717 122.872 110.71 122.837 110.681L121.22 109.476C121.173 109.44 121.148 109.394 121.138 109.333C121.131 109.272 121.138 109.222 121.166 109.186L121.996 108.074C122.064 107.981 122.1 107.878 122.096 107.756C122.096 107.638 122.053 107.534 121.964 107.445L120.011 105.278L121.524 103.868L123.158 105.674C123.266 105.789 123.373 105.846 123.487 105.846C123.602 105.846 123.695 105.792 123.777 105.685L124.46 104.766C124.496 104.72 124.542 104.695 124.607 104.687C124.671 104.68 124.721 104.691 124.761 104.72L126.377 105.925H126.374ZM125.04 110.925L126.148 109.433L127.697 110.585L126.585 112.076L125.036 110.925H125.04ZM126.152 109.433L127.264 107.942L128.813 109.093L127.7 110.585L126.152 109.433Z" fill="white"/>
<path d="M126.86 105.664C126.835 105.703 126.795 105.735 126.742 105.753C126.688 105.771 126.634 105.764 126.584 105.735L124.817 104.709C124.71 104.648 124.689 104.558 124.757 104.44L124.975 104.068C125.036 103.961 125.057 103.854 125.039 103.743C125.021 103.632 124.968 103.536 124.885 103.453L123.745 102.459C123.519 102.262 123.333 102.034 123.197 101.776C123.061 101.519 122.968 101.25 122.922 100.971C122.875 100.692 122.875 100.406 122.922 100.113C122.972 99.8233 123.069 99.548 123.219 99.2905L123.623 98.5966C123.805 98.2855 124.034 98.0244 124.317 97.817C124.596 97.6095 124.9 97.4629 125.225 97.3771C125.551 97.2913 125.89 97.2698 126.237 97.3127C126.588 97.3556 126.92 97.4701 127.232 97.6525L127.972 98.0852C128.072 98.1424 128.176 98.1567 128.287 98.1281C128.397 98.0995 128.48 98.0387 128.53 97.9493L128.848 97.4057C128.873 97.3664 128.912 97.3342 128.966 97.3163C129.02 97.2984 129.073 97.302 129.123 97.3306L130.865 98.3463C130.915 98.3749 130.947 98.4178 130.962 98.4786C130.976 98.5394 130.972 98.5859 130.947 98.6288L130.804 98.8756C130.665 99.1152 130.493 99.3369 130.289 99.5372C130.085 99.7375 129.835 99.8627 129.542 99.9127C129.642 100.181 129.667 100.438 129.617 100.685C129.567 100.932 129.485 101.154 129.37 101.35L128.58 102.709C128.444 102.942 128.272 103.146 128.058 103.325C127.843 103.503 127.55 103.621 127.174 103.679C127.299 104.015 127.339 104.326 127.296 104.609C127.253 104.891 127.156 105.163 127.006 105.417L126.863 105.664H126.86ZM126.337 101.722L127.296 100.077L126.184 99.4299C126.112 99.4013 126.048 99.3906 125.983 99.4049C125.919 99.4156 125.869 99.4585 125.833 99.5229L125.164 100.675C125.104 100.782 125.118 100.889 125.207 100.996L126.101 101.765C126.134 101.805 126.173 101.823 126.223 101.812C126.273 101.801 126.312 101.772 126.341 101.722" fill="white"/>
<path d="M129.667 95.4062C129.714 95.3025 129.714 95.1988 129.671 95.0951C129.628 94.9914 129.56 94.9199 129.463 94.8769L126.473 93.5394L127.314 91.6582L130.293 92.9886C130.651 93.1495 130.955 93.3677 131.216 93.6431C131.473 93.922 131.666 94.2296 131.795 94.5694C131.924 94.9091 131.985 95.2703 131.977 95.6459C131.97 96.025 131.888 96.3933 131.727 96.7474L131.173 97.9884C131.151 98.042 131.112 98.0742 131.055 98.0921C131.001 98.11 130.951 98.11 130.908 98.0921L129.081 97.2731C129.027 97.2481 128.988 97.2123 128.959 97.1587C128.93 97.105 128.93 97.0514 128.952 96.9977L129.667 95.4062ZM132.753 98.6679L133.512 96.9691L135.275 97.7595L134.517 99.4583L132.753 98.6715V98.6679Z" fill="white"/>
<path d="M124.027 91.5688L123.266 91.2755C123.008 91.179 122.801 91.0538 122.651 90.9036C122.5 90.7534 122.393 90.5889 122.329 90.4065C122.264 90.2241 122.239 90.0345 122.246 89.8378C122.254 89.6411 122.293 89.4516 122.364 89.262L123.391 86.5762L125.047 87.2092L123.967 90.0417C123.934 90.1204 123.956 90.174 124.027 90.2026L124.482 90.3779L124.027 91.5688ZM134.006 91.229L133.265 93.1674L124.832 89.9451L125.572 88.0067L134.006 91.229Z" fill="white"/>
</svg>
