<svg width="66" height="66" viewBox="0 0 66 66" fill="none" xmlns="http://www.w3.org/2000/svg">
<mask id="mask0_61_4325" style="mask-type:luminance" maskUnits="userSpaceOnUse" x="0" y="0" width="66" height="66">
<path d="M65.625 0.000244141H0.459717V65.1655H65.625V0.000244141Z" fill="white"/>
</mask>
<g mask="url(#mask0_61_4325)">
<path d="M23.1151 65.1656C22.7893 64.7479 22.3412 64.3711 22.158 63.9031C21.211 61.3678 20.315 58.802 19.4292 56.2458C19.2764 55.8186 19.1136 55.7064 18.6554 55.8084C16.0488 56.3682 13.4319 56.8873 10.8151 57.4477C10.1737 57.5798 9.634 57.5492 9.22674 56.9893C8.80929 56.4192 8.99255 55.8894 9.30817 55.3296C11.7112 51.1142 14.0938 46.8887 16.507 42.6733C16.7513 42.2455 16.731 42.0115 16.3644 41.6653C4.62443 30.3632 7.00705 11.17 21.1602 3.11597C22.9217 2.11815 24.7748 1.36467 26.7297 0.845384C27.6767 0.590842 28.3894 0.896326 28.5829 1.64975C28.7763 2.42363 28.3487 3.0142 27.4017 3.29928C19.9587 5.47824 14.888 10.2129 12.4647 17.5644C8.37144 29.9966 16.3236 43.1318 29.2141 45.463C40.7809 47.5505 51.8692 40.0362 54.2519 28.4897C56.5429 17.3811 49.7006 6.26226 38.7446 3.30948C38.2355 3.17711 37.6958 3.0142 37.5736 2.46432C37.4922 2.0774 37.5634 1.57852 37.7468 1.22215C38.0114 0.723213 38.5715 0.631585 39.0908 0.784299C39.9664 1.0287 40.8523 1.26284 41.6869 1.61921C50.342 5.2135 55.5858 11.6079 56.9299 20.8939C58.1007 28.9581 55.5246 35.9023 49.7414 41.6347C49.3543 42.0115 49.3135 42.2659 49.5782 42.7447C51.9813 46.9397 54.3743 51.1346 56.7259 55.35C56.9401 55.737 57.0416 56.2866 56.9503 56.7145C56.8177 57.3865 56.1457 57.641 55.3614 57.4783C52.7044 56.9281 50.0468 56.3886 47.3994 55.8186C46.941 55.7166 46.7783 55.8288 46.6253 56.256C45.7499 58.802 44.8336 61.327 43.9479 63.8623C43.7541 64.4221 43.4895 64.9009 42.9398 65.1758H42.176C41.8501 64.7989 41.4427 64.4731 41.1985 64.0555C38.5817 59.5041 35.9954 54.9323 33.399 50.3708C33.287 50.1775 33.1648 49.9843 33.0121 49.7293C32.8594 49.9843 32.7371 50.1775 32.6252 50.3708C30.0287 54.9323 27.4425 59.5041 24.8257 64.0555C24.5813 64.4731 24.1842 64.8091 23.8482 65.1758H23.0846L23.1151 65.1656ZM23.7566 60.838C26.1799 56.5717 28.5218 52.4481 30.9044 48.2736C26.4345 47.8254 22.4431 46.3288 18.8183 43.7426C16.8022 47.2961 14.8167 50.7986 12.7803 54.3929C13.0756 54.3521 13.2385 54.3521 13.4014 54.3113C15.4582 53.884 17.5048 53.4562 19.5616 53.0284C20.4983 52.8352 21.0074 53.11 21.3332 54.0059C21.8118 55.3398 22.2801 56.6839 22.7587 58.0178C23.0744 58.9035 23.4002 59.7993 23.7668 60.8278L23.7566 60.838ZM42.3086 60.8176C42.4406 60.4816 42.512 60.2884 42.5834 60.0951C43.2962 58.079 44.0085 56.0628 44.7316 54.0569C45.0778 53.0998 45.5464 52.8352 46.5341 53.0386C48.3769 53.4154 50.2196 53.8024 52.0732 54.1793C52.4494 54.2603 52.8262 54.3113 53.3051 54.3929C51.2481 50.7782 49.2727 47.2757 47.2668 43.7426C43.6419 46.3288 39.6508 47.8254 35.1808 48.2736C37.5634 52.4583 39.9053 56.5819 42.3188 60.8176H42.3086Z" fill="#00A14B"/>
<path d="M33.4296 0.000255688C33.5314 0.0715408 33.6333 0.142826 33.7351 0.214111C34.2238 0.57048 34.4478 1.04902 34.2544 1.63959C34.0711 2.21996 33.6333 2.54578 33.0224 2.52544C32.4318 2.51524 32.0245 2.18941 31.8514 1.62939C31.6681 1.03882 31.882 0.56028 32.3707 0.203911C32.4725 0.132626 32.5743 0.0613408 32.6761 -0.0098877C32.9307 -0.0098877 33.1853 -0.0098877 33.4398 -0.0098877L33.4296 0.000255688Z" fill="#00A14B"/>
<path d="M33.114 5.0913C22.596 5.05056 13.9819 13.6035 13.9514 24.1318C13.9208 34.6499 22.4839 43.2536 33.002 43.274C43.4998 43.2944 52.0835 34.772 52.1339 24.2641C52.1849 13.746 43.642 5.13204 33.114 5.0913ZM33.0326 40.7285C23.9196 40.7285 16.4867 33.2753 16.4969 24.1623C16.5071 15.0392 23.9604 7.61643 33.0835 7.63683C42.2067 7.65717 49.6191 15.1104 49.5885 24.2336C49.5579 33.3364 42.1353 40.7285 33.0326 40.7285Z" fill="#00A14B"/>
<path d="M44.6398 22.0954C45.0677 21.6881 45.3221 21.2299 45.1391 20.6292C44.9453 20.0285 44.4772 19.7943 43.8867 19.7128C41.891 19.4277 39.9054 19.1121 37.9097 18.8269C37.4515 18.7658 37.1868 18.5724 36.9729 18.1346C36.1075 16.3425 35.2013 14.5708 34.3154 12.789C34.0507 12.2392 33.6943 11.8216 33.0325 11.8318C32.3605 11.842 32.0245 12.2697 31.7597 12.8195C30.8637 14.6218 29.9473 16.4138 29.0717 18.216C28.8986 18.5826 28.6644 18.7557 28.2673 18.8168C26.2614 19.1019 24.2454 19.4277 22.2395 19.7128C21.6388 19.7943 21.1704 19.9979 20.9566 20.5884C20.7428 21.2197 21.0176 21.6881 21.4656 22.1158C22.9319 23.5514 24.3981 24.9973 25.844 26.4635C26.0171 26.6366 26.1392 26.9828 26.0985 27.217C25.7931 29.2534 25.4672 31.2796 25.1007 33.2956C24.9886 33.9168 25.0396 34.4462 25.569 34.8332C26.0985 35.2303 26.628 35.0877 27.1778 34.8026C28.9596 33.8659 30.7517 32.9597 32.5234 32.0127C32.9103 31.7989 33.2056 31.8091 33.5823 32.0229C34.3154 32.4404 35.0791 32.8069 35.8325 33.1939C36.9424 33.7742 38.0421 34.375 39.1621 34.9146C40.0887 35.3728 41.0557 34.7619 41.0455 33.7437C41.0455 33.6928 41.0353 33.6113 41.0257 33.5196C40.6793 31.4527 40.3534 29.3857 39.9767 27.3188C39.8952 26.9013 40.0072 26.6569 40.2923 26.3821C41.7482 24.9667 43.1841 23.5209 44.6398 22.0954ZM37.7774 25.2824C37.3497 25.71 37.2071 26.1784 37.309 26.7791C37.594 28.2963 37.818 29.8236 38.093 31.4833C37.5534 31.2185 37.1053 30.9945 36.6777 30.7705C35.7511 30.292 34.8245 29.8236 33.9183 29.3246C33.3176 28.9988 32.7779 28.9988 32.1772 29.3246C30.8434 30.0578 29.4789 30.74 27.9924 31.5138C28.2673 29.8338 28.4913 28.3065 28.7662 26.7893C28.8884 26.158 28.7051 25.6897 28.2775 25.2417C27.188 24.142 26.129 23.022 25.0192 21.8816C26.0171 21.7187 27.0454 21.5558 28.0739 21.3928C30.8332 20.9652 30.324 21.3521 31.5561 18.9084C32.0143 18.0022 32.4623 17.096 32.9205 16.1898C32.9409 16.1491 32.9816 16.1287 33.0529 16.0472C33.175 16.2509 33.2972 16.4342 33.3888 16.6276C33.9387 17.7069 34.5191 18.776 34.9976 19.8757C35.3743 20.7717 35.9955 21.1586 36.9323 21.2605C38.317 21.4132 39.6916 21.6576 41.1679 21.8714C41.0155 22.0648 40.9237 22.187 40.8217 22.299C39.8036 23.2969 38.7955 24.2947 37.7774 25.2824Z" fill="#00A14B"/>
</g>
</svg>
