<svg width="19" height="19" viewBox="0 0 19 19" fill="none" xmlns="http://www.w3.org/2000/svg">
<path d="M13.4583 16.625H5.54166C2.37499 16.625 1.58333 15.8333 1.58333 12.6667V6.33333C1.58333 3.16667 2.37499 2.375 5.54166 2.375H13.4583C16.625 2.375 17.4167 3.16667 17.4167 6.33333V12.6667C17.4167 15.8333 16.625 16.625 13.4583 16.625Z" stroke="#00A14B" stroke-width="1.5" stroke-linecap="round" stroke-linejoin="round"/>
<path d="M11.0833 6.33333H15.0417" stroke="#00A14B" stroke-width="1.5" stroke-linecap="round" stroke-linejoin="round"/>
<path d="M11.875 9.5H15.0417" stroke="#00A14B" stroke-width="1.5" stroke-linecap="round" stroke-linejoin="round"/>
<path d="M13.4583 12.6667H15.0417" stroke="#00A14B" stroke-width="1.5" stroke-linecap="round" stroke-linejoin="round"/>
<path d="M6.72917 8.93792C7.52054 8.93792 8.16208 8.29638 8.16208 7.505C8.16208 6.71362 7.52054 6.07208 6.72917 6.07208C5.93779 6.07208 5.29625 6.71362 5.29625 7.505C5.29625 8.29638 5.93779 8.93792 6.72917 8.93792Z" stroke="#00A14B" stroke-width="1.5" stroke-linecap="round" stroke-linejoin="round"/>
<path d="M9.5 12.9279C9.38916 11.78 8.47875 10.8775 7.33083 10.7746C6.935 10.735 6.53124 10.735 6.12749 10.7746C4.97958 10.8854 4.06916 11.78 3.95833 12.9279" stroke="#00A14B" stroke-width="1.5" stroke-linecap="round" stroke-linejoin="round"/>
</svg>
