<svg width="33" height="32" viewBox="0 0 33 32" fill="none" xmlns="http://www.w3.org/2000/svg">
<path d="M23.537 30.3333C22.0303 30.3333 20.4437 29.9733 18.8037 29.28C17.2037 28.6 15.5903 27.6666 14.017 26.5333C12.457 25.3866 10.9503 24.1066 9.52368 22.7066C8.11035 21.28 6.83035 19.7733 5.69701 18.2266C4.55035 16.6266 3.63035 15.0266 2.97701 13.48C2.28368 11.8266 1.93701 10.2266 1.93701 8.71996C1.93701 7.67996 2.12368 6.69329 2.48368 5.77329C2.85701 4.82663 3.45701 3.94663 4.27035 3.18663C5.29701 2.17329 6.47035 1.66663 7.72368 1.66663C8.24368 1.66663 8.77701 1.78663 9.23034 1.99996C9.75034 2.23996 10.1903 2.59996 10.5103 3.07996L13.6037 7.43996C13.8837 7.82663 14.097 8.19996 14.2437 8.57329C14.417 8.97329 14.5103 9.37329 14.5103 9.75996C14.5103 10.2666 14.3637 10.76 14.0837 11.2266C13.8837 11.5866 13.577 11.9733 13.1903 12.36L12.2837 13.3066C12.297 13.3466 12.3103 13.3733 12.3237 13.4C12.4837 13.68 12.8037 14.16 13.417 14.88C14.0703 15.6266 14.6837 16.3066 15.297 16.9333C16.0837 17.7066 16.737 18.32 17.3503 18.8266C18.1103 19.4666 18.6037 19.7866 18.897 19.9333L18.8703 20L19.8437 19.04C20.257 18.6266 20.657 18.32 21.0437 18.12C21.777 17.6666 22.7103 17.5866 23.6437 17.9733C23.9903 18.12 24.3637 18.32 24.7637 18.6L29.1903 21.7466C29.6837 22.08 30.0437 22.5066 30.257 23.0133C30.457 23.52 30.5503 23.9866 30.5503 24.4533C30.5503 25.0933 30.4037 25.7333 30.1237 26.3333C29.8437 26.9333 29.497 27.4533 29.057 27.9333C28.297 28.7733 27.4703 29.3733 26.5103 29.76C25.5903 30.1333 24.5903 30.3333 23.537 30.3333ZM7.72368 3.66663C6.99035 3.66663 6.31035 3.98663 5.65701 4.62663C5.04368 5.19996 4.61701 5.82663 4.35035 6.50663C4.07035 7.19996 3.93701 7.93329 3.93701 8.71996C3.93701 9.95996 4.23035 11.3066 4.81701 12.6933C5.41701 14.1066 6.25701 15.5733 7.32368 17.04C8.39035 18.5066 9.60368 19.9333 10.937 21.28C12.2703 22.6 13.7103 23.8266 15.1903 24.9066C16.6303 25.96 18.1103 26.8133 19.577 27.4266C21.857 28.4 23.9903 28.6266 25.7503 27.8933C26.4303 27.6133 27.0303 27.1866 27.577 26.5733C27.8837 26.24 28.1237 25.88 28.3237 25.4533C28.4837 25.12 28.5637 24.7733 28.5637 24.4266C28.5637 24.2133 28.5237 24 28.417 23.76C28.377 23.68 28.297 23.5333 28.0437 23.36L23.617 20.2133C23.3503 20.0266 23.1103 19.8933 22.8837 19.8C22.5903 19.68 22.4703 19.56 22.017 19.84C21.7503 19.9733 21.5103 20.1733 21.2437 20.44L20.2303 21.44C19.7103 21.9466 18.9103 22.0666 18.297 21.84L17.937 21.68C17.3903 21.3866 16.7503 20.9333 16.0437 20.3333C15.4037 19.7866 14.7103 19.1466 13.8703 18.32C13.217 17.6533 12.5637 16.9466 11.8837 16.16C11.257 15.4266 10.8037 14.8 10.5237 14.28L10.3637 13.88C10.2837 13.5733 10.257 13.4 10.257 13.2133C10.257 12.7333 10.4303 12.3066 10.7637 11.9733L11.7637 10.9333C12.0303 10.6666 12.2303 10.4133 12.3637 10.1866C12.4703 10.0133 12.5103 9.86663 12.5103 9.73329C12.5103 9.62663 12.4703 9.46663 12.4037 9.30663C12.3103 9.09329 12.1637 8.85329 11.977 8.59996L8.88368 4.22663C8.75035 4.03996 8.59035 3.90663 8.39035 3.81329C8.17701 3.71996 7.95035 3.66663 7.72368 3.66663ZM18.8703 20.0133L18.657 20.92L19.017 19.9866C18.9503 19.9733 18.897 19.9866 18.8703 20.0133Z" fill="#00A14B"/>
<path d="M24.9372 13C24.3905 13 23.9372 12.5467 23.9372 12C23.9372 11.52 23.4572 10.52 22.6572 9.66671C21.8705 8.82671 21.0038 8.33337 20.2705 8.33337C19.7238 8.33337 19.2705 7.88004 19.2705 7.33337C19.2705 6.78671 19.7238 6.33337 20.2705 6.33337C21.5638 6.33337 22.9238 7.02671 24.1105 8.29337C25.2172 9.48004 25.9372 10.9334 25.9372 12C25.9372 12.5467 25.4838 13 24.9372 13Z" fill="#00A14B"/>
<path d="M29.6038 13C29.0572 13 28.6038 12.5466 28.6038 12C28.6038 7.39996 24.8705 3.66663 20.2705 3.66663C19.7238 3.66663 19.2705 3.21329 19.2705 2.66663C19.2705 2.11996 19.7238 1.66663 20.2705 1.66663C25.9638 1.66663 30.6038 6.30663 30.6038 12C30.6038 12.5466 30.1505 13 29.6038 13Z" fill="#00A14B"/>
</svg>
