<svg width="68" height="68" viewBox="0 0 68 68" fill="none" xmlns="http://www.w3.org/2000/svg">
<path d="M48.8513 63.7913C45.715 63.7913 42.4122 63.0419 38.9984 61.5987C35.6679 60.1832 32.3096 58.2404 29.0346 55.8813C25.7873 53.4944 22.6511 50.83 19.6813 47.9158C16.7394 44.946 14.0749 41.8098 11.7158 38.5903C9.32892 35.2597 7.41386 31.9292 6.05389 28.7097C4.61065 25.2681 3.88904 21.9376 3.88904 18.8013C3.88904 16.6365 4.2776 14.5826 5.02697 12.6676C5.8041 10.697 7.05305 8.86522 8.74607 7.28321C10.8832 5.17387 13.3256 4.1192 15.9345 4.1192C17.0169 4.1192 18.1271 4.36899 19.0707 4.81306C20.1532 5.31264 21.0691 6.06201 21.7352 7.06118L28.1742 16.1369C28.757 16.9418 29.2011 17.7189 29.5064 18.496C29.8672 19.3287 30.0615 20.1613 30.0615 20.9662C30.0615 22.0208 29.7562 23.0478 29.1734 24.0192C28.757 24.7685 28.1187 25.5734 27.3138 26.3783L25.4265 28.3489C25.4543 28.4321 25.482 28.4876 25.5098 28.5431C25.8428 29.126 26.5089 30.1251 27.7856 31.6239C29.1456 33.1781 30.4223 34.5936 31.699 35.8981C33.3365 37.5078 34.6965 38.7845 35.9732 39.8392C37.5552 41.1714 38.5821 41.8375 39.1927 42.1428L39.1372 42.2816L41.1633 40.2833C42.0237 39.4229 42.8563 38.7845 43.6612 38.3682C45.1877 37.4246 47.1305 37.258 49.0733 38.0629C49.7949 38.3682 50.5721 38.7845 51.4047 39.3674L60.6192 45.9174C61.6461 46.6113 62.3955 47.4994 62.8395 48.5541C63.2559 49.6088 63.4501 50.5802 63.4501 51.5516C63.4501 52.8838 63.1448 54.216 62.562 55.465C61.9791 56.7139 61.2575 57.7964 60.3416 58.7955C58.7596 60.544 57.0389 61.793 55.0405 62.5979C53.1255 63.375 51.0439 63.7913 48.8513 63.7913ZM15.9345 8.28237C14.408 8.28237 12.9925 8.94848 11.6325 10.2807C10.3558 11.4741 9.46769 12.7786 8.9126 14.1941C8.32975 15.6373 8.05221 17.1638 8.05221 18.8013C8.05221 21.3825 8.66281 24.1857 9.884 27.0722C11.133 30.0141 12.8815 33.0671 15.1018 36.1201C17.3222 39.1731 19.8479 42.1428 22.6233 44.946C25.3988 47.6937 28.3962 50.2471 31.477 52.4952C34.4745 54.6879 37.5552 56.4641 40.6082 57.7408C45.3542 59.7669 49.7949 60.2387 53.4585 58.7122C54.874 58.1294 56.123 57.2413 57.2609 55.9646C57.8992 55.2707 58.3988 54.5213 58.8151 53.6332C59.1482 52.9393 59.3147 52.2177 59.3147 51.4961C59.3147 51.052 59.2315 50.6079 59.0094 50.1084C58.9262 49.9418 58.7596 49.6365 58.2323 49.2757L49.0178 42.7257C48.4627 42.3371 47.9631 42.0596 47.4913 41.8653C46.8807 41.6155 46.6309 41.3657 45.6873 41.9485C45.1322 42.2261 44.6326 42.6424 44.0775 43.1975L41.9682 45.2791C40.8857 46.3338 39.2205 46.5835 37.9438 46.1117L37.1944 45.7787C36.0565 45.1681 34.7243 44.2244 33.2533 42.9755C31.9211 41.8375 30.4778 40.5053 28.7293 38.7845C27.3693 37.3968 26.0094 35.9258 24.5939 34.2883C23.2894 32.7618 22.3458 31.4574 21.7629 30.3749L21.4299 29.5423C21.2633 28.9039 21.2078 28.5431 21.2078 28.1546C21.2078 27.1554 21.5686 26.2673 22.2625 25.5734L24.3441 23.4086C24.8992 22.8535 25.3155 22.3261 25.593 21.8543C25.8151 21.4935 25.8983 21.1882 25.8983 20.9107C25.8983 20.6886 25.8151 20.3556 25.6763 20.0225C25.482 19.5784 25.1767 19.0789 24.7882 18.5515L18.3491 9.44806C18.0716 9.0595 17.7385 8.78195 17.3222 8.58767C16.8781 8.39339 16.4063 8.28237 15.9345 8.28237ZM39.1372 42.3094L38.6931 44.1967L39.4425 42.2538C39.3037 42.2261 39.1927 42.2538 39.1372 42.3094Z" fill="#00A14B"/>
<path d="M51.7655 27.7105C50.6276 27.7105 49.6839 26.7668 49.6839 25.6289C49.6839 24.6297 48.6848 22.5482 47.0195 20.7719C45.382 19.0233 43.5779 17.9964 42.0514 17.9964C40.9135 17.9964 39.9698 17.0528 39.9698 15.9148C39.9698 14.7769 40.9135 13.8333 42.0514 13.8333C44.7436 13.8333 47.5746 15.2765 50.0447 17.9132C52.3483 20.3833 53.8471 23.4085 53.8471 25.6289C53.8471 26.7668 52.9034 27.7105 51.7655 27.7105Z" fill="#00A14B"/>
<path d="M61.4796 27.7105C60.3416 27.7105 59.398 26.7668 59.398 25.6289C59.398 16.0536 51.6267 8.28237 42.0514 8.28237C40.9135 8.28237 39.9698 7.33872 39.9698 6.20079C39.9698 5.06285 40.9135 4.1192 42.0514 4.1192C53.9026 4.1192 63.5611 13.7778 63.5611 25.6289C63.5611 26.7668 62.6175 27.7105 61.4796 27.7105Z" fill="#00A14B"/>
</svg>
