<svg width="16" height="16" viewBox="0 0 16 16" fill="none" xmlns="http://www.w3.org/2000/svg">
<g clip-path="url(#clip0_61_7241)">
<path d="M8.64986 1.33142C8.64986 1.16475 8.70819 1.02308 8.82486 0.906415C8.94153 0.789748 9.08319 0.731415 9.24986 0.731415C10.3832 0.731415 11.4249 1.01475 12.3749 1.58142C13.3249 2.14808 14.0832 2.90641 14.6499 3.85641C15.2165 4.80642 15.4999 5.84808 15.4999 6.98142C15.4999 7.14808 15.4415 7.29808 15.3249 7.43142C15.2082 7.56475 15.0582 7.62308 14.8749 7.60642C14.6915 7.58975 14.5415 7.52308 14.4249 7.40642C14.3082 7.28975 14.2499 7.14808 14.2499 6.98142C14.2499 6.08142 14.0249 5.24808 13.5749 4.48142C13.1249 3.71475 12.5165 3.10641 11.7499 2.65641C10.9832 2.20642 10.1499 1.98141 9.24986 1.98141C9.08319 1.98141 8.94153 1.92308 8.82486 1.80641C8.70819 1.68975 8.64986 1.54808 8.64986 1.38142V1.33142ZM9.24986 4.48142C9.94986 4.48142 10.5415 4.72308 11.0249 5.20642C11.5082 5.68975 11.7499 6.28142 11.7499 6.98142C11.7499 7.14808 11.8082 7.29808 11.9249 7.43142C12.0415 7.56475 12.1915 7.62308 12.3749 7.60642C12.5582 7.58975 12.7082 7.52308 12.8249 7.40642C12.9415 7.28975 12.9999 7.14808 12.9999 6.98142C12.9999 6.31475 12.8332 5.68975 12.4999 5.10642C12.1665 4.52308 11.7082 4.06475 11.1249 3.73141C10.5415 3.39808 9.91653 3.23141 9.24986 3.23141C9.08319 3.23141 8.94153 3.28975 8.82486 3.40641C8.70819 3.52308 8.64986 3.67308 8.64986 3.85641C8.64986 4.03975 8.70819 4.18975 8.82486 4.30642C8.94153 4.42308 9.08319 4.48142 9.24986 4.48142ZM14.9499 11.1814C15.3165 11.5814 15.4999 12.0481 15.4999 12.5814C15.4999 13.1147 15.3165 13.5647 14.9499 13.9314L14.3499 14.5814C13.3832 15.5147 12.1332 15.8647 10.5999 15.6314C9.23319 15.4314 7.79986 14.7981 6.29986 13.7314C4.83319 12.6981 3.58319 11.4481 2.54986 9.98142C1.44986 8.48142 0.79986 7.04808 0.59986 5.68142C0.366527 4.14808 0.69986 2.88142 1.59986 1.88142L2.34986 1.28141C2.71653 0.914748 3.16653 0.731415 3.69986 0.731415C4.23319 0.731415 4.68319 0.914748 5.04986 1.28141L6.19986 2.83142C6.56653 3.19808 6.74986 3.63975 6.74986 4.15641C6.74986 4.67308 6.56653 5.11475 6.19986 5.48142L5.49986 6.43142C5.89986 7.39808 6.47486 8.25642 7.22486 9.00642C7.97486 9.75642 8.83319 10.3314 9.79986 10.7314L10.7499 10.0314C11.1165 9.66475 11.5582 9.48142 12.0749 9.48142C12.5915 9.48142 13.0332 9.66475 13.3999 10.0314L14.9499 11.1814ZM14.0499 12.0814C13.5499 11.7147 13.0499 11.3314 12.5499 10.9314C12.4165 10.7981 12.2582 10.7314 12.0749 10.7314C11.8915 10.7314 11.7332 10.7981 11.5999 10.9314L10.2999 11.9314C10.1332 12.0981 9.93319 12.1314 9.69986 12.0314C8.43319 11.5647 7.31653 10.8481 6.34986 9.88142C5.38319 8.91475 4.66653 7.79808 4.19986 6.53142C4.09986 6.29808 4.13319 6.09808 4.29986 5.93142L5.29986 4.63142C5.43319 4.49808 5.49986 4.33975 5.49986 4.15641C5.49986 3.97308 5.43319 3.81475 5.29986 3.68142L4.14986 2.18142C4.01653 2.04808 3.85819 1.98141 3.67486 1.98141C3.49153 1.98141 3.33319 2.04808 3.19986 2.18142L2.44986 2.83142C1.78319 3.63142 1.59986 4.66475 1.89986 5.93142C2.16653 7.06475 2.78319 8.24808 3.74986 9.48142C4.64986 10.6814 5.72486 11.7314 6.97486 12.6314C8.22486 13.5314 9.41653 14.0981 10.5499 14.3314C11.7832 14.5981 12.7499 14.3981 13.4499 13.7314L13.9999 13.0814C14.1665 12.9481 14.2499 12.7897 14.2499 12.6064C14.2499 12.4231 14.1832 12.2481 14.0499 12.0814Z" fill="white"/>
</g>
<defs>
<clipPath id="clip0_61_7241">
<rect width="15" height="15" fill="white" transform="matrix(1 0 0 -1 0.499908 15.7314)"/>
</clipPath>
</defs>
</svg>
 