<svg width="32" height="32" viewBox="0 0 32 32" fill="none" xmlns="http://www.w3.org/2000/svg">
<path d="M11.56 30.333H2.66669C2.12002 30.333 1.66669 29.8797 1.66669 29.333V21.333C1.66669 19.3064 3.30669 17.6664 5.33335 17.6664H11.56C12.1067 17.6664 12.56 18.1197 12.56 18.6664V29.333C12.56 29.8797 12.1067 30.333 11.56 30.333ZM3.66669 28.333H10.56V19.6664H5.33335C4.41335 19.6664 3.66669 20.413 3.66669 21.333V28.333Z" fill="#00A14B"/>
<path d="M20.4402 30.3331H11.5469C11.0002 30.3331 10.5469 29.8798 10.5469 29.3331V15.9998C10.5469 13.9731 12.1869 12.3331 14.2135 12.3331H17.7735C19.8002 12.3331 21.4402 13.9731 21.4402 15.9998V29.3331C21.4402 29.8798 21.0002 30.3331 20.4402 30.3331ZM12.5602 28.3331H19.4535V15.9998C19.4535 15.0798 18.7069 14.3331 17.7869 14.3331H14.2269C13.3069 14.3331 12.5602 15.0798 12.5602 15.9998V28.3331Z" fill="#00A14B"/>
<path d="M29.3335 30.333H20.4401C19.8935 30.333 19.4401 29.8797 19.4401 29.333V22.6664C19.4401 22.1197 19.8935 21.6664 20.4401 21.6664H26.6668C28.6935 21.6664 30.3335 23.3064 30.3335 25.333V29.333C30.3335 29.8797 29.8801 30.333 29.3335 30.333ZM21.4401 28.333H28.3335V25.333C28.3335 24.413 27.5868 23.6664 26.6668 23.6664H21.4401V28.333Z" fill="#00A14B"/>
<path d="M18.2665 11.1331C17.9465 11.1331 17.5465 11.0398 17.0932 10.7731L15.9999 10.1198L14.9199 10.7598C13.8265 11.4131 13.1065 11.0264 12.8399 10.8398C12.5732 10.6531 11.9999 10.0664 12.2799 8.83978L12.5332 7.73309L11.6265 6.82643C11.0665 6.26643 10.8665 5.59976 11.0665 4.98642C11.2665 4.37309 11.8132 3.94642 12.5865 3.81308L13.7465 3.61309L14.3999 2.30645C15.1199 0.879783 16.8665 0.879783 17.5732 2.30645L18.2265 3.61309L19.3865 3.81308C20.1599 3.94642 20.7199 4.37309 20.9065 4.98642C21.1065 5.59976 20.8932 6.26643 20.3465 6.82643L19.4399 7.73309L19.6932 8.83978C19.9732 10.0798 19.3999 10.6531 19.1332 10.8531C19.0132 10.9598 18.7065 11.1331 18.2665 11.1331ZM15.9999 8.10642C16.3199 8.10642 16.6399 8.18645 16.9065 8.34645L17.6532 8.78643L17.4932 8.06642C17.3599 7.50642 17.5599 6.82643 17.9732 6.4131L18.6532 5.73309L17.8132 5.58644C17.2799 5.49311 16.7599 5.10644 16.5199 4.62644L15.9999 3.62644L15.4932 4.62644C15.2532 5.10644 14.7332 5.49311 14.1999 5.58644L13.3599 5.71978L14.0399 6.39975C14.4532 6.81309 14.6399 7.49311 14.5199 8.05311L14.3599 8.77308L15.1065 8.3331C15.3599 8.1731 15.6799 8.10642 15.9999 8.10642Z" fill="#00A14B"/>
</svg>
