<svg width="33" height="32" viewBox="0 0 33 32" fill="none" xmlns="http://www.w3.org/2000/svg">
<path d="M25.5636 30.3333H6.89697C1.89697 30.3333 1.89697 27.56 1.89697 25.3333V24C1.89697 22.72 2.95031 21.6666 4.23031 21.6666H28.2303C29.5103 21.6666 30.5636 22.72 30.5636 24V25.3333C30.5636 27.56 30.5636 30.3333 25.5636 30.3333ZM4.23031 23.6666C4.04364 23.6666 3.89697 23.8133 3.89697 24V25.3333C3.89697 27.52 3.89697 28.3333 6.89697 28.3333H25.5636C28.5636 28.3333 28.5636 27.52 28.5636 25.3333V24C28.5636 23.8133 28.417 23.6666 28.2303 23.6666H4.23031Z" fill="#00A14B"/>
<path d="M27.897 23.6666H4.63037C4.0837 23.6666 3.63037 23.2133 3.63037 22.6666V17.3333C3.63037 11.8666 7.51037 7.06663 12.8437 5.93329C13.6304 5.75996 14.457 5.66663 15.297 5.66663H17.2304C18.0837 5.66663 18.9104 5.75996 19.697 5.93329C25.0304 7.07996 28.897 11.88 28.897 17.3333V22.6666C28.897 23.2133 28.457 23.6666 27.897 23.6666ZM5.63037 21.6666H26.897V17.3333C26.897 12.8133 23.697 8.83996 19.2704 7.87996C18.617 7.73329 17.937 7.66663 17.2304 7.66663H15.297C14.6037 7.66663 13.9237 7.73329 13.2704 7.87996C8.8437 8.82663 5.63037 12.8 5.63037 17.3333V21.6666Z" fill="#00A14B"/>
<path d="M13.057 7.90663C12.617 7.90663 12.217 7.61329 12.097 7.17329C11.9903 6.78663 11.937 6.39996 11.937 5.99996C11.937 3.61329 13.8837 1.66663 16.2703 1.66663C18.657 1.66663 20.6037 3.61329 20.6037 5.99996C20.6037 6.39996 20.5503 6.78663 20.4437 7.17329C20.3103 7.67996 19.8037 7.99996 19.2703 7.87996C18.617 7.73329 17.937 7.66663 17.2303 7.66663H15.297C14.6037 7.66663 13.9237 7.73329 13.2703 7.87996C13.2037 7.89329 13.137 7.90663 13.057 7.90663ZM15.297 5.66663H17.2303C17.6837 5.66663 18.1503 5.69329 18.5903 5.74663C18.4703 4.57329 17.4703 3.66663 16.2703 3.66663C15.0703 3.66663 14.0837 4.57329 13.9503 5.74663C14.4037 5.69329 14.8437 5.66663 15.297 5.66663Z" fill="#00A14B"/>
<path d="M20.2705 15.6666H12.2705C11.7238 15.6666 11.2705 15.2133 11.2705 14.6666C11.2705 14.12 11.7238 13.6666 12.2705 13.6666H20.2705C20.8172 13.6666 21.2705 14.12 21.2705 14.6666C21.2705 15.2133 20.8172 15.6666 20.2705 15.6666Z" fill="#00A14B"/>
</svg>
