<svg width="32" height="32" viewBox="0 0 32 32" fill="none" xmlns="http://www.w3.org/2000/svg">
<path d="M15.9999 30.3464C14.5465 30.3464 13.1066 29.9198 11.9732 29.0798L6.23987 24.7998C4.71987 23.6664 3.5332 21.3064 3.5332 19.4131V9.50643C3.5332 7.4531 5.03989 5.26643 6.97323 4.54643L13.6265 2.05311C14.9465 1.55977 17.0266 1.55977 18.3466 2.05311L25.0132 4.54643C26.9466 5.26643 28.4532 7.4531 28.4532 9.50643V19.4131C28.4532 21.3064 27.2665 23.6664 25.7465 24.7998L20.0132 29.0798C18.8932 29.9198 17.4532 30.3464 15.9999 30.3464ZM14.3332 3.91976L7.67989 6.41309C6.53322 6.83976 5.5332 8.27977 5.5332 9.50643V19.4131C5.5332 20.6798 6.42655 22.4531 7.42655 23.1998L13.1599 27.4797C14.6932 28.6264 17.2932 28.6264 18.8265 27.4797L24.5599 23.1998C25.5732 22.4398 26.4532 20.6664 26.4532 19.4131V9.50643C26.4532 8.2931 25.4532 6.85309 24.3066 6.41309L17.6532 3.91976C16.7732 3.58643 15.2265 3.58643 14.3332 3.91976Z" fill="#00A14B"/>
<path d="M15.9999 15.5598C15.9733 15.5598 15.9466 15.5598 15.9066 15.5598C13.9732 15.5064 12.5599 14.0264 12.5599 12.2264C12.5599 10.3864 14.0666 8.87976 15.9066 8.87976C17.7466 8.87976 19.2533 10.3864 19.2533 12.2264C19.2399 14.0398 17.8266 15.5064 16.0266 15.5731C16.0132 15.5597 16.0133 15.5598 15.9999 15.5598ZM15.9066 10.8798C15.1599 10.8798 14.5599 11.4798 14.5599 12.2264C14.5599 12.9598 15.1333 13.5464 15.8533 13.5731C15.8533 13.5731 15.9199 13.5731 15.9999 13.5731C16.7066 13.5331 17.2533 12.9464 17.2533 12.2264C17.2666 11.4798 16.6532 10.8798 15.9066 10.8798Z" fill="#00A14B"/>
<path d="M15.9998 23.1331C14.8531 23.1331 13.6931 22.8264 12.7998 22.2264C11.9065 21.6398 11.3998 20.7731 11.3998 19.8531C11.3998 18.9331 11.9065 18.0664 12.7998 17.4664C14.5998 16.2664 17.4131 16.2798 19.1998 17.4664C20.0931 18.0531 20.5998 18.9197 20.5998 19.8397C20.5998 20.7597 20.0931 21.6264 19.1998 22.2264C18.3065 22.8264 17.1465 23.1331 15.9998 23.1331ZM13.9065 19.1197C13.5731 19.3331 13.3864 19.5997 13.3998 19.8397C13.3998 20.0797 13.5865 20.3464 13.9065 20.5598C15.0265 21.3064 16.9731 21.3064 18.0931 20.5598C18.4265 20.3464 18.6131 20.0797 18.6131 19.8397C18.6131 19.5997 18.4264 19.3331 18.1064 19.1197C16.9864 18.3864 15.0265 18.3864 13.9065 19.1197Z" fill="#00A14B"/>
</svg>
