<svg width="33" height="32" viewBox="0 0 33 32" fill="none" xmlns="http://www.w3.org/2000/svg">
<path d="M16.2703 30.3333C8.36368 30.3333 1.93701 23.9066 1.93701 16C1.93701 8.09329 8.36368 1.66663 16.2703 1.66663C24.177 1.66663 30.6037 8.09329 30.6037 16C30.6037 23.9066 24.177 30.3333 16.2703 30.3333ZM16.2703 3.66663C9.47034 3.66663 3.93701 9.19996 3.93701 16C3.93701 22.8 9.47034 28.3333 16.2703 28.3333C23.0703 28.3333 28.6037 22.8 28.6037 16C28.6037 9.19996 23.0703 3.66663 16.2703 3.66663Z" fill="#00A14B"/>
<path d="M12.2703 29H10.937C10.3903 29 9.937 28.5467 9.937 28C9.937 27.4533 10.3637 27.0133 10.9103 27C8.817 19.8533 8.817 12.1467 10.9103 5C10.3637 4.98667 9.937 4.54667 9.937 4C9.937 3.45333 10.3903 3 10.937 3H12.2703C12.5903 3 12.897 3.16 13.0837 3.41333C13.2703 3.68 13.3237 4.01333 13.217 4.32C10.7103 11.8533 10.7103 20.1467 13.217 27.6933C13.3237 28 13.2703 28.3333 13.0837 28.6C12.897 28.84 12.5903 29 12.2703 29Z" fill="#00A14B"/>
<path d="M20.2707 29C20.164 29 20.0574 28.9866 19.9507 28.9466C19.4307 28.7733 19.1374 28.2 19.324 27.68C21.8307 20.1466 21.8307 11.8533 19.324 4.30662C19.1507 3.78662 19.4307 3.21329 19.9507 3.03995C20.484 2.86662 21.044 3.14662 21.2174 3.66662C23.8707 11.6133 23.8707 20.36 21.2174 28.2933C21.084 28.7333 20.684 29 20.2707 29Z" fill="#00A14B"/>
<path d="M16.2705 22.9334C12.5505 22.9334 8.84384 22.4134 5.27051 21.3601C5.25717 21.8934 4.81717 22.3334 4.27051 22.3334C3.72384 22.3334 3.27051 21.8801 3.27051 21.3334V20.0001C3.27051 19.6801 3.43051 19.3734 3.68384 19.1867C3.95051 19.0001 4.28384 18.9467 4.59051 19.0534C12.1238 21.5601 20.4305 21.5601 27.9638 19.0534C28.2705 18.9467 28.6038 19.0001 28.8705 19.1867C29.1372 19.3734 29.2838 19.6801 29.2838 20.0001V21.3334C29.2838 21.8801 28.8305 22.3334 28.2838 22.3334C27.7372 22.3334 27.2972 21.9067 27.2838 21.3601C23.6972 22.4134 19.9905 22.9334 16.2705 22.9334Z" fill="#00A14B"/>
<path d="M28.2705 13C28.1639 13 28.0572 12.9867 27.9505 12.9467C20.4172 10.44 12.1105 10.44 4.57721 12.9467C4.04388 13.12 3.48388 12.84 3.31054 12.32C3.15054 11.7867 3.43054 11.2267 3.95054 11.0534C11.8972 8.40002 20.6439 8.40002 28.5772 11.0534C29.0972 11.2267 29.3905 11.8 29.2039 12.32C29.0839 12.7334 28.6839 13 28.2705 13Z" fill="#00A14B"/>
</svg>
