<svg width="33" height="18" viewBox="0 0 33 18" fill="none" xmlns="http://www.w3.org/2000/svg">
<path d="M20.5999 12.6801V12.506C20.5999 11.4958 20.5999 10.4856 20.5999 9.47547C20.5999 9.3492 20.6324 9.31285 20.7587 9.31667C21.2242 9.32433 21.6891 9.32433 22.1534 9.31667C22.2777 9.31667 22.3026 9.35302 22.3026 9.46973C22.3026 11.939 22.3026 14.4089 22.3026 16.8795C22.3026 16.9905 22.2739 17.0249 22.161 17.023C21.6961 17.023 21.2293 17.023 20.7644 17.023C20.6573 17.023 20.6266 16.9886 20.6324 16.8852C20.6381 16.7819 20.6324 16.6499 20.6324 16.5332C20.619 16.5332 20.6037 16.5332 20.6018 16.5332C20.1751 17.0919 19.584 17.2258 18.9296 17.1646C17.6134 17.0402 16.7792 15.8885 16.7754 14.7023C16.7754 13.7036 17.1389 12.8848 18.0304 12.3912C18.3791 12.1804 18.7813 12.0748 19.1885 12.087C19.5958 12.0992 19.9908 12.2287 20.3263 12.46C20.4213 12.5285 20.5126 12.602 20.5999 12.6801ZM20.663 14.6526C20.6645 14.4366 20.6016 14.2251 20.4823 14.045C20.3631 13.8649 20.1929 13.7245 19.9934 13.6416C19.794 13.5587 19.5744 13.5371 19.3626 13.5796C19.1508 13.622 18.9565 13.7267 18.8045 13.8801C18.6525 14.0335 18.5496 14.2287 18.509 14.4408C18.4684 14.653 18.492 14.8724 18.5766 15.0711C18.6613 15.2697 18.8032 15.4387 18.9844 15.5564C19.1655 15.674 19.3776 15.735 19.5935 15.7316C19.7364 15.7376 19.879 15.7138 20.0121 15.6616C20.1452 15.6094 20.266 15.5299 20.3667 15.4284C20.4673 15.3268 20.5457 15.2053 20.5967 15.0717C20.6477 14.9381 20.6703 14.7954 20.663 14.6526Z" fill="#00A14B"/>
<path d="M24.7268 7.57947C24.7268 7.80905 24.7268 8.00994 24.7268 8.21082C24.7373 8.52085 24.7316 8.83121 24.7096 9.14063C24.6798 9.37007 24.5697 9.58152 24.3988 9.73741C24.2278 9.8933 24.0071 9.98351 23.7759 9.992C23.5846 9.992 23.3933 9.992 23.202 9.992C23.07 9.992 23.0298 9.9633 23.0298 9.82747C23.0298 9.14255 23.0298 8.45762 23.0298 7.7727C23.0298 6.31294 23.0298 4.85318 23.0298 3.39341C23.0298 3.23462 23.0738 3.20209 23.2211 3.20209C23.6707 3.21357 24.1203 3.21166 24.5603 3.20209C24.6923 3.20209 24.7287 3.24036 24.7191 3.36471C24.7096 3.48907 24.7191 3.5943 24.7191 3.711C24.7459 3.711 24.7612 3.711 24.765 3.711C25.2816 3.02608 26.2956 2.90172 27.0743 3.23844C27.9716 3.62108 28.425 4.34044 28.5417 5.28173C28.5925 5.62943 28.5731 5.98379 28.4847 6.32389C28.3964 6.66398 28.2407 6.98292 28.027 7.26188C27.3345 8.17447 25.9952 8.43658 25.0654 7.83584C24.9471 7.75788 24.8339 7.67224 24.7268 7.57947ZM25.7695 4.54133C25.626 4.53247 25.4822 4.55366 25.3474 4.60355C25.2125 4.65343 25.0896 4.73092 24.9864 4.83104C24.8832 4.93116 24.802 5.05172 24.7481 5.185C24.6942 5.31828 24.6687 5.46135 24.6732 5.60506C24.682 5.88595 24.799 6.15258 24.9998 6.34916C25.2007 6.54573 25.4697 6.65702 25.7508 6.65974C26.0318 6.66246 26.303 6.5564 26.5076 6.36374C26.7122 6.17109 26.8343 5.90678 26.8485 5.6261C26.8541 5.48263 26.8301 5.33955 26.7779 5.20579C26.7257 5.07202 26.6466 4.95044 26.5453 4.84865C26.4441 4.74686 26.3229 4.66703 26.1894 4.61415C26.0559 4.56127 25.913 4.53648 25.7695 4.54133Z" fill="#00A14B"/>
<path d="M18.8782 3.7454C19.0866 3.46456 19.3807 3.25909 19.7161 3.15996C20.1693 3.03154 20.6511 3.04564 21.096 3.20033C21.5409 3.35503 21.9275 3.64284 22.2033 4.02473C22.5727 4.55213 22.7438 5.19314 22.6864 5.8345C22.629 6.47586 22.3468 7.07629 21.8895 7.52969C21.5442 7.84911 21.109 8.05472 20.6429 8.11871C20.1769 8.1827 19.7024 8.10197 19.2838 7.88745C19.1309 7.79967 18.9911 7.69083 18.8686 7.56413C18.8385 7.61407 18.8289 7.67371 18.8418 7.73057C18.8418 8.16487 18.8418 8.59725 18.8418 9.03154C18.8346 9.28296 18.7315 9.5221 18.5536 9.69996C18.3758 9.87781 18.1366 9.98091 17.8852 9.98814C17.6767 9.9977 17.4681 9.98814 17.2596 9.98814C17.1735 9.98814 17.1429 9.95561 17.1505 9.87526C17.1525 9.85362 17.1525 9.83185 17.1505 9.81021C17.1505 7.67126 17.1505 5.53232 17.1505 3.39337C17.1505 3.24606 17.1888 3.20205 17.3419 3.20205C17.7953 3.21162 18.2506 3.20205 18.7041 3.20205C18.8188 3.20205 18.8552 3.23458 18.8456 3.34746C18.8361 3.46034 18.8456 3.58852 18.8456 3.71096L18.8782 3.7454ZM18.7997 5.62033C18.7929 5.7638 18.8165 5.90709 18.869 6.04078C18.9215 6.17447 19.0018 6.29553 19.1044 6.396C19.207 6.49647 19.3298 6.57409 19.4646 6.62373C19.5993 6.67338 19.7431 6.69394 19.8864 6.68406C20.0299 6.69165 20.1734 6.66918 20.3076 6.61808C20.4419 6.56698 20.564 6.48839 20.6662 6.38733C20.7683 6.28628 20.8482 6.165 20.9007 6.03127C20.9532 5.89754 20.9772 5.75431 20.9712 5.61076C20.9748 5.46721 20.9487 5.32447 20.8947 5.19144C20.8406 5.05842 20.7597 4.93796 20.657 4.8376C20.5543 4.73724 20.432 4.65913 20.2978 4.60815C20.1636 4.55717 20.0203 4.5344 19.8768 4.54129C19.7333 4.53384 19.5897 4.55666 19.4555 4.60828C19.3214 4.6599 19.1995 4.73916 19.0979 4.84091C18.9964 4.94266 18.9173 5.06463 18.866 5.19891C18.8146 5.33318 18.792 5.47676 18.7997 5.62033Z" fill="#00A14B"/>
<path d="M1.03568 5.91881C1.30935 6.16542 1.62317 6.36342 1.96358 6.50425C2.28251 6.63423 2.63326 6.66491 2.96991 6.59225C3.11585 6.55915 3.24889 6.48399 3.35255 6.37606C3.41265 6.31826 3.45943 6.24806 3.48964 6.17034C3.51985 6.09262 3.53277 6.00926 3.52749 5.92604C3.52221 5.84282 3.49886 5.76176 3.45906 5.68848C3.41927 5.6152 3.36399 5.55148 3.29707 5.50174C3.08265 5.34992 2.84102 5.2408 2.58536 5.18032C2.22513 5.08421 1.87116 4.96601 1.52545 4.82638C1.2343 4.71357 0.983947 4.51554 0.807136 4.25818C0.630325 4.00081 0.535279 3.69608 0.534423 3.38384C0.492332 2.65491 0.654954 2.00443 1.18108 1.47065C1.57186 1.08304 2.09127 0.85227 2.64084 0.822077C3.44987 0.776221 4.25766 0.931338 4.99215 1.27359C5.08207 1.31377 5.12034 1.35012 5.06103 1.45152C4.98259 1.58353 4.92137 1.72702 4.84866 1.86285C4.74507 2.06701 4.5746 2.22948 4.3657 2.32314C4.1568 2.41679 3.92209 2.43598 3.70075 2.3775C3.49868 2.32441 3.28935 2.30439 3.08088 2.31819C2.94493 2.33241 2.81404 2.37757 2.69824 2.4502C2.61513 2.49032 2.54488 2.55285 2.4954 2.63075C2.44593 2.70865 2.41918 2.79882 2.41819 2.89109C2.41719 2.98337 2.44199 3.07409 2.48978 3.15304C2.53757 3.23199 2.60645 3.29602 2.68867 3.33792C2.92886 3.47251 3.18634 3.57358 3.45395 3.63829C3.73781 3.71843 4.0164 3.81619 4.2881 3.93101C4.67098 4.08037 4.9914 4.35599 5.19632 4.71224C5.40123 5.0685 5.47837 5.48405 5.41497 5.89011C5.39811 6.37127 5.24046 6.83692 4.96154 7.22935C4.55509 7.72879 3.97077 8.05113 3.33151 8.12854C2.28643 8.29113 1.21874 8.04816 0.34693 7.44936C0.281882 7.40727 0.243618 7.37666 0.291448 7.28866C0.540162 6.84097 0.781224 6.38754 1.03568 5.91881Z" fill="#00A14B"/>
<path d="M14.9903 7.4513C14.3149 8.38111 12.8858 8.30076 12.0669 7.65601C10.7277 6.59611 10.8195 4.33089 12.2583 3.4183C13.0771 2.90174 14.2556 2.96487 14.9023 3.60962C14.9023 3.60962 14.9214 3.60962 14.9406 3.62684C14.9678 3.5305 14.9782 3.43017 14.9712 3.33029C14.9712 3.24994 14.9941 3.21933 15.0802 3.21933C15.5776 3.21933 16.0751 3.21933 16.5725 3.21933C16.6567 3.21933 16.6816 3.24994 16.6816 3.33029C16.6816 4.58152 16.6816 5.83274 16.6816 7.08206C16.6671 7.32218 16.5644 7.54847 16.3931 7.71733C16.2217 7.88618 15.994 7.98565 15.7537 7.99656C15.5394 7.99656 15.3251 7.99656 15.1127 7.99656C15.0209 7.99656 14.9884 7.96786 14.9941 7.87794C15.0018 7.75741 14.9903 7.62349 14.9903 7.4513ZM15.0113 5.61081C14.9996 5.33024 14.8798 5.06508 14.6771 4.87072C14.4745 4.67635 14.2045 4.56784 13.9237 4.56784C13.6429 4.56784 13.3729 4.67635 13.1702 4.87072C12.9675 5.06508 12.8478 5.33024 12.836 5.61081C12.8478 5.89138 12.9675 6.15655 13.1702 6.35091C13.3729 6.54527 13.6429 6.65379 13.9237 6.65379C14.2045 6.65379 14.4745 6.54527 14.6771 6.35091C14.8798 6.15655 14.9996 5.89138 15.0113 5.61081Z" fill="#00A14B"/>
<path d="M7.73191 17.1894C6.97061 17.2195 6.22575 16.9628 5.64462 16.4701C5.36348 16.2244 5.14561 15.9146 5.00942 15.567C4.87322 15.2193 4.8227 14.844 4.86213 14.4727C4.94439 13.1756 5.90481 12.3931 7.04699 12.1769C7.82268 12.0103 8.63235 12.1249 9.33134 12.5002C9.73922 12.7061 10.0773 13.0278 10.3033 13.4249C10.5292 13.8221 10.633 14.277 10.6017 14.7329C10.5749 15.7756 10.0277 16.4988 9.09219 16.9216C8.66441 17.1112 8.19964 17.2027 7.73191 17.1894ZM6.64139 14.6602C6.63493 14.8042 6.65887 14.948 6.71165 15.0822C6.76443 15.2164 6.84487 15.338 6.94773 15.4391C7.05059 15.5401 7.17358 15.6184 7.30868 15.6688C7.44379 15.7192 7.58799 15.7406 7.73191 15.7316C8.01555 15.7316 8.28758 15.6189 8.48814 15.4183C8.68871 15.2178 8.80138 14.9457 8.80138 14.6621C8.80138 14.3785 8.68871 14.1064 8.48814 13.9059C8.28758 13.7053 8.01555 13.5926 7.73191 13.5926C7.58819 13.5831 7.44406 13.6039 7.30896 13.6539C7.17385 13.7038 7.05081 13.7817 6.94788 13.8825C6.84495 13.9833 6.76444 14.1046 6.71163 14.2386C6.65882 14.3726 6.63488 14.5163 6.64139 14.6602Z" fill="#00A14B"/>
<path d="M13.6743 17.1913C12.8268 17.1913 12.0634 16.954 11.4474 16.3399C10.4735 15.368 10.4793 13.2788 12.1571 12.46C12.6263 12.2205 13.1456 12.0956 13.6724 12.0956C14.1992 12.0956 14.7185 12.2205 15.1876 12.46C16.127 12.9172 16.5747 13.7093 16.5403 14.7443C16.5058 15.7793 15.9663 16.4987 15.0327 16.9196C14.605 17.1079 14.1415 17.2006 13.6743 17.1913ZM13.6628 13.5868C13.4521 13.5913 13.2474 13.658 13.0745 13.7785C12.9015 13.899 12.768 14.0679 12.6908 14.264C12.6135 14.4601 12.5959 14.6747 12.6402 14.8808C12.6845 15.0868 12.7887 15.2752 12.9397 15.4223C13.0907 15.5693 13.2818 15.6685 13.489 15.7073C13.6962 15.746 13.9102 15.7227 14.1042 15.6403C14.2981 15.5578 14.4634 15.4199 14.5793 15.2438C14.6951 15.0677 14.7563 14.8613 14.7553 14.6506C14.7606 14.507 14.7358 14.3638 14.6824 14.2304C14.6291 14.097 14.5483 13.9763 14.4453 13.876C14.3424 13.7758 14.2195 13.6982 14.0848 13.6484C13.95 13.5986 13.8062 13.5776 13.6628 13.5868Z" fill="#00A14B"/>
<path d="M0.796715 13.5276C0.796715 12.4141 0.796715 11.3025 0.796715 10.191C0.796715 10.0628 0.819673 10.0188 0.959336 10.0207C2.19526 10.0207 3.43054 10.0207 4.66518 10.0207C4.79337 10.0207 4.82398 10.059 4.82207 10.1814C4.82207 10.587 4.81059 10.9945 4.82207 11.4001C4.82207 11.5512 4.77232 11.5723 4.64031 11.5723C4.02044 11.5723 3.40057 11.5723 2.78069 11.5723C2.65633 11.5723 2.61424 11.601 2.61807 11.7311C2.62764 12.0181 2.61807 12.305 2.61807 12.5958C2.61807 12.7068 2.64868 12.7432 2.76156 12.7412C3.32404 12.7412 3.8846 12.7412 4.44708 12.7412C4.57335 12.7412 4.62309 12.7661 4.61927 12.9058C4.61034 13.3165 4.61034 13.7278 4.61927 14.1398C4.61927 14.2814 4.57335 14.3062 4.44708 14.3043C3.89034 14.3043 3.33552 14.3043 2.77878 14.3043C2.65251 14.3043 2.61807 14.3368 2.61807 14.4631C2.61807 15.2647 2.61807 16.0664 2.61807 16.868C2.61807 17.0038 2.59511 17.0593 2.44588 17.0593C1.94845 17.0504 1.45103 17.0504 0.953597 17.0593C0.81776 17.0593 0.789062 17.0191 0.789062 16.889C0.800542 15.7507 0.796715 14.6391 0.796715 13.5276Z" fill="#00A14B"/>
<path d="M7.48134 3.84686C7.4839 3.82508 7.48971 3.8038 7.49856 3.78373C7.89268 3.2002 8.47238 3.03758 9.13434 3.07585C9.28361 3.08499 9.43163 3.1087 9.57629 3.14663C10.2497 3.32073 10.6649 3.83347 10.7452 4.58918C10.8179 5.28175 10.7625 5.97815 10.7778 6.67264C10.7864 6.82767 10.7826 6.98314 10.7663 7.13755C10.7319 7.37869 10.6106 7.59898 10.4254 7.75713C10.2401 7.91528 10.0035 8.00041 9.75995 7.99657C9.58394 7.99657 9.40793 7.99657 9.23191 7.99657C9.10755 7.99657 9.07886 7.95639 9.08077 7.83969C9.08077 7.07441 9.08077 6.30467 9.08077 5.53047C9.08862 5.35903 9.07901 5.18723 9.05207 5.01773C9.03843 4.86119 8.96954 4.7146 8.85773 4.60419C8.74591 4.49378 8.59847 4.42675 8.44176 4.41508C8.26986 4.3805 8.09136 4.40311 7.9335 4.47945C7.77563 4.55579 7.64708 4.68167 7.56744 4.83789C7.47987 5.03394 7.43675 5.24693 7.44117 5.46159C7.44117 5.95328 7.44117 6.44497 7.44117 6.93666C7.44751 7.07483 7.42535 7.21283 7.37607 7.34207C7.32679 7.47132 7.25144 7.58904 7.15472 7.68791C7.058 7.78679 6.94197 7.86471 6.81384 7.91682C6.68571 7.96893 6.54824 7.99412 6.40996 7.99083C6.24351 7.99083 6.07706 7.99083 5.91253 7.99083C5.77861 7.99083 5.74034 7.9583 5.74226 7.82247C5.74226 6.48324 5.74226 5.1287 5.74226 3.7799C5.74226 3.63641 5.74226 3.49101 5.74226 3.34752C5.74226 3.24803 5.76139 3.20594 5.87427 3.20786C6.34874 3.20786 6.83086 3.20786 7.3015 3.20786C7.39716 3.20786 7.43543 3.23273 7.42969 3.33413C7.42969 3.49101 7.42969 3.64789 7.42969 3.80668L7.48134 3.84686Z" fill="#00A14B"/>
<path d="M29.9785 5.50179C29.8351 5.50179 29.6897 5.50179 29.5462 5.50179C29.4027 5.50179 29.4046 5.46926 29.4352 5.35639C29.5787 4.82069 29.7126 4.28309 29.8504 3.74548C30.0704 2.88263 30.2942 2.02361 30.5104 1.15694C30.5391 1.04215 30.5793 0.992403 30.7017 0.994316C31.1839 1.00388 31.6583 0.994316 32.1443 0.994316C32.2533 0.994316 32.282 1.01727 32.2533 1.13207C31.951 2.31442 31.6564 3.49868 31.3541 4.68294C31.3064 4.92199 31.1745 5.13601 30.9826 5.28623C30.7906 5.43644 30.5511 5.51292 30.3076 5.50179H29.9785Z" fill="#00A14B"/>
<path d="M31.0596 7.10308C31.0478 7.38315 30.9283 7.64784 30.726 7.84185C30.5236 8.03586 30.2542 8.14418 29.9738 8.14418C29.6935 8.14418 29.424 8.03586 29.2217 7.84185C29.0194 7.64784 28.8999 7.38315 28.8881 7.10308C28.8821 6.95828 28.9063 6.81382 28.9592 6.67888C29.012 6.54394 29.0924 6.42147 29.1951 6.31926C29.2979 6.21706 29.4207 6.13735 29.556 6.08521C29.6912 6.03306 29.8358 6.00963 29.9805 6.01639C30.1251 6.00794 30.2698 6.03033 30.4051 6.08206C30.5403 6.13379 30.663 6.21368 30.7651 6.31644C30.8671 6.4192 30.9461 6.54247 30.9969 6.67809C31.0477 6.81371 31.069 6.95858 31.0596 7.10308Z" fill="#00A14B"/>
</svg>
