<svg width="32" height="32" viewBox="0 0 32 32" fill="none" xmlns="http://www.w3.org/2000/svg">
<path d="M23.4933 12.8264H16.4933C15.9467 12.8264 15.4933 12.3731 15.4933 11.8264C15.4933 11.2797 15.9467 10.8264 16.4933 10.8264H23.4933C24.04 10.8264 24.4933 11.2797 24.4933 11.8264C24.4933 12.3731 24.0533 12.8264 23.4933 12.8264Z" fill="#00A14B"/>
<path d="M9.49331 13.8398C9.23998 13.8398 8.98664 13.7465 8.78664 13.5465L7.78664 12.5465C7.39998 12.1598 7.39998 11.5198 7.78664 11.1331C8.17331 10.7465 8.81331 10.7465 9.19998 11.1331L9.49331 11.4265L11.7866 9.13314C12.1733 8.74647 12.8133 8.74647 13.2 9.13314C13.5866 9.51981 13.5866 10.1598 13.2 10.5465L10.2 13.5465C10.0133 13.7331 9.75998 13.8398 9.49331 13.8398Z" fill="#00A14B"/>
<path d="M23.4933 22.1598H16.4933C15.9467 22.1598 15.4933 21.7065 15.4933 21.1598C15.4933 20.6131 15.9467 20.1598 16.4933 20.1598H23.4933C24.04 20.1598 24.4933 20.6131 24.4933 21.1598C24.4933 21.7065 24.0533 22.1598 23.4933 22.1598Z" fill="#00A14B"/>
<path d="M9.49331 23.1731C9.23998 23.1731 8.98664 23.0797 8.78664 22.8797L7.78664 21.8797C7.39998 21.4931 7.39998 20.8531 7.78664 20.4664C8.17331 20.0797 8.81331 20.0797 9.19998 20.4664L9.49331 20.7597L11.7866 18.4664C12.1733 18.0797 12.8133 18.0797 13.2 18.4664C13.5866 18.8531 13.5866 19.4931 13.2 19.8797L10.2 22.8797C10.0133 23.0664 9.75998 23.1731 9.49331 23.1731Z" fill="#00A14B"/>
<path d="M20 30.333H12C4.76002 30.333 1.66669 27.2397 1.66669 19.9997V11.9997C1.66669 4.75972 4.76002 1.66638 12 1.66638H20C27.24 1.66638 30.3334 4.75972 30.3334 11.9997V19.9997C30.3334 27.2397 27.24 30.333 20 30.333ZM12 3.66638C5.85335 3.66638 3.66669 5.85305 3.66669 11.9997V19.9997C3.66669 26.1464 5.85335 28.333 12 28.333H20C26.1467 28.333 28.3334 26.1464 28.3334 19.9997V11.9997C28.3334 5.85305 26.1467 3.66638 20 3.66638H12Z" fill="#00A14B"/>
</svg>
