<svg width="528" height="65" viewBox="0 0 528 65" fill="none" xmlns="http://www.w3.org/2000/svg">
<path opacity="0.05" d="M0.712891 64V0.015625H23.125C30.8887 0.015625 36.7773 1.50977 40.791 4.49805C44.8047 7.45703 46.8115 11.8076 46.8115 17.5498C46.8115 20.6846 46.0059 23.4531 44.3945 25.8555C42.7832 28.2285 40.542 29.9717 37.6709 31.085C40.9521 31.9053 43.5303 33.5605 45.4053 36.0508C47.3096 38.541 48.2617 41.5879 48.2617 45.1914C48.2617 51.3438 46.2988 56.002 42.373 59.166C38.4473 62.3301 32.8516 63.9414 25.5859 64H0.712891ZM13.8965 36.1387V53.4092H25.1904C28.2959 53.4092 30.7129 52.6768 32.4414 51.2119C34.1992 49.7178 35.0781 47.667 35.0781 45.0596C35.0781 39.2002 32.0459 36.2266 25.9814 36.1387H13.8965ZM13.8965 26.8223H23.6523C30.3027 26.7051 33.6279 24.0537 33.6279 18.8682C33.6279 15.9678 32.7783 13.8877 31.0791 12.6279C29.4092 11.3389 26.7578 10.6943 23.125 10.6943H13.8965V26.8223ZM96.6895 36.2705H71.377V53.4092H101.084V64H58.1934V0.015625H100.996V10.6943H71.377V25.9434H96.6895V36.2705ZM185.459 64H172.275L146.611 21.9004V64H133.428V0.015625H146.611L172.319 42.2031V0.015625H185.459V64ZM233.887 50.8164H210.771L206.377 64H192.358L216.177 0.015625H228.394L252.344 64H238.325L233.887 50.8164ZM214.331 40.1377H230.327L222.285 16.1875L214.331 40.1377ZM301.211 10.6943H281.611V64H268.428V10.6943H249.092V0.015625H301.211V10.6943ZM357.197 0.015625V42.1592C357.197 49.1611 355 54.6982 350.605 58.7705C346.24 62.8428 340.264 64.8789 332.676 64.8789C325.205 64.8789 319.272 62.9014 314.878 58.9463C310.483 54.9912 308.242 49.5566 308.154 42.6426V0.015625H321.338V42.2471C321.338 46.4365 322.334 49.498 324.326 51.4316C326.348 53.3359 329.131 54.2881 332.676 54.2881C340.088 54.2881 343.853 50.3916 343.97 42.5986V0.015625H357.197ZM391.694 40.5771H381.191V64H368.008V0.015625H391.782C399.341 0.015625 405.171 1.7002 409.272 5.06934C413.374 8.43848 415.425 13.1992 415.425 19.3516C415.425 23.7168 414.473 27.3643 412.568 30.2939C410.693 33.1943 407.837 35.5088 403.999 37.2373L417.842 63.3848V64H403.691L391.694 40.5771ZM381.191 29.8984H391.826C395.137 29.8984 397.7 29.0635 399.517 27.3936C401.333 25.6943 402.241 23.3652 402.241 20.4062C402.241 17.3887 401.377 15.0156 399.648 13.2871C397.949 11.5586 395.327 10.6943 391.782 10.6943H381.191V29.8984ZM461.611 50.8164H438.496L434.102 64H420.083L443.901 0.015625H456.118L480.068 64H466.05L461.611 50.8164ZM442.056 40.1377H458.052L450.01 16.1875L442.056 40.1377ZM499.229 53.4092H527.222V64H486.045V0.015625H499.229V53.4092Z" fill="#669D24"/>
</svg>
