<svg width="25" height="24" viewBox="0 0 25 24" fill="none" xmlns="http://www.w3.org/2000/svg">
<path d="M12.2705 22.75C6.34051 22.75 1.52051 17.93 1.52051 12C1.52051 6.07 6.34051 1.25 12.2705 1.25C18.2005 1.25 23.0205 6.07 23.0205 12C23.0205 17.93 18.2005 22.75 12.2705 22.75ZM12.2705 2.75C7.17051 2.75 3.02051 6.9 3.02051 12C3.02051 17.1 7.17051 21.25 12.2705 21.25C17.3705 21.25 21.5205 17.1 21.5205 12C21.5205 6.9 17.3705 2.75 12.2705 2.75Z" fill="#00A14B"/>
<path d="M15.9802 15.93C15.8502 15.93 15.7202 15.9 15.6002 15.82L12.5002 13.97C11.7302 13.51 11.1602 12.5 11.1602 11.61V7.51001C11.1602 7.10001 11.5002 6.76001 11.9102 6.76001C12.3202 6.76001 12.6602 7.10001 12.6602 7.51001V11.61C12.6602 11.97 12.9602 12.5 13.2702 12.68L16.3702 14.53C16.7302 14.74 16.8402 15.2 16.6302 15.56C16.4802 15.8 16.2302 15.93 15.9802 15.93Z" fill="#00A14B"/>
</svg>
