<svg width="33" height="32" viewBox="0 0 33 32" fill="none" xmlns="http://www.w3.org/2000/svg">
<path d="M16.9308 17.04C16.8375 17.0266 16.7175 17.0266 16.6108 17.04C14.2641 16.96 12.3975 15.04 12.3975 12.68C12.3975 10.2666 14.3441 8.30664 16.7708 8.30664C19.1841 8.30664 21.1441 10.2666 21.1441 12.68C21.1308 15.04 19.2775 16.96 16.9308 17.04Z" stroke="#00A14B" stroke-width="1.5" stroke-linecap="round" stroke-linejoin="round"/>
<path d="M25.7575 25.84C23.3842 28.0133 20.2375 29.3333 16.7708 29.3333C13.3042 29.3333 10.1575 28.0133 7.78418 25.84C7.91751 24.5866 8.71751 23.36 10.1442 22.4C13.7975 19.9733 19.7708 19.9733 23.3975 22.4C24.8242 23.36 25.6242 24.5866 25.7575 25.84Z" stroke="#00A14B" stroke-width="1.5" stroke-linecap="round" stroke-linejoin="round"/>
<path d="M16.7708 29.3333C24.1346 29.3333 30.1042 23.3638 30.1042 16C30.1042 8.63616 24.1346 2.66663 16.7708 2.66663C9.40704 2.66663 3.4375 8.63616 3.4375 16C3.4375 23.3638 9.40704 29.3333 16.7708 29.3333Z" stroke="#00A14B" stroke-width="1.5" stroke-linecap="round" stroke-linejoin="round"/>
</svg>
