<svg width="16" height="17" viewBox="0 0 16 17" fill="none" xmlns="http://www.w3.org/2000/svg">
<path d="M1.33336 15.3981C1.20003 15.3981 1.07334 15.3448 0.980012 15.2514C0.853345 15.1248 0.800044 14.9381 0.846711 14.7648L1.68672 11.6248C1.12672 10.5848 0.833364 9.41144 0.833364 8.22477C0.833364 4.27144 4.0467 1.05811 8.00003 1.05811C11.9534 1.05811 15.1667 4.27144 15.1667 8.22477C15.1667 12.1781 11.9534 15.3914 8.00003 15.3914C6.79336 15.3914 5.61338 15.0914 4.56005 14.5181L1.46671 15.3781C1.42004 15.3914 1.38003 15.3981 1.33336 15.3981ZM4.6267 13.4848C4.71337 13.4848 4.80004 13.5115 4.88004 13.5515C5.82004 14.1048 6.90003 14.3981 8.00003 14.3981C11.4 14.3981 14.1667 11.6314 14.1667 8.23145C14.1667 4.83145 11.4 2.06478 8.00003 2.06478C4.60003 2.06478 1.83336 4.83145 1.83336 8.23145C1.83336 9.31811 2.12002 10.3781 2.66002 11.3114C2.72669 11.4248 2.7467 11.5648 2.71337 11.6914L2.0467 14.1848L4.50003 13.5048C4.54003 13.4914 4.5867 13.4848 4.6267 13.4848Z" fill="white"/>
<path d="M9.82664 12.0715C9.41331 12.0715 8.98664 11.9781 8.53998 11.7848C8.11998 11.6048 7.69998 11.3648 7.29331 11.0648C6.89331 10.7715 6.49999 10.4381 6.13999 10.0781C5.77999 9.71147 5.44663 9.32481 5.1533 8.92481C4.8533 8.50481 4.6133 8.09147 4.43996 7.6848C4.2533 7.2448 4.15997 6.81147 4.15997 6.39814C4.15997 6.10481 4.21329 5.82481 4.31329 5.56481C4.41996 5.29147 4.5933 5.0448 4.81997 4.83147C5.24663 4.41147 5.85999 4.25815 6.34666 4.49148C6.51333 4.56482 6.65332 4.68482 6.75999 4.84482L7.5333 5.93147C7.6133 6.03813 7.67332 6.15147 7.71999 6.2648C7.77332 6.39813 7.80666 6.53148 7.80666 6.65815C7.80666 6.83148 7.75998 7.00482 7.66665 7.15815C7.60665 7.25815 7.51997 7.37815 7.40664 7.49148L7.31997 7.58481C7.35997 7.63814 7.40663 7.7048 7.47996 7.7848C7.61996 7.9448 7.7733 8.11813 7.93996 8.2848C8.10663 8.4448 8.2733 8.6048 8.43996 8.7448C8.51996 8.81147 8.58666 8.86481 8.63999 8.89814L8.7333 8.8048C8.8533 8.6848 8.97332 8.59148 9.09332 8.53148C9.31332 8.39148 9.65331 8.35814 9.95331 8.48481C10.06 8.52481 10.1666 8.5848 10.28 8.6648L11.3933 9.45146C11.5467 9.55813 11.6666 9.7048 11.7466 9.87147C11.8133 10.0381 11.84 10.1848 11.84 10.3381C11.84 10.5381 11.7933 10.7315 11.7066 10.9181C11.62 11.0915 11.52 11.2448 11.4 11.3848C11.1866 11.6181 10.94 11.7915 10.6733 11.9048C10.4067 12.0181 10.12 12.0715 9.82664 12.0715ZM5.85997 5.39147C5.81997 5.39147 5.68667 5.39147 5.52 5.55813C5.39333 5.67813 5.30664 5.80481 5.24664 5.94481C5.18664 6.08481 5.15997 6.24481 5.15997 6.40481C5.15997 6.68481 5.22663 6.9848 5.35997 7.3048C5.49997 7.63813 5.70665 7.99148 5.95998 8.34482C6.21998 8.69815 6.51332 9.05147 6.83999 9.37814C7.16665 9.69814 7.51331 9.99813 7.87331 10.2648C8.21998 10.5181 8.57332 10.7181 8.92666 10.8715C9.43332 11.0915 9.89997 11.1448 10.28 10.9848C10.4133 10.9315 10.5333 10.8381 10.6533 10.7181C10.7133 10.6515 10.76 10.5848 10.8 10.4981C10.82 10.4515 10.8333 10.3981 10.8333 10.3515C10.8333 10.3381 10.8333 10.3181 10.8133 10.2781L9.69997 9.50481C9.65331 9.47148 9.60663 9.4448 9.56663 9.43147C9.53996 9.4448 9.49999 9.4648 9.42666 9.53813L9.17332 9.79147C8.97999 9.9848 8.67332 10.0381 8.42666 9.95146L8.30666 9.89814C8.15333 9.81814 7.97997 9.69815 7.78664 9.53148C7.59997 9.37148 7.42 9.2048 7.22666 9.01814C7.04 8.8248 6.87332 8.6448 6.71332 8.45814C6.53998 8.25147 6.41999 8.08481 6.33999 7.94481L6.26666 7.77147C6.24666 7.70481 6.23997 7.63147 6.23997 7.56481C6.23997 7.37814 6.30666 7.21147 6.43333 7.07813L6.68667 6.81814C6.76 6.74481 6.78665 6.70482 6.79999 6.67815C6.77999 6.63148 6.75332 6.59147 6.71999 6.54481L5.93996 5.44481L5.85997 5.39147Z" fill="white"/>
</svg>
