<svg width="16" height="17" viewBox="0 0 16 17" fill="none" xmlns="http://www.w3.org/2000/svg">
<path d="M11.3333 14.0649H4.66665C2.37331 14.0649 0.833313 12.5249 0.833313 10.2315V6.23153C0.833313 3.93819 2.37331 2.39819 4.66665 2.39819H11.3333C13.6266 2.39819 15.1666 3.93819 15.1666 6.23153V10.2315C15.1666 12.5249 13.6266 14.0649 11.3333 14.0649ZM4.66665 3.39819C2.94665 3.39819 1.83331 4.51153 1.83331 6.23153V10.2315C1.83331 11.9515 2.94665 13.0649 4.66665 13.0649H11.3333C13.0533 13.0649 14.1666 11.9515 14.1666 10.2315V6.23153C14.1666 4.51153 13.0533 3.39819 11.3333 3.39819H4.66665Z" fill="white"/>
<path d="M7.06 10.5848C6.86666 10.5848 6.67999 10.5382 6.51333 10.4448C6.12666 10.2248 5.89996 9.77817 5.89996 9.22484V7.25151C5.89996 6.69818 6.11999 6.25152 6.51333 6.03152C6.89999 5.81152 7.39998 5.8515 7.87331 6.13817L9.52 7.12484C9.97333 7.39817 10.2333 7.80485 10.2333 8.23818C10.2333 8.67152 9.97333 9.07817 9.52 9.3515L7.87331 10.3382C7.59998 10.4982 7.32 10.5848 7.06 10.5848ZM7.06 6.87818C7.03333 6.87818 7.01331 6.88484 6.99998 6.8915C6.95331 6.91817 6.89996 7.03817 6.89996 7.24484V9.21818C6.89996 9.41818 6.95331 9.53818 6.99998 9.57152C7.05331 9.59818 7.18 9.58484 7.35333 9.47817L8.99998 8.49152C9.16665 8.39152 9.22666 8.29151 9.22666 8.23151C9.22666 8.17151 9.16665 8.07817 8.99998 7.9715L7.35333 6.98485C7.23333 6.91151 7.12666 6.87818 7.06 6.87818Z" fill="white"/>
</svg>
