<svg width="16" height="16" viewBox="0 0 16 16" fill="none" xmlns="http://www.w3.org/2000/svg">
<g clip-path="url(#clip0_61_7247)">
<path d="M7.99988 0.731442C6.63321 0.731442 5.37488 1.06478 4.22488 1.73144C3.07488 2.39811 2.16654 3.30644 1.49988 4.45644C0.833211 5.60644 0.499878 6.86478 0.499878 8.23144C0.499878 9.59811 0.833211 10.8564 1.49988 12.0064C2.16654 13.1564 3.07488 14.0648 4.22488 14.7314C5.37488 15.3981 6.63321 15.7314 7.99988 15.7314C9.36655 15.7314 10.6249 15.3981 11.7749 14.7314C12.9249 14.0648 13.8332 13.1564 14.4999 12.0064C15.1665 10.8564 15.4999 9.59811 15.4999 8.23144C15.4999 6.86478 15.1665 5.60644 14.4999 4.45644C13.8332 3.30644 12.9249 2.39811 11.7749 1.73144C10.6249 1.06478 9.36655 0.731442 7.99988 0.731442ZM7.99988 14.4814C6.86655 14.4814 5.82488 14.1981 4.87488 13.6314C3.92488 13.0648 3.16654 12.3064 2.59988 11.3564C2.03321 10.4064 1.74988 9.36478 1.74988 8.23144C1.74988 7.09811 2.03321 6.05644 2.59988 5.10644C3.16654 4.15644 3.92488 3.39811 4.87488 2.83144C5.82488 2.26478 6.86655 1.98144 7.99988 1.98144C9.13321 1.98144 10.1749 2.26478 11.1249 2.83144C12.0749 3.39811 12.8332 4.15644 13.3999 5.10644C13.9665 6.05644 14.2499 7.09811 14.2499 8.23144C14.2499 9.36478 13.9665 10.4064 13.3999 11.3564C12.8332 12.3064 12.0749 13.0648 11.1249 13.6314C10.1749 14.1981 9.13321 14.4814 7.99988 14.4814ZM7.99988 4.48144C7.83321 4.48144 7.68321 4.53978 7.54988 4.65644C7.41655 4.77311 7.34988 4.91478 7.34988 5.08144V7.83144L5.24988 9.13144C5.11655 9.23144 5.03321 9.36478 4.99988 9.53144C4.96655 9.69811 4.99155 9.85644 5.07488 10.0064C5.15821 10.1564 5.28321 10.2481 5.44988 10.2814C5.61655 10.3148 5.78321 10.2814 5.94988 10.1814L8.34988 8.68144C8.54988 8.54811 8.64988 8.36478 8.64988 8.13144V5.08144C8.64988 4.91478 8.58321 4.77311 8.44988 4.65644C8.31655 4.53978 8.16655 4.48144 7.99988 4.48144Z" fill="white"/>
</g>
<defs>
<clipPath id="clip0_61_7247">
<rect width="15" height="15" fill="white" transform="matrix(1 0 0 -1 0.499908 15.7314)"/>
</clipPath>
</defs>
</svg>
