<svg width="16" height="17" viewBox="0 0 16 17" fill="none" xmlns="http://www.w3.org/2000/svg">
<path d="M9.99998 15.398H5.99998C2.37998 15.398 0.833313 13.8514 0.833313 10.2314V6.23136C0.833313 2.61136 2.37998 1.0647 5.99998 1.0647H9.99998C13.62 1.0647 15.1666 2.61136 15.1666 6.23136V10.2314C15.1666 13.8514 13.62 15.398 9.99998 15.398ZM5.99998 2.0647C2.92665 2.0647 1.83331 3.15803 1.83331 6.23136V10.2314C1.83331 13.3047 2.92665 14.398 5.99998 14.398H9.99998C13.0733 14.398 14.1666 13.3047 14.1666 10.2314V6.23136C14.1666 3.15803 13.0733 2.0647 9.99998 2.0647H5.99998Z" fill="white"/>
<path d="M8.00002 11.0649C6.44002 11.0649 5.16669 9.79153 5.16669 8.23153C5.16669 6.67153 6.44002 5.39819 8.00002 5.39819C9.56002 5.39819 10.8334 6.67153 10.8334 8.23153C10.8334 9.79153 9.56002 11.0649 8.00002 11.0649ZM8.00002 6.39819C6.98669 6.39819 6.16669 7.21819 6.16669 8.23153C6.16669 9.24486 6.98669 10.0649 8.00002 10.0649C9.01335 10.0649 9.83335 9.24486 9.83335 8.23153C9.83335 7.21819 9.01335 6.39819 8.00002 6.39819Z" fill="white"/>
<path d="M11.3334 5.23138C11.2467 5.23138 11.16 5.21138 11.08 5.17805C11 5.14471 10.9267 5.09805 10.86 5.03805C10.8 4.97138 10.7467 4.89805 10.7134 4.81805C10.68 4.73805 10.6667 4.65138 10.6667 4.56471C10.6667 4.47805 10.68 4.39138 10.7134 4.31138C10.7534 4.22471 10.8 4.15805 10.86 4.09138C10.8934 4.06471 10.9267 4.03138 10.96 4.01138C11 3.98471 11.04 3.96471 11.08 3.95138C11.12 3.93138 11.16 3.91805 11.2067 3.91138C11.42 3.86471 11.6467 3.93805 11.8067 4.09138C11.8667 4.15805 11.9134 4.22471 11.9467 4.31138C11.98 4.39138 12 4.47805 12 4.56471C12 4.65138 11.98 4.73805 11.9467 4.81805C11.9134 4.89805 11.8667 4.97138 11.8067 5.03805C11.74 5.09805 11.6667 5.14471 11.5867 5.17805C11.5067 5.21138 11.42 5.23138 11.3334 5.23138Z" fill="white"/>
</svg>
