<svg width="65" height="74" viewBox="0 0 65 74" fill="none" xmlns="http://www.w3.org/2000/svg">
<g clip-path="url(#clip0_50_256)">
<path d="M65 11.5625V18.5C65 24.8883 50.4475 30.0625 32.5 30.0625C14.5525 30.0625 0 24.8883 0 18.5V11.5625C0 5.17422 14.5525 0 32.5 0C50.4475 0 65 5.17422 65 11.5625ZM57.0491 31.0309C60.067 29.9613 62.8382 28.5883 65 26.8973V41.625C65 48.0133 50.4475 53.1875 32.5 53.1875C14.5525 53.1875 0 48.0133 0 41.625V26.8973C2.16183 28.6027 4.93304 29.9613 7.95089 31.0309C14.4654 33.3434 23.1417 34.6875 32.5 34.6875C41.8583 34.6875 50.5346 33.3434 57.0491 31.0309ZM0 50.0223C2.16183 51.7277 4.93304 53.0863 7.95089 54.1559C14.4654 56.4684 23.1417 57.8125 32.5 57.8125C41.8583 57.8125 50.5346 56.4684 57.0491 54.1559C60.067 53.0863 62.8382 51.7133 65 50.0223V62.4375C65 68.8258 50.4475 74 32.5 74C14.5525 74 0 68.8258 0 62.4375V50.0223Z" fill="url(#paint0_linear_50_256)"/>
</g>
<defs>
<linearGradient id="paint0_linear_50_256" x1="32.5" y1="0" x2="32.5" y2="74" gradientUnits="userSpaceOnUse">
<stop stop-color="white"/>
<stop offset="1" stop-color="white" stop-opacity="0.18"/>
</linearGradient>
<clipPath id="clip0_50_256">
<rect width="65" height="74" fill="white"/>
</clipPath>
</defs>
</svg>
