<svg width="52" height="74" viewBox="0 0 52 74" fill="none" xmlns="http://www.w3.org/2000/svg">
<path d="M1.89587 13.8461C1.89587 6.20039 7.70525 0 14.8688 0H37.1313C44.2948 0 50.1042 6.20039 50.1042 13.8461C50.1042 18.6879 47.775 22.9516 44.2407 25.423C47.775 27.8945 50.1042 32.1582 50.1042 37C50.1042 44.6457 44.2948 50.8461 37.1313 50.8461H36.8469C33.4886 50.8461 30.4282 49.4875 28.1261 47.2473V60.0094C28.1261 67.7562 22.1677 74 14.9365 74C7.7865 74 1.89587 67.8141 1.89587 60.1539C1.89587 55.3121 4.22504 51.0484 7.74587 48.577C4.22504 46.1055 1.89587 41.8418 1.89587 37C1.89587 32.1582 4.22504 27.8945 7.74587 25.423C4.22504 22.9516 1.89587 18.6879 1.89587 13.8461ZM23.874 27.6922H14.8688C10.048 27.6922 6.14796 31.8547 6.14796 37C6.14796 42.1164 10.0209 46.2789 14.8146 46.3078C14.8282 46.3078 14.8552 46.3078 14.8688 46.3078H23.874V27.6922ZM28.1261 37C28.1261 42.1453 32.0261 46.3078 36.8469 46.3078H37.1313C41.9386 46.3078 45.8521 42.1453 45.8521 37C45.8521 31.8547 41.9386 27.6922 37.1313 27.6922H36.8469C32.0261 27.6922 28.1261 31.8547 28.1261 37ZM14.8688 50.8461C14.8552 50.8461 14.8282 50.8461 14.8146 50.8461C10.0209 50.875 6.14796 55.0375 6.14796 60.1539C6.14796 65.2848 10.1021 69.4617 14.9365 69.4617C19.8521 69.4617 23.874 65.2125 23.874 60.0094V50.8461H14.8688ZM14.8688 4.53828C10.048 4.53828 6.14796 8.70078 6.14796 13.8461C6.14796 18.9914 10.048 23.1539 14.8688 23.1539H23.874V4.53828H14.8688ZM28.1261 23.1539H37.1313C41.9386 23.1539 45.8521 18.9914 45.8521 13.8461C45.8521 8.70078 41.9386 4.53828 37.1313 4.53828H28.1261V23.1539Z" fill="url(#paint0_linear_50_271)"/>
<defs>
<linearGradient id="paint0_linear_50_271" x1="26" y1="0" x2="26" y2="74" gradientUnits="userSpaceOnUse">
<stop stop-color="white"/>
<stop offset="1" stop-color="white" stop-opacity="0.18"/>
</linearGradient>
</defs>
</svg>
