<svg width="75" height="76" viewBox="0 0 75 76" fill="none" xmlns="http://www.w3.org/2000/svg">
<path d="M66.9643 0.5H8.03571C3.59933 0.5 0 4.09933 0 8.53571V67.4643C0 71.9007 3.59933 75.5 8.03571 75.5H66.9643C71.4007 75.5 75 71.9007 75 67.4643V8.53571C75 4.09933 71.4007 0.5 66.9643 0.5ZM40.8147 58.9933C40.8147 66.2924 36.529 69.6239 30.2846 69.6239C24.6429 69.6239 21.3783 66.7109 19.7042 63.1786L25.4464 59.7132C26.5513 61.6719 27.5558 63.3292 29.9833 63.3292C32.2935 63.3292 33.7667 62.4252 33.7667 58.8929V34.9364H40.8147V58.9933ZM57.4888 69.6239C50.9431 69.6239 46.7076 66.51 44.6484 62.4252L50.3906 59.1105C51.8973 61.5714 53.8728 63.3962 57.3382 63.3962C60.2511 63.3962 62.1261 61.9397 62.1261 59.9141C62.1261 57.5033 60.2176 56.6496 56.9866 55.2266L55.2288 54.4732C50.1395 52.3136 46.7746 49.5848 46.7746 43.8426C46.7746 38.5525 50.8092 34.5346 57.0871 34.5346C61.5737 34.5346 64.7879 36.0915 67.0982 40.1763L61.6071 43.692C60.4018 41.5324 59.096 40.6786 57.0703 40.6786C55.0112 40.6786 53.7054 41.9844 53.7054 43.692C53.7054 45.8013 55.0112 46.6551 58.0413 47.9777L59.7991 48.731C65.7924 51.2924 69.1574 53.9208 69.1574 59.8136C69.1574 66.1417 64.1685 69.6239 57.4888 69.6239Z" fill="url(#paint0_linear_50_270)"/>
<defs>
<linearGradient id="paint0_linear_50_270" x1="37.5" y1="0.5" x2="37.5" y2="75.5" gradientUnits="userSpaceOnUse">
<stop stop-color="#FDFDFD"/>
<stop offset="1" stop-color="white" stop-opacity="0.18"/>
</linearGradient>
</defs>
</svg>
