<svg width="75" height="76" viewBox="0 0 75 76" fill="none" xmlns="http://www.w3.org/2000/svg">
<path d="M55.66 70.8171C55.3811 70.9648 55.4045 71.0116 55.6717 70.8757C55.754 70.8421 55.8295 70.7936 55.8943 70.7327C55.8943 70.6835 55.8943 70.6835 55.66 70.8171ZM56.2225 70.5124C56.0889 70.6226 56.0889 70.6226 56.2482 70.5499C56.3071 70.5223 56.361 70.4851 56.4076 70.4397C56.4076 70.3765 56.3701 70.3905 56.2225 70.5124ZM56.5881 70.2921C56.4545 70.4022 56.4545 70.4022 56.6139 70.3296C56.673 70.3014 56.7269 70.2634 56.7732 70.2171C56.7732 70.1585 56.7357 70.1702 56.5881 70.2921ZM56.9584 70.0741C56.8248 70.1843 56.8248 70.1843 56.9795 70.1093C57.0662 70.0624 57.1388 70.0132 57.1388 69.9991C57.1388 69.9405 57.1013 69.9522 56.9584 70.0741ZM57.4576 69.7436C57.2021 69.9147 57.1131 70.0249 57.3474 69.903C57.5045 69.8069 57.7716 69.596 57.7248 69.596C57.624 69.6335 57.5396 69.6968 57.4552 69.7436H57.4576ZM35.045 0.517227C34.8739 0.528946 34.3606 0.575822 33.9107 0.613323C23.2516 1.57897 13.2793 7.31658 6.95838 16.155C3.46528 21.0026 1.19471 26.6222 0.339833 32.5358C0.0374988 34.5984 0 35.2078 0 38.0039C0 40.7977 0.0374988 41.3977 0.339833 43.4603C2.38118 57.5489 12.4027 69.3757 25.9867 73.7586C28.4311 74.539 30.9928 75.0781 33.9107 75.4086C35.045 75.5305 39.9503 75.5305 41.0847 75.4086C46.1282 74.8461 50.3867 73.6015 54.6006 71.4523C55.2475 71.1241 55.3694 71.0374 55.2826 70.9648C53.227 68.2473 51.1887 65.5167 49.168 62.7732L43.1752 54.68L35.6684 43.5587C33.1714 39.8351 30.6488 36.1286 28.1007 32.4397C28.0749 32.4397 28.0421 37.3828 28.028 43.4111C28.0022 53.9699 28.0022 54.3988 27.8687 54.6425C27.7406 54.937 27.511 55.1757 27.2218 55.3152C26.9898 55.4254 26.7812 55.4488 25.6726 55.4488H24.4047L24.0742 55.2426C23.8673 55.1098 23.6991 54.9246 23.5868 54.7058L23.4274 54.3754L23.4391 39.6774L23.4649 24.9794L23.6969 24.6865C23.8451 24.5063 24.0275 24.3574 24.2336 24.2482C24.5406 24.1005 24.6625 24.0771 25.9304 24.0771C27.4187 24.0771 27.6648 24.1357 28.0562 24.5646C31.0971 29.0878 34.1119 33.6286 37.1004 38.1867C41.9729 45.5744 48.6243 55.6551 51.8937 60.6005L57.8396 69.5983L58.1326 69.4038C60.9901 67.5048 63.5796 65.2305 65.8315 62.6419C70.5553 57.235 73.6206 50.581 74.6602 43.4767C74.9625 41.4142 75 40.8024 75 38.0086C75 35.2125 74.9625 34.6148 74.6602 32.5523C72.6188 18.4637 62.5973 6.63688 49.0133 2.25164C46.4746 1.44753 43.8616 0.900245 41.2136 0.61801C40.5034 0.545353 35.6567 0.458632 35.0473 0.521915L35.045 0.517227ZM50.389 23.1982C50.5634 23.2838 50.7189 23.4034 50.8465 23.5498C50.9741 23.6963 51.0711 23.8668 51.132 24.0513C51.1953 24.2482 51.207 28.324 51.1953 37.5047L51.1695 50.6862L48.8516 47.1236L46.5196 43.5587V33.989C46.5196 27.785 46.5454 24.3068 46.5782 24.1357C46.693 23.7434 46.9561 23.4112 47.3118 23.2099C47.6024 23.0622 47.7149 23.0505 48.875 23.0505C49.9602 23.0505 50.1453 23.0622 50.389 23.1982Z" fill="url(#paint0_linear_50_265)"/>
<defs>
<linearGradient id="paint0_linear_50_265" x1="37.5" y1="0.5" x2="37.5" y2="75.5" gradientUnits="userSpaceOnUse">
<stop stop-color="#FDFDFD"/>
<stop offset="1" stop-color="white" stop-opacity="0.18"/>
</linearGradient>
</defs>
</svg>
