<svg width="66" height="76" viewBox="0 0 66 76" fill="none" xmlns="http://www.w3.org/2000/svg">
<g clip-path="url(#clip0_50_268)">
<path d="M64.7919 29.8701C63.6576 25.3438 61.5067 21.9307 56.925 21.9307H51.0174V28.874C51.0174 34.2647 46.421 38.8057 41.1763 38.8057H25.4424C21.1406 38.8057 17.5754 42.4678 17.5754 46.7598V61.6719C17.5754 65.9199 21.2879 68.4102 25.4424 69.626C30.4219 71.0762 35.2098 71.3399 41.1763 69.626C45.1393 68.4834 49.0433 66.1836 49.0433 61.6719V55.71H33.3241V53.7178H56.925C61.5067 53.7178 63.2009 50.5391 64.7919 45.7783C66.4419 40.8711 66.3683 36.1543 64.7919 29.8701ZM42.1634 59.6797C43.7986 59.6797 45.1245 61.0127 45.1245 62.6533C45.1245 64.3086 43.7986 65.6416 42.1634 65.6416C40.5428 65.6416 39.2022 64.294 39.2022 62.6533C39.217 60.9981 40.5428 59.6797 42.1634 59.6797ZM24.7205 36.8428H40.4545C44.8299 36.8428 48.3214 33.2539 48.3214 28.8887V13.9619C48.3214 9.71387 44.7268 6.53516 40.4545 5.81739C35.1803 4.95313 29.4495 4.99708 24.7205 5.83204C18.0616 7.00391 16.8536 9.4502 16.8536 13.9766V19.9385H32.6022V21.9307H10.946C6.36427 21.9307 2.35713 24.6699 1.1049 29.8701C-0.338851 35.832 -0.397779 39.5527 1.1049 45.7783C2.22454 50.4072 4.89106 53.7178 9.47276 53.7178H14.8795V46.5693C14.8795 41.3984 19.3728 36.8428 24.7205 36.8428ZM23.7335 15.9541C22.0982 15.9541 20.7723 14.6211 20.7723 12.9805C20.787 11.3252 22.0982 9.99219 23.7335 9.99219C25.354 9.99219 26.6946 11.3399 26.6946 12.9805C26.6946 14.6211 25.3687 15.9541 23.7335 15.9541Z" fill="url(#paint0_linear_50_268)"/>
</g>
<defs>
<linearGradient id="paint0_linear_50_268" x1="33.0009" y1="5.18732" x2="33.0009" y2="70.8146" gradientUnits="userSpaceOnUse">
<stop stop-color="white"/>
<stop offset="1" stop-color="white" stop-opacity="0.18"/>
</linearGradient>
<clipPath id="clip0_50_268">
<rect width="66" height="75" fill="white" transform="translate(0 0.5)"/>
</clipPath>
</defs>
</svg>
