<svg width="85" height="74" viewBox="0 0 85 74" fill="none" xmlns="http://www.w3.org/2000/svg">
<path d="M42.5 29.7285C46.5721 29.7285 49.893 32.9603 49.893 37C49.893 40.8473 46.5721 44.1176 42.5 44.1176C38.4279 44.1176 35.107 40.8473 35.107 37C35.107 32.9603 38.4279 29.7285 42.5 29.7285ZM24.1954 67.7787C26.686 69.2407 32.1419 67.0093 38.4279 61.2382C36.3721 58.9683 34.3558 56.506 32.4581 53.9283C29.2722 53.6316 26.1049 53.1693 22.9698 52.5433C20.9535 60.7766 21.7047 66.4322 24.1954 67.7787ZM27.0023 45.695L25.8558 43.7328C25.4209 44.8486 24.986 45.9643 24.7093 47.0416C25.7767 47.2724 26.9628 47.4648 28.1884 47.6571L27.0023 45.695ZM52.8581 42.771L56.0605 37L52.8581 31.229C51.6721 29.1899 50.407 27.3816 49.2605 25.5734C47.1256 25.458 44.8721 25.458 42.5 25.458C40.1279 25.458 37.8744 25.458 35.7395 25.5734C34.593 27.3816 33.3279 29.1899 32.1419 31.229L28.9395 37L32.1419 42.771C33.3279 44.8101 34.593 46.6184 35.7395 48.4266C37.8744 48.542 40.1279 48.542 42.5 48.542C44.8721 48.542 47.1256 48.542 49.2605 48.4266C50.407 46.6184 51.6721 44.8101 52.8581 42.771ZM42.5 16.9169C41.7488 17.7633 40.9581 18.6482 40.1674 19.687H44.8326C44.0419 18.6482 43.2512 17.7633 42.5 16.9169ZM42.5 57.0831C43.2512 56.2367 44.0419 55.3518 44.8326 54.313H40.1674C40.9581 55.3518 41.7488 56.2367 42.5 57.0831ZM60.7651 6.22128C58.314 4.75929 52.8581 6.99074 46.5721 12.7618C48.6279 15.0317 50.6442 17.494 52.5419 20.0717C55.7837 20.3795 58.986 20.8412 62.0302 21.4567C64.0465 13.2234 63.2954 7.56785 60.7651 6.22128ZM57.9977 28.305L59.1442 30.2672C59.5791 29.1514 60.014 28.0357 60.2907 26.9584C59.2233 26.7276 58.0372 26.5352 56.8116 26.3429L57.9977 28.305ZM63.7302 1.18126C69.5419 4.41303 70.1744 12.9156 67.7233 22.8418C77.7651 25.7273 85 30.498 85 37C85 43.502 77.7651 48.2727 67.7233 51.1582C70.1744 61.0844 69.5419 69.587 63.7302 72.8187C57.9581 76.0505 50.0907 72.3571 42.5 65.3164C34.9093 72.3571 27.0419 76.0505 21.2302 72.8187C15.4581 69.587 14.8256 61.0844 17.2767 51.1582C7.23488 48.2727 0 43.502 0 37C0 30.498 7.23488 25.7273 17.2767 22.8418C14.8256 12.9156 15.4581 4.41303 21.2302 1.18126C27.0419 -2.05051 34.9093 1.64294 42.5 8.68357C50.0907 1.64294 57.9581 -2.05051 63.7302 1.18126ZM62.5837 37C63.9279 39.8855 65.114 42.771 66.1023 45.695C74.4047 43.2712 79.0698 39.8086 79.0698 37C79.0698 34.1914 74.4047 30.7288 66.1023 28.305C65.114 31.229 63.9279 34.1145 62.5837 37ZM22.4163 37C21.0721 34.1145 19.886 31.229 18.8977 28.305C10.5954 30.7288 5.93023 34.1914 5.93023 37C5.93023 39.8086 10.5954 43.2712 18.8977 45.695C19.886 42.771 21.0721 39.8855 22.4163 37ZM57.9977 45.695L56.8116 47.6571C58.0372 47.4648 59.2233 47.2724 60.2907 47.0416C60.014 45.9643 59.5791 44.8486 59.1442 43.7328L57.9977 45.695ZM46.5721 61.2382C52.8581 67.0093 58.314 69.2407 60.7651 67.7787C63.2954 66.4322 64.0465 60.7766 62.0302 52.5433C58.986 53.1588 55.7837 53.6205 52.5419 53.9283C50.6442 56.506 48.6279 58.9683 46.5721 61.2382ZM27.0023 28.305L28.1884 26.3429C26.9628 26.5352 25.7767 26.7276 24.7093 26.9584C24.986 28.0357 25.4209 29.1514 25.8558 30.2672L27.0023 28.305ZM38.4279 12.7618C32.1419 6.99074 26.686 4.75929 24.1954 6.22128C21.7047 7.56785 20.9535 13.2234 22.9698 21.4567C26.1049 20.8307 29.2722 20.3684 32.4581 20.0717C34.3558 17.494 36.3721 15.0317 38.4279 12.7618Z" fill="url(#paint0_linear_50_262)"/>
<defs>
<linearGradient id="paint0_linear_50_262" x1="42.5" y1="0" x2="42.5" y2="74" gradientUnits="userSpaceOnUse">
<stop stop-color="#FDFDFD"/>
<stop offset="1" stop-color="white" stop-opacity="0.18"/>
</linearGradient>
</defs>
</svg>
