<svg width="74" height="74" viewBox="0 0 74 74" fill="none" xmlns="http://www.w3.org/2000/svg">
<path d="M9.25 4.625C4.14805 4.625 0 8.77305 0 13.875V23.125C0 28.227 4.14805 32.375 9.25 32.375H64.75C69.852 32.375 74 28.227 74 23.125V13.875C74 8.77305 69.852 4.625 64.75 4.625H9.25ZM49.7188 15.0312C50.6387 15.0312 51.521 15.3967 52.1715 16.0472C52.822 16.6977 53.1875 17.58 53.1875 18.5C53.1875 19.42 52.822 20.3023 52.1715 20.9528C51.521 21.6033 50.6387 21.9688 49.7188 21.9688C48.7988 21.9688 47.9165 21.6033 47.266 20.9528C46.6155 20.3023 46.25 19.42 46.25 18.5C46.25 17.58 46.6155 16.6977 47.266 16.0472C47.9165 15.3967 48.7988 15.0312 49.7188 15.0312ZM56.6562 18.5C56.6562 17.58 57.0217 16.6977 57.6722 16.0472C58.3227 15.3967 59.205 15.0312 60.125 15.0312C61.045 15.0312 61.9273 15.3967 62.5778 16.0472C63.2283 16.6977 63.5938 17.58 63.5938 18.5C63.5938 19.42 63.2283 20.3023 62.5778 20.9528C61.9273 21.6033 61.045 21.9688 60.125 21.9688C59.205 21.9688 58.3227 21.6033 57.6722 20.9528C57.0217 20.3023 56.6562 19.42 56.6562 18.5ZM9.25 41.625C4.14805 41.625 0 45.773 0 50.875V60.125C0 65.227 4.14805 69.375 9.25 69.375H64.75C69.852 69.375 74 65.227 74 60.125V50.875C74 45.773 69.852 41.625 64.75 41.625H9.25ZM49.7188 52.0312C50.6387 52.0312 51.521 52.3967 52.1715 53.0472C52.822 53.6977 53.1875 54.58 53.1875 55.5C53.1875 56.42 52.822 57.3023 52.1715 57.9528C51.521 58.6033 50.6387 58.9688 49.7188 58.9688C48.7988 58.9688 47.9165 58.6033 47.266 57.9528C46.6155 57.3023 46.25 56.42 46.25 55.5C46.25 54.58 46.6155 53.6977 47.266 53.0472C47.9165 52.3967 48.7988 52.0312 49.7188 52.0312ZM57.8125 55.5C57.8125 54.58 58.178 53.6977 58.8285 53.0472C59.479 52.3967 60.3613 52.0312 61.2812 52.0312C62.2012 52.0312 63.0835 52.3967 63.734 53.0472C64.3845 53.6977 64.75 54.58 64.75 55.5C64.75 56.42 64.3845 57.3023 63.734 57.9528C63.0835 58.6033 62.2012 58.9688 61.2812 58.9688C60.3613 58.9688 59.479 58.6033 58.8285 57.9528C58.178 57.3023 57.8125 56.42 57.8125 55.5Z" fill="url(#paint0_linear_50_258)"/>
<defs>
<linearGradient id="paint0_linear_50_258" x1="37" y1="4.625" x2="37" y2="69.375" gradientUnits="userSpaceOnUse">
<stop stop-color="white"/>
<stop offset="1" stop-color="white" stop-opacity="0.18"/>
</linearGradient>
</defs>
</svg>
